<?xml version="1.0" encoding="UTF-8" standalone="no"?>
<!-- Created with Inkscape (http://www.inkscape.org/) -->

<svg
   width="51.692924mm"
   height="49.79427mm"
   viewBox="0 0 51.692924 49.79427"
   version="1.1"
   id="svg5"
   xml:space="preserve"
   inkscape:version="1.2.2 (732a01da63, 2022-12-09, custom)"
   sodipodi:docname="electronic_components.svg"
   xmlns:inkscape="http://www.inkscape.org/namespaces/inkscape"
   xmlns:sodipodi="http://sodipodi.sourceforge.net/DTD/sodipodi-0.dtd"
   xmlns="http://www.w3.org/2000/svg"
   xmlns:svg="http://www.w3.org/2000/svg"><sodipodi:namedview
     id="namedview7"
     pagecolor="#505050"
     bordercolor="#eeeeee"
     borderopacity="1"
     inkscape:showpageshadow="0"
     inkscape:pageopacity="0"
     inkscape:pagecheckerboard="0"
     inkscape:deskcolor="#505050"
     inkscape:document-units="mm"
     showgrid="false"
     inkscape:zoom="1.4324916"
     inkscape:cx="68.412269"
     inkscape:cy="78.534493"
     inkscape:window-width="2048"
     inkscape:window-height="1063"
     inkscape:window-x="0"
     inkscape:window-y="0"
     inkscape:window-maximized="1"
     inkscape:current-layer="layer1" /><defs
     id="defs2" /><g
     inkscape:label="Layer 1"
     inkscape:groupmode="layer"
     id="layer1"
     transform="translate(-79.348659,-111.00815)"><path
       style="opacity:0.125067;fill:#000000;fill-opacity:1;stroke-width:0.420311"
       d="m 98.045551,158.95698 c -2.695557,-2.31771 -1.139013,-7.63681 2.234789,-7.63681 0.44857,0 1.41297,0.73324 2.14324,1.6299 1.21391,1.49017 1.51747,1.62986 3.54039,1.62986 1.88349,0 2.24867,-0.139 2.45477,-0.9365 0.26935,-1.04148 2.02113,-2.32326 3.17528,-2.32326 0.41167,0 1.27368,0.54271 1.91563,1.2056 2.35661,2.43425 1.04227,7.17669 -1.98895,7.17669 -1.39395,0 -3.29295,-1.49653 -3.29295,-2.595 0,-0.50732 -0.58262,-0.66492 -2.46582,-0.66492 -1.46246,0 -2.46583,0.1978 -2.46583,0.48701 0,0.26783 -0.41898,1.00123 -0.93114,1.62996 -1.09624,1.34567 -3.011618,1.52192 -4.319409,0.3972 z m 3.516359,-1.84904 c 0.75006,-0.92077 0.75136,-1.58302 0.006,-2.89004 -0.69929,-1.22565 -1.922603,-1.33754 -2.88865,-0.26462 -0.787111,0.87453 -0.868707,1.68337 -0.301036,2.98546 0.483482,1.10895 2.338156,1.20737 3.184086,0.16893 z m 11.05612,0.37528 c 1.38464,-1.16385 0.54776,-4.30049 -1.14739,-4.30049 -1.72122,0 -2.80157,2.6839 -1.64959,4.09804 0.50291,0.61751 2.16059,0.73731 2.79698,0.20261 z m -27.939638,0.39239 c -1.486988,-1.82546 -1.512721,-4.06998 -0.06664,-5.84471 0.919814,-1.1291 1.246373,-1.24923 2.786766,-1.02534 1.720165,0.25019 1.776125,0.21491 3.95478,-2.48765 1.977456,-2.45312 2.392637,-2.75607 3.946838,-2.88015 1.655011,-0.13205 1.742529,-0.2101 1.855801,-1.65215 l 0.118877,-1.51347 h -2.051709 c -1.569925,0 -2.212939,0.21864 -2.73834,0.93136 -0.530781,0.71961 -1.16841,0.93136 -2.809131,0.93136 -1.971021,0 -2.198127,0.11654 -3.181912,1.62991 -0.921161,1.41719 -1.27648,1.62985 -2.722813,1.62985 -1.34516,0 -1.813835,-0.23469 -2.449651,-1.22699 -1.781491,-2.78018 -0.32281,-6.87588 2.448903,-6.87588 1.1852,0 1.649091,0.30151 2.650036,1.72298 1.061754,1.50786 1.425159,1.72309 2.908948,1.72309 1.31816,0 1.893961,-0.25874 2.586592,-1.16423 0.752662,-0.98343 1.234143,-1.16417 3.100997,-1.16417 h 2.210014 v -1.62991 c 0,-1.61943 -0.01129,-1.62996 -1.693771,-1.62996 -1.368862,0 -1.780968,0.20101 -2.148435,1.04779 -0.687505,1.58431 -1.514859,2.18086 -3.047352,2.19727 -1.093337,0.016 -1.597852,-0.29028 -2.370995,-1.41805 -1.858033,-2.71063 -0.744704,-6.22801 2.150393,-6.79387 1.282008,-0.25072 1.556123,-0.10852 2.724879,1.41276 1.080218,1.40602 1.559795,1.69138 2.84236,1.69138 1.510412,0 1.542921,-0.0321 1.542921,-1.62991 v -1.62985 h -2.126542 c -1.714863,0 -2.344753,-0.22506 -3.253645,-1.16423 -0.828321,-0.85561 -1.569363,-1.16422 -2.795369,-1.16422 -1.444218,0 -1.742173,0.17534 -2.218591,1.30637 -0.568233,1.34898 -2.006609,2.41912 -3.251477,2.41912 -0.391455,0 -1.236985,-0.54271 -1.878934,-1.2056 -2.405444,-2.48466 -1.038909,-7.1768 2.090166,-7.1768 1.102901,0 1.657268,0.34107 2.647268,1.62991 1.131387,1.47268 1.450351,1.62996 3.305381,1.62996 1.57137,0 2.214261,0.21864 2.73976,0.93136 0.525416,0.71239 1.168415,0.93136 2.73834,0.93136 h 2.051709 l -0.118877,-1.51348 c -0.113261,-1.4421 -0.200756,-1.52005 -1.855801,-1.65214 -1.554201,-0.12403 -1.969382,-0.42714 -3.946838,-2.8801 -2.198126,-2.72683 -2.219559,-2.73998 -4.016447,-2.47878 -1.589082,0.23094 -1.924523,0.11761 -2.786761,-0.94066 -2.698453,-3.31252 0.527042,-8.77484 3.912491,-6.62569 1.48871,0.94499 2.070085,2.3207 1.810528,4.28409 -0.186401,1.40971 0.0073,1.85555 1.896461,4.3601 1.841976,2.44237 2.279053,2.78975 3.509257,2.78975 1.121492,0 1.575134,-0.28226 2.24666,-1.39704 l 0.841401,-1.39704 h 6.995402 6.9954 l 0.84141,1.39704 c 0.67214,1.11606 1.12479,1.39704 2.24996,1.39704 1.25266,0 1.6312,-0.31541 3.42013,-2.85037 1.75354,-2.48472 1.99841,-3.0741 1.90896,-4.59463 -0.15105,-2.56848 1.23477,-4.40875 3.32016,-4.40875 1.88755,0 3.00793,1.19085 3.31651,3.52502 0.17542,1.3268 0.0205,1.91244 -0.83963,3.16669 -0.98306,1.43419 -1.18081,1.524 -2.90688,1.32043 -1.84228,-0.21704 -1.86325,-0.20421 -3.97223,2.51011 -2.01598,2.59452 -2.21053,2.72865 -3.9592,2.72865 h -1.83905 v 1.6299 1.62986 h 2.02767 c 1.5459,0 2.19082,-0.22132 2.71431,-0.93136 0.53655,-0.72763 1.16839,-0.93136 2.89062,-0.93136 1.89801,0 2.26713,-0.14541 2.65867,-1.04785 0.68329,-1.57458 1.51495,-2.18235 2.98625,-2.18235 2.88458,0 4.42653,3.85326 2.65088,6.62425 -1.49057,2.32615 -4.39586,2.01903 -5.60657,-0.59254 -0.57173,-1.23346 -0.85295,-1.39865 -2.38403,-1.40132 -1.36291,-0.002 -1.92723,0.24698 -2.62679,1.16129 -0.75267,0.98343 -1.23414,1.16422 -3.10099,1.16422 h -2.21002 v 1.62991 c 0,1.58415 0.0415,1.62985 1.4795,1.62985 1.18504,0 1.74375,-0.32396 2.80725,-1.62985 0.73024,-0.8965 1.67821,-1.62991 2.10654,-1.62991 1.99796,0 3.84937,2.24586 3.84937,4.66953 0,1.64482 -2.00068,3.71282 -3.59195,3.71282 -1.35311,0 -3.23649,-1.61365 -3.23649,-2.77291 0,-0.26783 -0.76818,-0.48701 -1.7071,-0.48701 -1.69808,0 -1.70712,0.0107 -1.70712,1.63001 v 1.62986 h 2.21002 c 1.86685,0 2.34836,0.18069 3.10099,1.16423 0.70343,0.91911 1.26349,1.16417 2.66075,1.16417 1.52921,0 1.82971,-0.16145 2.21087,-1.18839 0.24259,-0.65364 1.03819,-1.49466 1.76799,-1.86898 3.42251,-1.75548 6.40396,3.38678 3.80997,6.57117 -0.63015,0.77344 -1.35586,1.14305 -2.24513,1.14305 -1.84297,0 -2.45864,-0.38009 -3.1069,-1.91917 -0.52404,-1.24404 -0.72382,-1.34059 -2.77236,-1.34059 -1.72583,0 -2.35745,-0.20314 -2.89422,-0.93136 -0.52347,-0.70999 -1.16841,-0.93141 -2.71431,-0.93141 h -2.02767 v 1.62991 1.6299 h 1.87443 c 1.81309,0 1.93923,0.0898 3.85575,2.76313 l 1.98133,2.76313 1.81346,-0.26355 c 1.65385,-0.24057 1.91547,-0.13846 2.97268,1.15936 1.54288,1.89394 1.56025,3.86812 0.0504,5.7217 -1.50886,1.85219 -3.11821,1.83209 -4.65814,-0.0561 -0.99471,-1.22106 -1.12907,-1.66952 -0.96101,-3.2077 0.18474,-1.69085 0.0683,-1.94306 -2.14401,-4.6344 -2.81848,-3.42906 -3.95843,-3.70186 -5.56831,-1.33273 l -1.02842,1.51348 -6.1587,0.14968 c -6.653838,0.16091 -7.900788,-0.13044 -8.734508,-2.04277 -0.381298,-0.87453 -0.802304,-1.13348 -1.842556,-1.13348 -1.153818,0 -1.659573,0.40147 -3.505005,2.7821 -2.033805,2.62371 -2.145095,2.88758 -1.95424,4.6344 0.176246,1.61291 0.05282,2.03566 -0.95401,3.27174 -1.539938,1.89041 -3.149282,1.91056 -4.658151,0.0561 z m 3.991016,-2.03961 c 0.492759,-1.73057 -0.09784,-2.8446 -1.605747,-3.02979 -0.911098,-0.11172 -1.312595,0.12082 -1.807326,1.0478 -0.595124,1.11499 -0.595124,1.26826 0,2.38314 0.904239,1.69416 2.882701,1.46157 3.413073,-0.40094 z m 37.312272,0.97925 c 0.2504,-0.30685 0.45521,-1.10365 0.45521,-1.76959 0,-1.53897 -0.64306,-2.32845 -1.8968,-2.32845 -0.54248,0 -1.19118,0.25179 -1.44154,0.5588 -0.58684,0.72041 -0.58684,2.81883 0,3.53924 0.58684,0.72042 2.29628,0.72042 2.88312,0 z M 85.00253,145.47268 c 0.463661,-0.39881 0.843124,-1.16803 0.843124,-1.70962 0,-1.25136 -1.045189,-2.68796 -1.955594,-2.68796 -0.842518,0 -2.217342,1.58799 -2.217342,2.56126 0,0.85289 1.335361,2.56122 2.002057,2.56122 0.266568,0 0.864035,-0.32664 1.327755,-0.72522 z m 44.17892,-0.38598 c 0.55206,-1.02865 0.29908,-3.04202 -0.44345,-3.52983 -1.55002,-1.01834 -3.0598,0.0107 -3.0598,2.08602 0,2.07201 2.59269,3.1406 3.50326,1.44381 z m -20.9537,-8.43596 v -9.08079 h -2.6555 -2.6555 v 8.77035 c 0,4.82375 0.1138,8.91009 0.2529,9.0809 0.13909,0.17053 1.33407,0.31059 2.65549,0.31059 h 2.40259 z m -16.388251,1.53678 c 0.250407,-0.30739 0.455214,-1.10366 0.455214,-1.76965 0,-1.56073 -0.64599,-2.3284 -1.959308,-2.3284 -1.561588,0 -2.48412,2.74153 -1.379038,4.09805 0.586844,0.72041 2.296273,0.72041 2.883122,0 z m 30.727961,0 c 0.63835,-0.78392 0.56661,-2.49776 -0.14095,-3.36625 -1.54074,-1.89132 -4.16308,0.34481 -3.25939,2.77996 0.32725,0.88176 0.7148,1.14515 1.68504,1.14515 0.69303,0 1.46488,-0.25179 1.71525,-0.55881 z m -37.31795,-7.15825 c 1.521991,-1.86828 -0.278822,-5.11184 -2.231682,-4.01952 -1.219569,0.68182 -1.554228,2.19454 -0.798808,3.60987 0.702532,1.31631 2.134277,1.50983 3.030475,0.41003 z m 43.48848,0.25019 c 1.09755,-0.72121 0.97322,-3.02935 -0.21467,-3.98477 -0.87854,-0.70667 -1.01825,-0.70667 -1.89679,0 -1.6583,1.33385 -1.05377,4.3979 0.8785,4.45269 0.27452,0.005 0.82933,-0.20261 1.2329,-0.46776 z M 88.037399,119.86011 c 1.502869,-1.2921 0.73966,-4.39757 -1.08077,-4.39757 -0.778581,0 -2.249046,1.5363 -2.249046,2.34962 0,0.57564 1.723337,2.77296 2.174485,2.77296 0.171658,0 0.691567,-0.32663 1.155331,-0.72522 z m 37.556381,0 c 1.42114,-1.22191 0.75965,-4.39757 -0.91602,-4.39757 -2.00808,0 -2.82003,2.99722 -1.19129,4.39757 0.46366,0.39881 0.93785,0.72523 1.05364,0.72523 0.11585,0 0.58993,-0.32664 1.05367,-0.72523 z m -26.328629,2.23613 c -1.316305,-0.26676 -2.56987,-2.26612 -2.56987,-4.09788 0,-3.51519 3.584239,-5.38662 5.682429,-2.96686 0.50511,0.58291 0.91839,1.3369 0.91839,1.67641 0,0.44478 0.64022,0.61751 2.28428,0.61751 2.04042,0 2.32838,-0.11922 2.6974,-1.11307 0.88589,-2.38678 3.8938,-3.0108 5.51281,-1.1437 1.31468,1.51609 1.14091,4.78414 -0.32565,6.12339 -1.60015,1.46119 -3.3081,1.1684 -4.7084,-0.80723 -1.09071,-1.53886 -1.3374,-1.66235 -3.31939,-1.66235 -1.54064,0 -2.14109,0.17588 -2.14109,0.62632 0,1.38458 -2.46565,3.06517 -4.030948,2.74752 z m 2.134159,-2.44253 c 0.41728,-0.51214 0.75876,-1.2457 0.75876,-1.62985 0,-0.85299 -1.33537,-2.56132 -2.00207,-2.56132 -0.936189,0 -2.17088,1.45675 -2.17088,2.56132 0,1.10451 1.234691,2.56126 2.17088,2.56126 0.26657,0 0.82605,-0.41911 1.24334,-0.93141 z m 11.38072,0 c 0.41728,-0.51214 0.75876,-1.2457 0.75876,-1.62985 0,-0.85299 -1.33537,-2.56132 -2.00206,-2.56132 -0.93619,0 -2.17088,1.45675 -2.17088,2.56132 0,1.10451 1.23469,2.56126 2.17088,2.56126 0.26656,0 0.82605,-0.41911 1.24334,-0.93141 z"
       id="path314"
       inkscape:transform-center-x="-0.17924822"
       inkscape:transform-center-y="4.0371733" /><path
       style="fill:#000000;stroke-width:0.0822722"
       d="m 109.66466,158.50938 c -0.55212,-0.43355 -0.2333,-1.42854 0.45775,-1.42854 0.0919,0 0.28941,0.13716 0.43899,0.30489 0.24864,0.27875 0.31082,0.30488 0.72516,0.30488 0.38579,0 0.46059,-0.026 0.5028,-0.17518 0.0552,-0.19482 0.41398,-0.43459 0.65039,-0.43459 0.0843,0 0.26088,0.10152 0.39237,0.22552 0.48269,0.45535 0.21348,1.34247 -0.40739,1.34247 -0.28552,0 -0.67449,-0.27994 -0.67449,-0.48542 0,-0.0949 -0.11933,-0.12438 -0.50506,-0.12438 -0.29955,0 -0.50507,0.037 -0.50507,0.0911 0,0.0501 -0.0858,0.18729 -0.19072,0.3049 -0.22454,0.25172 -0.61686,0.28469 -0.88473,0.0743 z m 0.72024,-0.34588 c 0.15364,-0.17224 0.1539,-0.29612 0.001,-0.54061 -0.14323,-0.22927 -0.39379,-0.2502 -0.59167,-0.0495 -0.16122,0.16359 -0.17793,0.31489 -0.0617,0.55846 0.099,0.20744 0.47892,0.22585 0.65219,0.0316 z m 2.26459,0.0702 c 0.28361,-0.21771 0.11219,-0.80445 -0.23502,-0.80445 -0.35255,0 -0.57383,0.50205 -0.33788,0.76658 0.10301,0.11551 0.44255,0.13792 0.5729,0.0379 z m -5.72277,0.0734 c -0.30458,-0.34147 -0.30985,-0.76133 -0.0136,-1.09331 0.1884,-0.21121 0.25529,-0.23368 0.5708,-0.1918 0.35233,0.0468 0.3638,0.0402 0.81004,-0.46534 0.40504,-0.45888 0.49008,-0.51555 0.80842,-0.53876 0.33899,-0.0247 0.35691,-0.0393 0.38012,-0.30905 l 0.0243,-0.28311 h -0.42025 c -0.32156,0 -0.45327,0.0409 -0.56088,0.17422 -0.10872,0.13461 -0.23932,0.17422 -0.57539,0.17422 -0.40371,0 -0.45023,0.0218 -0.65174,0.30489 -0.18867,0.2651 -0.26145,0.30488 -0.5577,0.30488 -0.27552,0 -0.37152,-0.0439 -0.50175,-0.22952 -0.3649,-0.52006 -0.0661,-1.2862 0.5016,-1.2862 0.24276,0 0.33777,0.0564 0.54279,0.3223 0.21748,0.28206 0.29191,0.32232 0.59583,0.32232 0.27,0 0.38794,-0.0484 0.52981,-0.21778 0.15416,-0.18396 0.25278,-0.21777 0.63516,-0.21777 h 0.45267 v -0.30489 c 0,-0.30293 -0.002,-0.3049 -0.34693,-0.3049 -0.28038,0 -0.36479,0.0376 -0.44005,0.196 -0.14082,0.29636 -0.31029,0.40795 -0.62418,0.41102 -0.22395,0.003 -0.32728,-0.0543 -0.48564,-0.26526 -0.38058,-0.50705 -0.15254,-1.16501 0.44045,-1.27086 0.26259,-0.0469 0.31874,-0.0203 0.55813,0.26427 0.22126,0.26301 0.31949,0.31639 0.58219,0.31639 0.30937,0 0.31603,-0.006 0.31603,-0.30489 v -0.30488 h -0.43557 c -0.35125,0 -0.48027,-0.0421 -0.66643,-0.21778 -0.16967,-0.16005 -0.32145,-0.21778 -0.57257,-0.21778 -0.29581,0 -0.35684,0.0328 -0.45442,0.24437 -0.11639,0.25234 -0.41101,0.45252 -0.66599,0.45252 -0.0802,0 -0.25337,-0.10152 -0.38486,-0.22552 -0.4927,-0.46478 -0.21279,-1.34249 0.42812,-1.34249 0.22591,0 0.33946,0.0638 0.54223,0.30489 0.23174,0.27548 0.29707,0.3049 0.67703,0.3049 0.32186,0 0.45354,0.0409 0.56118,0.17422 0.10762,0.13326 0.23932,0.17422 0.56088,0.17422 h 0.42025 l -0.0243,-0.28311 c -0.0232,-0.26976 -0.0411,-0.28434 -0.38012,-0.30905 -0.31834,-0.0232 -0.40338,-0.0799 -0.80842,-0.53875 -0.45023,-0.51008 -0.45462,-0.51254 -0.82267,-0.46368 -0.32549,0.0432 -0.39419,0.022 -0.5708,-0.17596 -0.55272,-0.61964 0.10795,-1.64142 0.80138,-1.2394 0.30492,0.17677 0.42401,0.43411 0.37084,0.80138 -0.0382,0.2637 0.002,0.3471 0.38845,0.8156 0.37728,0.45687 0.46681,0.52185 0.71878,0.52185 0.22972,0 0.32263,-0.0528 0.46018,-0.26133 l 0.17234,-0.26133 h 1.43284 1.43284 l 0.17235,0.26133 c 0.13767,0.20877 0.23038,0.26133 0.46085,0.26133 0.25658,0 0.33411,-0.059 0.70053,-0.53319 0.35917,-0.46479 0.40933,-0.57504 0.39101,-0.85947 -0.0309,-0.48046 0.25291,-0.8247 0.68005,-0.8247 0.38662,0 0.61611,0.22276 0.67931,0.65939 0.0359,0.24819 0.004,0.35774 -0.17198,0.59236 -0.20135,0.26828 -0.24186,0.28508 -0.5954,0.247 -0.37735,-0.0406 -0.38165,-0.0382 -0.81362,0.46954 -0.41293,0.48533 -0.45277,0.51042 -0.81095,0.51042 h -0.37668 v 0.30489 0.30488 h 0.41532 c 0.31664,0 0.44873,-0.0414 0.55596,-0.17422 0.1099,-0.13611 0.23932,-0.17422 0.59207,-0.17422 0.38877,0 0.46437,-0.0272 0.54457,-0.19601 0.13995,-0.29454 0.3103,-0.40823 0.61166,-0.40823 0.59084,0 0.90667,0.72079 0.54297,1.23913 -0.30531,0.43513 -0.90039,0.37768 -1.14837,-0.11084 -0.11711,-0.23073 -0.17471,-0.26163 -0.48831,-0.26213 -0.27916,-3.3e-4 -0.39475,0.0462 -0.53804,0.21723 -0.15417,0.18396 -0.25278,0.21778 -0.63516,0.21778 h -0.45267 v 0.30489 c 0,0.29633 0.008,0.30488 0.30304,0.30488 0.24272,0 0.35716,-0.0606 0.575,-0.30488 0.14957,-0.1677 0.34374,-0.30489 0.43147,-0.30489 0.40924,0 0.78845,0.42011 0.78845,0.87348 0,0.30768 -0.40979,0.69452 -0.73572,0.69452 -0.27716,0 -0.66292,-0.30185 -0.66292,-0.5187 0,-0.0501 -0.15735,-0.0911 -0.34966,-0.0911 -0.34781,0 -0.34966,0.002 -0.34966,0.30491 v 0.30488 h 0.45267 c 0.38238,0 0.481,0.0338 0.63516,0.21778 0.14408,0.17193 0.2588,0.21777 0.54499,0.21777 0.31322,0 0.37478,-0.0302 0.45285,-0.2223 0.0497,-0.12227 0.21264,-0.27959 0.36213,-0.34961 0.70102,-0.32838 1.3117,0.63353 0.78038,1.2292 -0.12907,0.14468 -0.27772,0.21382 -0.45986,0.21382 -0.37749,0 -0.5036,-0.0711 -0.63638,-0.359 -0.10733,-0.23271 -0.14825,-0.25077 -0.56785,-0.25077 -0.35349,0 -0.48287,-0.038 -0.59281,-0.17422 -0.10722,-0.13281 -0.23932,-0.17423 -0.55596,-0.17423 h -0.41532 v 0.30489 0.30489 h 0.38393 c 0.37137,0 0.3972,0.0168 0.78976,0.51687 l 0.40583,0.51687 0.37144,-0.0493 c 0.33875,-0.045 0.39234,-0.0259 0.60888,0.21687 0.31603,0.35428 0.31958,0.72357 0.0103,1.0703 -0.30905,0.34647 -0.63869,0.34271 -0.95411,-0.0105 -0.20374,-0.22841 -0.23126,-0.3123 -0.19684,-0.60003 0.0378,-0.31629 0.014,-0.36347 -0.43915,-0.86691 -0.57729,-0.64144 -0.81079,-0.69247 -1.14053,-0.2493 l -0.21065,0.28311 -1.26146,0.028 c -1.36288,0.0301 -1.61829,-0.0244 -1.78906,-0.38212 -0.0781,-0.16359 -0.16433,-0.21203 -0.3774,-0.21203 -0.23634,0 -0.33993,0.0751 -0.71792,0.52042 -0.41658,0.49079 -0.43937,0.54015 -0.40028,0.86691 0.0361,0.30171 0.0108,0.38079 -0.19541,0.61201 -0.31542,0.35362 -0.64505,0.35739 -0.95411,0.0105 z m 0.81746,-0.38153 c 0.10093,-0.32372 -0.02,-0.53211 -0.3289,-0.56675 -0.18661,-0.0209 -0.26885,0.0226 -0.37019,0.196 -0.12189,0.20857 -0.12189,0.23724 0,0.44579 0.18522,0.31691 0.59046,0.2734 0.69909,-0.075 z m 7.64254,0.18318 c 0.0513,-0.0574 0.0932,-0.20645 0.0932,-0.33102 0,-0.28788 -0.13172,-0.43556 -0.38852,-0.43556 -0.11111,0 -0.24398,0.0471 -0.29527,0.10453 -0.1202,0.13476 -0.1202,0.52729 0,0.66205 0.12021,0.13476 0.47034,0.13476 0.59054,0 z m -8.39361,-2.12174 c 0.095,-0.0746 0.17269,-0.21849 0.17269,-0.3198 0,-0.23408 -0.21408,-0.50281 -0.40055,-0.50281 -0.17257,0 -0.45417,0.29705 -0.45417,0.47911 0,0.15954 0.27351,0.4791 0.41007,0.4791 0.0546,0 0.17698,-0.0611 0.27196,-0.13566 z m 9.049,-0.0722 c 0.11308,-0.19242 0.0613,-0.56904 -0.0908,-0.66029 -0.31748,-0.19049 -0.62672,0.002 -0.62672,0.39021 0,0.38759 0.53105,0.58748 0.71755,0.27008 z m -4.29187,-1.57803 v -1.69865 h -0.54391 -0.54392 v 1.64058 c 0,0.90233 0.0233,1.66672 0.0518,1.69867 0.0285,0.0319 0.27325,0.0581 0.54392,0.0581 h 0.49211 z m -3.35674,0.28747 c 0.0513,-0.0575 0.0932,-0.20645 0.0932,-0.33103 0,-0.29195 -0.13232,-0.43555 -0.40132,-0.43555 -0.31985,0 -0.50881,0.51283 -0.28246,0.76658 0.1202,0.13476 0.47034,0.13476 0.59054,0 z m 6.29389,0 c 0.13075,-0.14664 0.11606,-0.46723 -0.0289,-0.62969 -0.31558,-0.35379 -0.8527,0.0645 -0.66761,0.52002 0.067,0.16494 0.14641,0.21421 0.34515,0.21421 0.14195,0 0.30004,-0.0471 0.35132,-0.10453 z m -7.64369,-1.33902 c 0.31174,-0.34948 -0.0571,-0.95622 -0.45711,-0.75189 -0.2498,0.12754 -0.31835,0.41051 -0.16362,0.67526 0.1439,0.24623 0.43716,0.28243 0.62072,0.0767 z m 8.90758,0.0468 c 0.22481,-0.13491 0.19934,-0.56667 -0.044,-0.74539 -0.17995,-0.13219 -0.20856,-0.13219 -0.38851,0 -0.33966,0.24951 -0.21584,0.82267 0.17994,0.83292 0.0562,0.001 0.16987,-0.0379 0.25253,-0.0875 z m -8.33655,-2.1361 c 0.30783,-0.2417 0.1515,-0.82261 -0.22137,-0.82261 -0.15947,0 -0.46066,0.28738 -0.46066,0.43952 0,0.10768 0.35298,0.51871 0.44539,0.51871 0.0352,0 0.14165,-0.0611 0.23664,-0.13566 z m 7.69253,0 c 0.29109,-0.22857 0.1556,-0.82261 -0.18762,-0.82261 -0.41131,0 -0.57762,0.56066 -0.24401,0.82261 0.095,0.0746 0.1921,0.13566 0.21582,0.13566 0.0237,0 0.12083,-0.0611 0.21581,-0.13566 z m -5.39279,0.41829 c -0.26962,-0.0499 -0.52638,-0.4239 -0.52638,-0.76655 0,-0.65755 0.73415,-1.00762 1.16391,-0.55498 0.10346,0.10904 0.18811,0.25008 0.18811,0.31359 0,0.0832 0.13114,0.11551 0.46788,0.11551 0.41794,0 0.47692,-0.0223 0.5525,-0.20821 0.18145,-0.44647 0.79755,-0.5632 1.12917,-0.21394 0.26928,0.2836 0.23369,0.89492 -0.0667,1.14544 -0.32775,0.27333 -0.67759,0.21856 -0.96441,-0.151 -0.2234,-0.28786 -0.27393,-0.31096 -0.67989,-0.31096 -0.31557,0 -0.43856,0.0329 -0.43856,0.11716 0,0.259 -0.50502,0.57337 -0.82564,0.51395 z m 0.43713,-0.4569 c 0.0855,-0.0958 0.15541,-0.23302 0.15541,-0.30488 0,-0.15956 -0.27352,-0.47912 -0.41007,-0.47912 -0.19176,0 -0.44466,0.2725 -0.44466,0.47912 0,0.20661 0.2529,0.47911 0.44466,0.47911 0.0546,0 0.16919,-0.0784 0.25467,-0.17423 z m 2.33107,0 c 0.0855,-0.0958 0.15542,-0.23302 0.15542,-0.30488 0,-0.15956 -0.27352,-0.47912 -0.41008,-0.47912 -0.19176,0 -0.44465,0.2725 -0.44465,0.47912 0,0.20661 0.25289,0.47911 0.44465,0.47911 0.0546,0 0.1692,-0.0784 0.25467,-0.17423 z"
       id="path314-3"
       inkscape:transform-center-x="-0.036714738"
       inkscape:transform-center-y="0.75519258" /><path
       style="fill:#000000;stroke-width:0.264583"
       d="m 81.791662,160.49376 c -0.230221,-0.23022 -0.326336,-1.51588 -0.326336,-4.36515 0,-3.72227 0.04011,-4.06029 0.511773,-4.31271 0.281475,-0.15064 0.757725,-0.27389 1.058333,-0.27389 0.300608,0 0.546561,-0.11907 0.546561,-0.26459 0,-0.14552 0.357187,-0.26458 0.79375,-0.26458 0.436562,0 0.79375,0.11906 0.79375,0.26458 0,0.14552 0.342609,0.26459 0.761353,0.26459 1.280889,0 1.375537,0.36004 1.296043,4.93018 l -0.07302,4.19794 -2.517935,0.075 c -1.732407,0.0516 -2.619742,-0.0268 -2.844271,-0.25135 z m 3.642414,-1.54342 c 0,-0.14552 -0.416718,-0.26458 -0.926041,-0.26458 -0.509323,0 -0.926042,0.11906 -0.926042,0.26458 0,0.14552 0.416719,0.26458 0.926042,0.26458 0.509323,0 0.926041,-0.11906 0.926041,-0.26458 z m 1.004277,-4.56406 0.07823,-1.78594 h -1.996464 -1.996463 v 1.86367 1.86368 l 1.918229,-0.0777 1.918229,-0.0777 z m -2.649698,0.10218 c -0.4303,-0.43682 -0.42393,-0.48812 0.118276,-0.95237 0.379525,-0.32496 0.607593,-0.38712 0.675283,-0.18405 0.05622,0.16865 0.270881,0.30663 0.477036,0.30663 0.206154,0 0.374826,0.1786 0.374826,0.39688 0,0.21828 -0.178593,0.39687 -0.396875,0.39687 -0.218281,0 -0.396875,0.11906 -0.396875,0.26459 0,0.38688 -0.33361,0.29735 -0.851671,-0.22855 z m 38.687085,4.99105 c 0,-1.29352 -0.0177,-1.32292 -0.79375,-1.32292 -0.61736,0 -0.79375,-0.11759 -0.79375,-0.52917 0,-0.29398 0.17639,-0.52916 0.39688,-0.52916 0.31619,0 0.39708,-0.38997 0.39786,-1.91823 0.001,-2.17422 0.57572,-3.46801 1.73615,-3.9092 1.2214,-0.46438 1.98035,-0.29759 2.91953,0.64159 0.87498,0.87498 0.89958,0.95821 0.89958,3.04271 0,1.72861 0.0768,2.14313 0.39688,2.14313 0.22049,0 0.39687,0.23518 0.39687,0.52916 0,0.41158 -0.17638,0.52917 -0.79375,0.52917 -0.77611,0 -0.79375,0.0294 -0.79375,1.32292 0,0.7276 -0.11906,1.32291 -0.26458,1.32291 -0.14552,0 -0.26458,-0.59531 -0.26458,-1.32291 v -1.32292 h -1.32292 -1.32292 v 1.32292 c 0,0.99953 -0.097,1.32291 -0.39687,1.32291 -0.29986,0 -0.39688,-0.32338 -0.39688,-1.32291 z m 0.79375,-4.11844 c 0,-1.75857 0.2729,-2.61185 1.03541,-3.23745 0.36287,-0.29772 0.3301,-0.32151 -0.24166,-0.17545 -1.18798,0.3035 -1.5875,1.06317 -1.5875,3.01863 0,0.97827 0.0794,1.85805 0.17639,1.95507 0.45401,0.45401 0.61736,0.041 0.61736,-1.5608 z m -30.368401,0.48036 c 0.0612,-3.02469 0.140521,-3.63802 0.470488,-3.63802 0.329966,0 0.409285,0.61333 0.470487,3.63802 0.0712,3.51878 0.05578,3.63803 -0.470487,3.63803 -0.526266,0 -0.541687,-0.11925 -0.470488,-3.63803 z m 8.731251,0.0654 c 0.0444,-2.15629 0.1785,-3.57263 0.3382,-3.57263 0.15969,0 0.29376,1.41634 0.33819,3.57263 0.0636,3.08839 0.0178,3.57264 -0.33819,3.57264 -0.356,0 -0.40183,-0.48425 -0.3382,-3.57264 z m -7.337947,0.88151 c -0.25429,-0.66267 -0.02157,-4.59095 0.267809,-4.52053 0.355128,0.0864 0.493463,4.31048 0.152337,4.65161 -0.179986,0.17999 -0.317208,0.13718 -0.420146,-0.13108 z m 1.24973,-2.11205 c 0.09771,-3.1622 0.605579,-3.20206 0.605579,-0.0475 0,1.63608 -0.0977,2.32562 -0.340995,2.40672 -0.265559,0.0885 -0.324091,-0.43339 -0.264584,-2.3592 z m 1.114542,2.06781 c -0.07474,-0.19477 -0.100766,-1.29609 -0.05784,-2.4474 0.0615,-1.64961 0.162161,-2.09328 0.47492,-2.09328 0.307262,0 0.414853,0.41695 0.476492,1.84655 0.04379,1.01561 0.01176,2.11693 -0.07119,2.4474 -0.166697,0.66417 -0.611039,0.79748 -0.822383,0.24673 z m 1.339895,0.0442 c -0.25429,-0.66267 -0.02157,-4.59095 0.267808,-4.52053 0.355129,0.0864 0.493464,4.31048 0.152337,4.65161 -0.179986,0.17999 -0.317207,0.13718 -0.420145,-0.13108 z m 1.24973,-2.11205 c 0.09771,-3.1622 0.605579,-3.20206 0.605579,-0.0475 0,1.63608 -0.0977,2.32562 -0.340996,2.40672 -0.265558,0.0885 -0.32409,-0.43339 -0.264583,-2.3592 z m 1.11454,2.06781 c -0.27502,-0.71669 0.0128,-4.49576 0.35093,-4.60764 0.24919,-0.0825 0.33073,0.51572 0.33073,2.42617 0,1.56544 -0.10441,2.53559 -0.27288,2.53559 -0.15009,0 -0.33404,-0.15936 -0.40878,-0.35412 z M 81.72991,145.98572 c 0,-0.72761 -0.119063,-1.32292 -0.264584,-1.32292 -0.16282,0 -0.264583,-1.32292 -0.264583,-3.43958 v -3.43959 h 3.175 3.175 v 3.43959 c 0,2.11666 -0.101763,3.43958 -0.264583,3.43958 -0.145521,0 -0.264584,0.59531 -0.264584,1.32292 0,0.7276 -0.119062,1.32291 -0.264583,1.32291 -0.145521,0 -0.264583,-0.59531 -0.264583,-1.32291 0,-1.14653 -0.07056,-1.32292 -0.529167,-1.32292 -0.458611,0 -0.529167,0.17639 -0.529167,1.32292 0,0.7276 -0.119062,1.32291 -0.264583,1.32291 -0.145521,0 -0.264583,-0.60404 -0.264583,-1.34231 0,-1.13551 -0.07134,-1.32878 -0.463021,-1.2544 -0.348882,0.0663 -0.4829,0.39715 -0.543664,1.34232 -0.107317,1.66931 -0.580815,1.61344 -0.580815,-0.0685 0,-0.99954 -0.09701,-1.32292 -0.396875,-1.32292 -0.299861,0 -0.396875,0.32338 -0.396875,1.32292 0,0.99953 -0.09701,1.32291 -0.396875,1.32291 -0.299861,0 -0.396875,-0.32338 -0.396875,-1.32291 z m 3.96875,-4.09408 c 0.218281,-0.0543 0.450453,-0.10788 0.515937,-0.11901 0.06549,-0.0111 -0.02381,-0.16312 -0.198437,-0.33775 -0.174625,-0.17462 -0.3175,-0.48486 -0.3175,-0.68941 0,-0.20455 -0.275347,-0.69914 -0.611882,-1.09909 l -0.611882,-0.72718 -0.67303,0.68899 c -0.651052,0.66649 -1.289393,2.61044 -0.747151,2.27532 0.142177,-0.0879 0.467806,-0.0346 0.72362,0.11826 0.255814,0.15292 0.703241,0.21292 0.994283,0.13334 0.291042,-0.0796 0.70776,-0.18915 0.926042,-0.24347 z m 36.77708,4.73663 c 0,-0.37419 -0.17859,-0.85895 -0.39687,-1.07723 -0.29032,-0.29031 -0.39688,-0.99872 -0.39688,-2.63845 v -2.24158 l 1.39876,-1.38762 1.39875,-1.38762 0.83097,0.80383 c 0.45704,0.4421 1.07776,1.01218 1.37938,1.26684 0.48406,0.40871 0.54839,0.75886 0.54839,2.98487 0,1.99757 -0.0825,2.55351 -0.39687,2.67414 -0.22623,0.0868 -0.39688,0.48142 -0.39688,0.91774 0,1.08963 -0.72986,1.01011 -0.86693,-0.0944 l -0.10671,-0.8599 -0.0423,0.8599 c -0.0272,0.55146 -0.17869,0.85989 -0.42246,0.85989 -0.23056,0 -0.42209,-0.3383 -0.48682,-0.85989 l -0.10672,-0.8599 -0.0423,0.8599 c -0.0272,0.55146 -0.17868,0.85989 -0.42245,0.85989 -0.23057,0 -0.4221,-0.3383 -0.48682,-0.85989 l -0.10672,-0.8599 -0.0423,0.8599 c -0.0523,1.06245 -0.83609,1.23075 -0.83609,0.17953 z m 1.39523,-2.60287 c 0.44052,-0.33424 0.43244,-0.36777 -0.13229,-0.5488 -0.52687,-0.16889 -0.54169,-0.2086 -0.11943,-0.32012 0.46634,-0.12316 0.46634,-0.13921 0,-0.49271 -0.46152,-0.34984 -0.45952,-0.36609 0.0471,-0.38185 0.49083,-0.0153 0.49522,-0.0362 0.0606,-0.28926 -0.6711,-0.3907 -0.31021,-0.76944 0.73317,-0.76944 1.04338,0 1.40427,0.37874 0.73317,0.76944 -0.43464,0.25303 -0.43025,0.27399 0.0606,0.28926 0.52216,0.0162 0.52237,0.0216 0.0156,0.40492 -0.5084,0.38453 -0.5084,0.38854 0,0.39687 0.49468,0.008 0.49574,0.0219 0.0287,0.37588 -0.46709,0.35398 -0.4653,0.37793 0.0487,0.65304 0.96701,0.51753 1.09757,0.34555 1.09757,-1.4458 v -1.73138 l -1.91823,0.0777 -1.91822,0.0777 -0.0788,1.65365 c -0.0689,1.44693 -0.0193,1.65259 0.39687,1.64523 0.26161,-0.005 0.68678,-0.16861 0.94483,-0.3644 z m -15.25278,2.19183 c -0.30175,-1.50877 -0.21714,-1.81901 0.4961,-1.81901 0.54607,0 0.66082,0.12691 0.65784,0.7276 -0.009,1.86108 -0.8424,2.6491 -1.15394,1.09141 z m 2.01745,0.11055 c -0.55241,-1.18948 -0.43155,-1.92956 0.31511,-1.92956 0.894,0 1.06469,0.413 0.66777,1.61569 -0.40191,1.21779 -0.54227,1.26262 -0.98288,0.31387 z m 1.9527,0.12096 c -0.0877,-0.32743 -0.16116,-0.92274 -0.16315,-1.32292 -0.003,-0.60069 0.11177,-0.7276 0.65785,-0.7276 0.71323,0 0.79784,0.31024 0.49609,1.81901 -0.19232,0.96157 -0.75962,1.09413 -0.99079,0.23151 z m -19.160504,-2.22362 c 0.07039,-2.41161 0.120233,-2.62442 0.671345,-2.86621 0.327422,-0.14364 0.595312,-0.40966 0.595312,-0.59113 0,-0.18148 0.327422,-0.69638 0.727605,-1.14423 1.408756,-1.57653 4.021563,-1.25948 4.910112,0.59582 0.22958,0.47936 0.66235,1.02139 0.96172,1.20452 0.48774,0.29837 0.54431,0.59398 0.54431,2.84428 0,1.49781 -0.10677,2.5113 -0.26458,2.5113 -0.15679,0 -0.26458,-0.97014 -0.26458,-2.38125 0,-1.33297 -0.11101,-2.38125 -0.25217,-2.38125 -0.1387,0 -0.45241,0.42196 -0.69714,0.93769 -0.910141,1.91798 -3.504527,2.2658 -4.937672,0.66197 -0.400183,-0.44785 -0.727605,-1.0009 -0.727605,-1.22901 0,-0.22812 -0.148828,-0.36484 -0.330729,-0.30385 -0.225463,0.0756 -0.34198,0.81622 -0.366077,2.32689 -0.0225,1.41039 -0.146324,2.25297 -0.340616,2.31774 -0.220186,0.0734 -0.284077,-0.6243 -0.229235,-2.50328 z m 2.380183,-2.03324 c -0.131587,-1.12714 0.775134,-2.24638 2.065659,-2.54982 l 0.921857,-0.21676 -1.004214,-0.0271 c -1.378328,-0.0372 -2.303078,0.88555 -2.303078,2.29804 0,0.8349 0.153035,1.37904 0.387844,1.37904 0.01929,0 -0.01135,-0.39754 -0.06807,-0.88342 z m 12.176651,1.63235 c -0.44549,-0.4455 -0.4386,-4.72658 0.009,-5.33816 0.28787,-0.39368 0.73713,-0.44653 3.24115,-0.3813 l 2.90695,0.0757 v 2.91041 2.91042 l -2.91555,0.0742 c -2.04234,0.052 -3.01307,-0.0233 -3.24115,-0.25135 z m 5.75982,-3.79164 v -1.19062 h -2.64583 -2.64583 v 1.19062 1.19063 h 2.64583 2.64583 z m -3.3436,0.26536 c -0.0914,-0.23827 -0.044,-0.55545 0.10537,-0.70483 0.4313,-0.4313 1.25386,-0.14062 1.25386,0.4431 0,0.67301 -1.11874,0.88843 -1.35923,0.26173 z m -14.648063,-7.80598 c 0,-1.15334 -0.0689,-1.32292 -0.537471,-1.32292 -0.682892,0 -0.964896,-0.71023 -0.547429,-1.3787 0.235383,-0.37691 0.243468,-0.60891 0.03017,-0.86591 -0.173782,-0.20939 -0.259988,-1.18864 -0.213627,-2.42666 l 0.07773,-2.0756 h 3.042708 3.042712 l 0.0408,3.27253 c 0.0372,2.98316 -0.002,3.28388 -0.44964,3.4008 -0.370814,0.097 -0.509882,0.42316 -0.570005,1.33699 -0.114694,1.74326 -0.740983,1.81216 -0.740983,0.0815 v -1.34496 h -1.322917 -1.322917 v 1.32292 c 0,0.7276 -0.119062,1.32291 -0.264583,1.32291 -0.145521,0 -0.264583,-0.59531 -0.264583,-1.32291 z m 0.529166,-4.7625 c 0,-2.46945 -0.03528,-2.64584 -0.529166,-2.64584 -0.470503,0 -0.529167,0.17639 -0.529167,1.59109 0,0.8751 0.147703,1.8276 0.328228,2.11667 0.261473,0.41868 0.261017,0.6332 -0.0022,1.05474 -0.289282,0.46322 -0.264238,0.52917 0.200939,0.52917 0.496735,0 0.531415,-0.17267 0.531415,-2.64583 z m -15.08125,1.32291 v -4.49791 h 3.175 3.175 v 4.49791 4.49792 h -3.175 -3.175 z m 4.497917,2.77813 c -0.185773,-0.22384 -0.762549,-0.39688 -1.322917,-0.39688 -0.560368,0 -1.137144,0.17304 -1.322917,0.39688 -0.286799,0.34557 -0.115789,0.39687 1.322917,0.39687 1.438706,0 1.609716,-0.0513 1.322917,-0.39687 z m -2.38125,-1.35462 c 0,-0.34035 -0.234468,-0.73662 -0.529167,-0.89434 -0.497573,-0.26629 -0.529167,-0.20121 -0.529167,1.09003 0,1.35647 0.0065,1.36739 0.529167,0.89434 0.291042,-0.26338 0.529167,-0.7539 0.529167,-1.09003 z m 3.175,0.1723 c 0,-1.05985 -0.07691,-1.2851 -0.396875,-1.16232 -0.480194,0.18427 -0.536011,1.70279 -0.07937,2.15943 0.464146,0.46415 0.47625,0.4388 0.47625,-0.99711 z m -0.41401,-1.56808 c 0.195112,-0.3157 -0.485024,-0.55689 -1.570365,-0.55689 -0.48552,0 -1.070411,0.072 -1.299758,0.16001 -0.793557,0.30452 -0.118348,0.63374 1.299758,0.63374 0.783188,0 1.489852,-0.10659 1.570365,-0.23686 z m -3.179505,-0.71749 c 0.4793,-0.18393 0.545038,-0.9607 0.144622,-1.70888 -0.45879,-0.85726 -0.784441,-0.57544 -0.784441,0.67885 0,1.27143 0.0021,1.27476 0.639819,1.03003 z m 3.593515,-1.06243 c 0,-1.05713 -0.05383,-1.17834 -0.396875,-0.89364 -0.40073,0.33258 -0.546389,1.61438 -0.220486,1.94028 0.422968,0.42297 0.617361,0.0934 0.617361,-1.04664 z m -0.529167,-1.29052 c 0.287243,-0.3461 0.101091,-0.39687 -1.455208,-0.39687 -1.556299,0 -1.742452,0.0508 -1.455209,0.39687 0.198346,0.239 0.777248,0.39688 1.455209,0.39688 0.67796,0 1.256862,-0.15788 1.455208,-0.39688 z m 36.102747,6.41184 c -0.0751,-0.19568 -0.10291,-1.83745 -0.0618,-3.64839 l 0.0747,-3.29261 2.45493,-0.0762 2.45492,-0.0762 -0.0737,3.64805 -0.0737,3.64805 -2.31943,0.0765 c -1.75342,0.0578 -2.35274,-0.0103 -2.45595,-0.27926 z m 1.2035,-3.23684 v -2.77812 h 1.45521 c 0.80037,0 1.45521,-0.11906 1.45521,-0.26458 0,-0.14926 -0.74965,-0.26459 -1.71979,-0.26459 h -1.71979 v 3.04271 c 0,1.85208 0.10353,3.04271 0.26458,3.04271 0.15959,0 0.26458,-1.10243 0.26458,-2.77813 z m -3.10885,2.6829 c -0.32742,-0.16216 -0.59531,-0.37178 -0.59531,-0.46582 0,-0.19736 0.9748,-0.48837 1.65364,-0.49367 0.31847,-0.002 0.46302,0.2029 0.46302,0.65784 0,0.72585 -0.47477,0.81998 -1.52135,0.30165 z m 7.0776,-0.30165 c 0,-0.70281 0.20066,-0.76684 1.55443,-0.49609 0.90799,0.1816 1.13073,0.62839 0.31327,0.62839 -0.28245,0 -0.58713,0.11906 -0.67707,0.26458 -0.0899,0.14552 -0.39462,0.26458 -0.67707,0.26458 -0.3714,0 -0.51356,-0.18309 -0.51356,-0.66146 z m -20.75089,-0.0189 c -0.51851,-0.51852 -0.60449,-4.72803 -0.10291,-5.03803 0.17208,-0.10635 2.32696,-0.20267 4.78862,-0.21405 5.21589,-0.0241 4.95268,-0.17576 4.95268,2.85343 0,1.44983 -0.11176,2.09464 -0.41577,2.39865 -0.45903,0.45902 -1.70089,0.56941 -1.70089,0.15119 0,-0.16027 -1.14132,-0.26459 -2.8948,-0.26459 -1.64447,0 -2.96543,0.11428 -3.05833,0.26459 -0.24697,0.39961 -1.10002,0.31739 -1.5686,-0.15119 z m 7.52173,-1.56861 v -0.66145 h -2.91042 -2.91042 v 0.66145 0.66146 h 2.91042 2.91042 z m 0,-1.98437 v -0.79375 h -2.91042 -2.91042 v 0.79375 0.79375 h 2.91042 2.91042 z m 6.01927,2.19887 c -0.6528,-0.1706 -0.57288,-0.42614 0.25325,-0.80981 1.05436,-0.48966 1.40039,-0.40794 1.40039,0.33073 0,0.67282 -0.43264,0.79816 -1.65364,0.47908 z m 7.20989,-0.47908 c 0,-0.47836 0.14216,-0.66146 0.51356,-0.66146 0.28245,0 0.58713,0.11907 0.67707,0.26459 0.0899,0.14552 0.39462,0.26458 0.67707,0.26458 0.81746,0 0.59472,0.44679 -0.31327,0.62838 -1.35377,0.27076 -1.55443,0.20672 -1.55443,-0.49609 z m -7.0776,-1.11277 c -0.8719,-0.16793 -0.72611,-0.7793 0.23151,-0.97082 1.22923,-0.24585 1.28984,-0.22253 1.28984,0.49609 0,0.677 -0.17985,0.73312 -1.52135,0.47473 z m 7.0776,-0.47553 c 0,-0.69261 0.0495,-0.72186 0.96936,-0.57259 0.93962,0.15248 1.63855,0.56722 1.38432,0.82145 -0.0685,0.0685 -0.62613,0.20479 -1.23913,0.30281 -1.0834,0.17324 -1.11455,0.15782 -1.11455,-0.55167 z m -7.0776,-1.11197 c -0.8719,-0.16793 -0.72611,-0.7793 0.23151,-0.97082 1.22923,-0.24585 1.28984,-0.22253 1.28984,0.49609 0,0.677 -0.17985,0.73312 -1.52135,0.47473 z m 7.0776,-0.47393 c 0,-0.70949 0.0311,-0.72491 1.11455,-0.55167 0.613,0.098 1.17061,0.23429 1.23913,0.30281 0.25423,0.25423 -0.4447,0.66897 -1.38432,0.82145 -0.91984,0.14927 -0.96936,0.12002 -0.96936,-0.57259 z m -44.812401,-6.02006 c -0.275727,-1.02887 -0.18602,-1.25677 0.494696,-1.25677 0.363802,0 0.659832,0.14883 0.657845,0.33073 -0.0081,0.74551 -0.343624,1.52135 -0.657845,1.52135 -0.184337,0 -0.40695,-0.26789 -0.494696,-0.59531 z m 1.5875,0 c -0.274193,-1.02315 -0.186839,-1.25677 0.46993,-1.25677 0.605396,0 0.622723,0.0455 0.352483,0.92604 -0.328148,1.06921 -0.595677,1.17679 -0.822413,0.33073 z m 1.587501,0 c -0.26637,-0.99395 -0.190583,-1.25677 0.362403,-1.25677 0.291042,0 0.527541,0.14883 0.525554,0.33073 -0.0067,0.61171 -0.320918,1.52135 -0.525554,1.52135 -0.111576,0 -0.274658,-0.26789 -0.362403,-0.59531 z m 23.64574,-0.99219 c 0,-1.01158 -0.0953,-1.32291 -0.40518,-1.32291 -0.22285,0 -0.47371,-0.1786 -0.55747,-0.39688 -0.0838,-0.21828 -0.31816,-0.39687 -0.52087,-0.39687 -0.20271,0 -0.36857,-0.1786 -0.36857,-0.39688 0,-0.21828 0.1786,-0.39687 0.39688,-0.39687 0.3209,0 0.39687,-0.4204 0.39687,-2.19604 0,-1.35526 0.12156,-2.31761 0.3175,-2.51355 0.42881,-0.4288 4.75703,-0.4288 5.18584,0 0.19594,0.19594 0.3175,1.15829 0.3175,2.51355 0,1.77564 0.076,2.19604 0.39687,2.19604 0.21828,0 0.39688,0.17859 0.39688,0.39687 0,0.21828 -0.16586,0.39688 -0.36857,0.39688 -0.20271,0 -0.4371,0.17859 -0.52086,0.39687 -0.0838,0.21828 -0.33463,0.39688 -0.55748,0.39688 -0.30982,0 -0.40518,0.31133 -0.40518,1.32291 0,0.72761 -0.11906,1.32292 -0.26458,1.32292 -0.14552,0 -0.26458,-0.59531 -0.26458,-1.32292 0,-1.14652 -0.0706,-1.32291 -0.52917,-1.32291 -0.45861,0 -0.52917,0.17639 -0.52917,1.32291 0,0.72761 -0.11906,1.32292 -0.26458,1.32292 -0.14552,0 -0.26458,-0.59531 -0.26458,-1.32292 0,-1.14652 -0.0706,-1.32291 -0.52917,-1.32291 -0.45861,0 -0.52917,0.17639 -0.52917,1.32291 0,0.72761 -0.11906,1.32292 -0.26458,1.32292 -0.14552,0 -0.26458,-0.59531 -0.26458,-1.32292 z m 0.79375,-5.02708 c 0,-1.94028 -0.0441,-2.11667 -0.52917,-2.11667 -0.48507,0 -0.52917,0.17639 -0.52917,2.11667 0,1.94028 0.0441,2.11667 0.52917,2.11667 0.48507,0 0.52917,-0.17639 0.52917,-2.11667 z m -27.327615,4.28295 -1.001569,-0.0827 0.07553,-2.56316 0.07553,-2.56315 2.579688,-0.0757 2.579687,-0.0757 v 2.65541 2.65541 l -0.727604,0.0191 c -0.400182,0.0105 -1.144323,0.0403 -1.653646,0.0662 -0.509323,0.0258 -1.376747,0.01 -1.927611,-0.0357 z m 3.250528,-2.70865 v -1.60071 l -1.521354,0.0794 -1.521354,0.0793 -0.07935,1.52136 -0.07935,1.52135 h 1.600704 1.600704 z m 6.614584,1.35776 c 0,-1.89512 0.17,-2.40289 0.804483,-2.40289 0.330535,0 0.509746,-0.22997 0.567005,-0.72761 0.06976,-0.60628 0.227102,-0.74143 0.943616,-0.81051 0.483012,-0.0466 0.859896,0.0404 0.859896,0.19844 0,0.17194 0.720181,0.28134 1.852083,0.28134 1.131902,0 1.852083,-0.1094 1.852083,-0.28134 0,-0.15804 0.376885,-0.24501 0.859897,-0.19844 0.71651,0.0691 0.87386,0.20423 0.94362,0.81051 0.0585,0.50884 0.23474,0.72761 0.586,0.72761 0.27626,0 0.63163,0.24169 0.78973,0.53709 0.37856,0.70735 0.22699,3.22517 -0.20268,3.36676 -0.24213,0.0798 -0.33073,-0.35763 -0.33073,-1.63285 0,-1.33604 -0.0884,-1.74184 -0.3793,-1.74184 -0.2171,0 -0.41511,0.31115 -0.46302,0.72761 -0.0613,0.533 -0.2511,0.75128 -0.70955,0.81615 -0.34421,0.0487 -0.754974,-0.0406 -0.912816,-0.19844 -0.362428,-0.36243 -3.885317,-0.38274 -3.885317,-0.0224 0,0.14552 -0.360164,0.26458 -0.800365,0.26458 -0.679913,0 -0.824567,-0.12101 -0.961182,-0.80408 -0.264246,-1.32123 -0.746291,-0.72734 -0.830766,1.02352 -0.100652,2.08617 -0.582687,2.14142 -0.582687,0.0668 z m 6.019271,-2.86022 c -0.545704,-0.0571 -1.438672,-0.0571 -1.984375,0 -0.545704,0.0571 -0.09922,0.10379 0.992187,0.10379 1.091406,0 1.537891,-0.0467 0.992188,-0.10379 z m 21.298962,3.44522 c -0.50664,-1.09091 -0.41244,-1.40039 0.42626,-1.40039 0.75385,0 0.75582,0.004 0.47451,1.05833 -0.15537,0.58208 -0.34719,1.0574 -0.42627,1.05627 -0.0791,-0.001 -0.2926,-0.32253 -0.4745,-0.71421 z m 1.68672,-0.11055 c -0.24674,-1.23368 -0.2237,-1.28984 0.52916,-1.28984 0.63677,0 0.68078,0.0688 0.52917,0.82682 -0.0909,0.45475 -0.16537,0.931 -0.16537,1.05833 0,0.6248 -0.74878,0.12561 -0.89296,-0.59531 z m 1.5875,0 c -0.24674,-1.23368 -0.2237,-1.28984 0.52916,-1.28984 0.63677,0 0.68078,0.0688 0.52917,0.82682 -0.091,0.45475 -0.16537,0.931 -0.16537,1.05833 0,0.6248 -0.74878,0.12561 -0.89296,-0.59531 z m 1.5875,0 c -0.24674,-1.23368 -0.2237,-1.28984 0.52916,-1.28984 0.63677,0 0.68078,0.0688 0.52917,0.82682 -0.0909,0.45475 -0.16537,0.931 -0.16537,1.05833 0,0.6248 -0.74878,0.12561 -0.89296,-0.59531 z m 1.9513,0.31327 c 0,-0.28245 -0.11906,-0.58713 -0.26459,-0.67707 -0.58023,-0.35861 -0.25598,-0.92604 0.52917,-0.92604 0.8993,0 0.91186,0.0327 0.47602,1.23798 -0.35115,0.97109 -0.7406,1.16309 -0.7406,0.36513 z m 1.48828,-0.31327 c -0.24674,-1.23368 -0.2237,-1.28984 0.52917,-1.28984 0.63676,0 0.68077,0.0688 0.52916,0.82682 -0.0909,0.45475 -0.16536,0.931 -0.16536,1.05833 0,0.6248 -0.74879,0.12561 -0.89297,-0.59531 z m -48.253388,0.11093 c -0.327422,-0.0631 -0.595313,-0.21156 -0.595313,-0.32998 0,-0.23451 0.915144,-0.53225 1.653646,-0.53801 0.287837,-0.002 0.463021,0.19659 0.463021,0.52555 0,0.53274 -0.245929,0.5881 -1.521354,0.34244 z m 7.606771,-0.34244 c 0,-0.52772 0.09544,-0.57622 0.840603,-0.42719 0.462332,0.0925 0.898895,0.22641 0.970139,0.29765 0.211752,0.21176 -0.07872,0.37845 -0.970139,0.55673 -0.745161,0.14903 -0.840603,0.10053 -0.840603,-0.42719 z m -7.739063,-1.24072 c -0.72067,-0.18833 -0.5465,-0.52852 0.363802,-0.71058 1.206896,-0.24138 1.289844,-0.21799 1.289844,0.3638 0,0.53104 -0.526263,0.6414 -1.653646,0.34678 z m 7.739063,-0.34678 c 0,-0.52772 0.09544,-0.57622 0.840603,-0.42719 0.462332,0.0925 0.898895,0.22641 0.970139,0.29765 0.211752,0.21176 -0.07872,0.37845 -0.970139,0.55673 -0.745161,0.14903 -0.840603,0.10053 -0.840603,-0.42719 z m 31.926387,-0.17639 c -0.33011,-0.33012 -0.17784,-1.63644 0.23939,-2.05367 0.34408,-0.34408 1.16199,-0.41577 4.7436,-0.41577 4.84403,0 5.15938,0.10627 5.15938,1.73869 v 0.90714 h -4.98299 c -2.74064,0 -5.06236,-0.0794 -5.15938,-0.17639 z m -39.533158,-0.80408 c -0.871905,-0.16794 -0.726114,-0.77931 0.23151,-0.97083 1.229229,-0.24585 1.289844,-0.22253 1.289844,0.49609 0,0.677 -0.179855,0.73312 -1.521354,0.47474 z m 7.606771,-0.5056 c 0,-0.58884 0.08898,-0.66847 0.595313,-0.53278 0.327421,0.0877 0.74414,0.16117 0.926041,0.16315 0.572202,0.006 0.358847,0.72811 -0.264583,0.89519 -1.035569,0.27752 -1.256771,0.18502 -1.256771,-0.52556 z m -5.192448,-2.25117 c 0.09095,-0.45475 0.165365,-0.931 0.165365,-1.05833 0,-0.62479 0.748785,-0.1256 0.892968,0.59531 0.246737,1.23368 0.223697,1.28984 -0.529166,1.28984 -0.636764,0 -0.680778,-0.0688 -0.529167,-0.82682 z m 1.614724,-0.16536 c 0.293378,-1.5706 0.587125,-1.55901 0.845532,0.0334 0.140081,0.86321 0.09644,0.95882 -0.437635,0.95882 -0.542071,0 -0.577248,-0.0856 -0.407897,-0.99219 z m 1.547416,0.0334 c 0.258407,-1.59237 0.552154,-1.60396 0.845532,-0.0334 0.169351,0.90662 0.134174,0.99218 -0.407897,0.99218 -0.534077,0 -0.577716,-0.0956 -0.437635,-0.95882 z"
       id="path934"
       sodipodi:nodetypes="ssssssssscsssssssscccccccccsssssssssssscccssssssscccssssscsssssssssssssscsssscsssssscssscsssscssscsssssscccssssssssscsssssssccssscsccccssscccccscssccssccssccssccscccscccccsscccscccsscsssssscsssscscscssssssssssscscssscccsccccccccccccccccscsscsssscccscsscccsscccssscscccccccccccsssssssscssssssssssssssssssscscscccccccccccscssscssssscssscscsscscscsscccccccccccccccccccccsscsscscsccscssccsccscscccssscsssssssscsssssssssssssssssssssssssssssssssccccccccscsccccccccccssscssscssccssssssssssscsscssccssscsssscsssscssscscssscsscscscsccsssssssccsscssscscssssscccssssssssssscsscc" /></g></svg>
