<?xml version="1.0" encoding="UTF-8" standalone="no"?>
<!-- Created with Inkscape (http://www.inkscape.org/) -->

<svg
   width="47.18832mm"
   height="43.127102mm"
   viewBox="0 0 47.18832 43.127102"
   version="1.1"
   id="svg5"
   xml:space="preserve"
   inkscape:version="1.2.2 (732a01da63, 2022-12-09, custom)"
   sodipodi:docname="simaran_logo.svg"
   xmlns:inkscape="http://www.inkscape.org/namespaces/inkscape"
   xmlns:sodipodi="http://sodipodi.sourceforge.net/DTD/sodipodi-0.dtd"
   xmlns="http://www.w3.org/2000/svg"
   xmlns:svg="http://www.w3.org/2000/svg"><sodipodi:namedview
     id="namedview7"
     pagecolor="#505050"
     bordercolor="#eeeeee"
     borderopacity="1"
     inkscape:showpageshadow="0"
     inkscape:pageopacity="0"
     inkscape:pagecheckerboard="0"
     inkscape:deskcolor="#505050"
     inkscape:document-units="mm"
     showgrid="false"
     inkscape:zoom="1.5019781"
     inkscape:cx="104.86171"
     inkscape:cy="89.548575"
     inkscape:window-width="1920"
     inkscape:window-height="957"
     inkscape:window-x="0"
     inkscape:window-y="0"
     inkscape:window-maximized="1"
     inkscape:current-layer="layer1" /><defs
     id="defs2" /><g
     inkscape:label="Layer 1"
     inkscape:groupmode="layer"
     id="layer1"
     transform="translate(-92.684079,-107.68895)"><path
       style="fill:#000000;stroke-width:0.264583"
       d="m 121.64432,150.54026 c -0.0937,-0.15169 0.0418,-0.86606 0.30123,-1.5875 l 0.47169,-1.31171 h 3.55422 3.55423 l -0.14369,0.85989 c -0.079,0.47295 -0.27025,1.18732 -0.42494,1.5875 l -0.28126,0.72761 h -3.43052 c -2.09455,0 -3.49689,-0.1074 -3.60096,-0.27579 z m -16.26495,-0.21501 c 0,-0.12997 0.32742,-0.81683 0.7276,-1.52637 0.40019,-0.70954 1.20975,-2.71884 1.79903,-4.4651 l 1.07142,-3.17502 1.50827,-0.0793 c 1.18755,-0.0625 1.50826,0.003 1.50826,0.31016 0,0.21423 -0.48964,1.73822 -1.08809,3.38664 -1.10288,3.03785 -2.00116,4.38119 -3.40982,5.09924 -0.93849,0.47838 -2.11667,0.72875 -2.11667,0.4498 z m -12.695281,-3.00883 c 0.003,-0.18526 0.46316,-1.64652 1.02347,-3.24725 l 1.01874,-2.91041 1.62237,-0.0788 c 1.83624,-0.0891 1.87244,-0.0351 1.21805,1.81967 -0.48495,1.37447 -0.3802,1.76873 0.44589,1.67833 0.34093,-0.0373 0.87807,-0.0778 1.19363,-0.0899 0.46495,-0.0179 0.68225,-0.34813 1.146051,-1.74184 l 0.57231,-1.7198 h 1.56592 c 1.90114,0 1.88744,-0.0912 0.55608,3.70417 l -0.97452,2.77813 -4.696361,0.0722 c -3.66583,0.0564 -4.69531,-0.002 -4.69163,-0.26459 z m 18.626461,-0.56318 c -0.0757,-0.19725 0.58971,-2.5785 1.47868,-5.29167 l 1.61629,-4.93302 h 1.70463 c 0.93755,0 1.70464,0.10102 1.70464,0.22449 0,0.12346 -0.42823,1.38196 -0.95163,2.79664 -0.52339,1.41468 -0.89897,2.6248 -0.83463,2.68914 0.0643,0.0643 0.6414,-0.10884 1.28235,-0.38483 1.12843,-0.48591 6.07332,-0.99075 6.40968,-0.65438 0.22296,0.22295 -1.40996,4.65325 -1.90481,5.16799 -0.83895,0.87266 -1.73559,0.85868 -2.76265,-0.0431 -1.71843,-1.5088 -3.27039,-1.47788 -4.61,0.0918 -0.47927,0.5616 -0.82476,0.69552 -1.79424,0.69552 -0.76631,0 -1.25047,-0.12975 -1.33831,-0.35864 z m 8.31544,-2.40573 c 0.0585,-0.30163 -0.0369,-0.42885 -0.26458,-0.35303 -0.1958,0.0652 -0.39714,0.33075 -0.44741,0.59011 -0.0585,0.30163 0.0369,0.42885 0.26458,0.35302 0.1958,-0.0652 0.39713,-0.33074 0.44741,-0.5901 z m -16.61812,2.43364 c 0.005,-0.0364 0.76313,-2.2688 1.68392,-4.96094 l 1.67416,-4.89479 1.62337,-0.0788 c 0.89286,-0.0433 1.62412,0.0162 1.62503,0.13229 7.9e-4,0.11609 -0.72823,2.38396 -1.62029,5.03971 l -1.62194,4.82865 h -1.687 c -0.92785,0 -1.68261,-0.0298 -1.67725,-0.0661 z m 20.23897,-0.29209 c -0.47054,-0.34407 -0.45396,-0.45661 0.41887,-2.84427 l 0.9088,-2.48603 1.64722,-0.0788 c 0.90597,-0.0433 1.64722,-0.004 1.64722,0.0873 0,0.51679 -1.68311,4.81793 -2.0394,5.21163 -0.50312,0.55594 -1.89203,0.61516 -2.58271,0.11012 z m 4.04503,-0.10478 c -0.35411,-0.41562 -0.30124,-0.71357 0.5165,-2.91042 l 0.911,-2.4474 h 1.54355 c 0.84896,0 1.61208,0.11089 1.69584,0.24642 0.0838,0.13552 -0.0188,0.64154 -0.22793,1.12448 -0.20912,0.48293 -0.6433,1.56678 -0.96485,2.40853 -0.32155,0.84176 -0.79944,1.64544 -1.06198,1.78594 -0.75456,0.40383 -1.98113,0.29829 -2.41213,-0.20755 z m 3.90087,0.11092 c -0.4591,-0.3357 -0.43881,-0.46811 0.43591,-2.84427 l 0.91743,-2.49217 1.63018,-0.0788 c 0.98213,-0.0474 1.63019,0.0284 1.63019,0.19082 0,0.5856 -1.6073,4.63067 -2.02212,5.08904 -0.5175,0.57183 -1.89621,0.64384 -2.59159,0.13536 z m 4.06263,-0.0712 c -0.29589,-0.35653 -0.25327,-0.70075 0.27026,-2.18281 1.1204,-3.17175 1.15728,-3.21475 2.75706,-3.21475 0.77237,0 1.47516,0.0709 1.56175,0.15743 0.26541,0.26542 -1.43231,4.70751 -1.98752,5.20039 -0.65228,0.57903 -2.13518,0.60168 -2.60155,0.0397 z m -37.019751,-6.52577 c 0,-0.0384 0.23812,-0.72136 0.52917,-1.51762 0.29104,-0.79625 0.52916,-1.47918 0.52916,-1.51762 0,-0.0384 0.773911,-0.0699 1.719791,-0.0699 0.94589,0 1.7198,0.0551 1.7198,0.12237 0,0.0673 -0.24668,0.78168 -0.54818,1.5875 l -0.54818,1.46513 h -1.700781 c -0.93543,0 -1.70078,-0.0314 -1.70078,-0.0699 z m 22.276031,-6.95611 c -1.93647,-0.46945 -3.58352,-0.91622 -3.66012,-0.99282 -0.13931,-0.13931 4.30445,-5.53611 4.68299,-5.68734 0.11029,-0.0441 0.27799,0.0452 0.37268,0.19843 0.25132,0.40665 1.34774,0.34037 1.71633,-0.10376 0.70937,-0.85474 0.18049,-1.55759 -3.0225,-4.01671 -1.74178,-1.33727 -3.20848,-2.55622 -3.25933,-2.70878 -0.0988,-0.29651 2.25529,-3.34068 2.7573,-3.56551 0.16491,-0.0739 1.296,0.65217 2.51354,1.61338 6.71621,5.30229 6.68143,5.2574 6.53029,8.42624 -0.0782,1.64037 -0.21197,2.06407 -1.04977,3.32589 -0.71317,1.07411 -1.3387,1.64425 -2.43203,2.21668 -1.14285,0.59836 -1.48942,0.92459 -1.55023,1.45924 l -0.0783,0.68861 z m -10.94934,0.29199 c -2.16422,-0.55795 -3.65301,-1.88586 -4.76066,-4.24621 -0.26885,-0.57291 -0.53475,-0.77621 -0.95572,-0.73072 -0.45039,0.0487 -0.57932,-0.0719 -0.56605,-0.52917 0.0337,-1.16355 1.70474,-6.67761 2.02359,-6.67761 0.45175,0 5.36757,4.38152 5.36757,4.78417 0,0.18211 -0.14883,0.38078 -0.33073,0.44149 -0.57459,0.19176 0.10785,1.63905 0.82089,1.74092 0.77248,0.11036 1.17776,-0.26101 3.9213,-3.59314 1.22811,-1.49159 2.35468,-2.71198 2.50349,-2.71198 0.40486,0 3.4038,2.6766 3.4038,3.03794 0,0.17201 -1.47871,2.04676 -3.28601,4.16611 -3.39024,3.9756 -3.69748,4.20771 -5.97441,4.5137 -0.50932,0.0684 -1.4845,-0.0195 -2.16706,-0.1955 z m -1.23806,-10.94682 c -2.0911,-1.71486 -3.97247,-3.4433 -4.18083,-3.84096 -1.5389,-2.9371 0.0756,-7.11241 3.40197,-8.79802 1.00651,-0.51004 1.27356,-0.78313 1.27356,-1.30236 0,-0.36135 0.0627,-0.657 0.13924,-0.657 0.41076,0 6.69884,1.66317 7.00616,1.8531 0.27621,0.17071 -0.0757,0.71056 -1.473,2.25938 -1.00977,1.11929 -2.08932,2.34447 -2.39901,2.72262 -0.48384,0.59081 -0.65137,0.64732 -1.19062,0.40163 -0.97988,-0.44644 -1.81818,-0.008 -1.81818,0.95014 0,0.69862 0.38701,1.10625 3.175,3.34418 1.74625,1.40172 3.175,2.69065 3.175,2.86428 0,0.43296 -2.61359,3.33305 -2.99773,3.32635 -0.17026,-0.003 -2.02047,-1.40847 -4.11156,-3.12334 z m 17.80018,-3.01929 c -0.71401,-0.62918 -1.92613,-1.65987 -2.69361,-2.29043 -1.30427,-1.07158 -1.38442,-1.20521 -1.22679,-2.04545 0.1995,-1.06341 -0.20891,-1.68692 -1.10497,-1.68692 -0.47979,0 -1.19957,0.74657 -3.18855,3.30729 -1.41287,1.81901 -2.64136,3.30729 -2.72997,3.30729 -0.0886,0 -0.96119,-0.66409 -1.93905,-1.47576 -1.55705,-1.29241 -1.73676,-1.53263 -1.44659,-1.93363 0.18224,-0.25183 1.60362,-2.06652 3.15862,-4.03264 3.19744,-4.04281 3.94193,-4.56201 6.50796,-4.53864 2.62145,0.0239 5.01075,1.56146 6.13152,3.9458 0.44871,0.95458 0.67746,1.18161 1.08356,1.07542 0.28313,-0.074 0.57418,-0.0385 0.64678,0.079 0.16027,0.25932 -1.40413,6.92657 -1.69473,7.22272 -0.1133,0.11547 -0.79018,-0.30483 -1.50418,-0.93401 z"
       id="path330" /></g></svg>
