<?xml version="1.0" encoding="UTF-8" standalone="no"?>
<!-- Created with Inkscape (http://www.inkscape.org/) -->

<svg
   width="61.335983mm"
   height="35.253094mm"
   viewBox="0 0 61.335983 35.253094"
   version="1.1"
   id="svg5"
   xml:space="preserve"
   inkscape:version="1.2.2 (732a01da63, 2022-12-09, custom)"
   sodipodi:docname="soldering system.svg"
   xmlns:inkscape="http://www.inkscape.org/namespaces/inkscape"
   xmlns:sodipodi="http://sodipodi.sourceforge.net/DTD/sodipodi-0.dtd"
   xmlns="http://www.w3.org/2000/svg"
   xmlns:svg="http://www.w3.org/2000/svg"><sodipodi:namedview
     id="namedview7"
     pagecolor="#505050"
     bordercolor="#eeeeee"
     borderopacity="1"
     inkscape:showpageshadow="0"
     inkscape:pageopacity="0"
     inkscape:pagecheckerboard="0"
     inkscape:deskcolor="#505050"
     inkscape:document-units="mm"
     showgrid="false"
     inkscape:zoom="1.0129245"
     inkscape:cx="437.3475"
     inkscape:cy="-203.86514"
     inkscape:window-width="2048"
     inkscape:window-height="1063"
     inkscape:window-x="0"
     inkscape:window-y="0"
     inkscape:window-maximized="1"
     inkscape:current-layer="layer1" /><defs
     id="defs2" /><g
     inkscape:label="Layer 1"
     inkscape:groupmode="layer"
     id="layer1"
     transform="translate(-77.465016,-222.06758)"><path
       style="fill:#000000;stroke-width:0.264583"
       d="m 262.83371,159.86624 v -2.11666 h -1.32292 -1.32292 v -3.57188 -3.57187 h 0.66146 0.66146 v 2.91041 2.91042 h 1.32292 1.32291 v 2.77812 2.77813 h -0.66146 c -0.65043,0 -0.66145,-0.0353 -0.66145,-2.11667 z m 2.64583,-1.32291 v -3.43959 h -1.32292 -1.32291 v -2.24896 c 0,-2.2225 0.008,-2.24895 0.66145,-2.24895 0.63206,0 0.66146,0.0705 0.66146,1.5875 v 1.5875 h 1.32292 1.32292 v 4.10104 4.10104 h -0.66146 -0.66146 z m 27.25208,3.25664 c -2.30305,-0.38501 -3.30502,-0.97376 -5.83474,-3.4285 -2.31479,-2.24617 -2.64269,-2.47398 -3.56099,-2.47398 -0.94218,0 -1.24925,-0.23549 -4.48505,-3.43958 l -3.47361,-3.43958 h -7.59468 -7.59468 v -11.37709 -11.37708 h 9.39271 9.39271 v 5.47801 5.47801 l 3.43958,3.47362 c 3.24952,3.28166 3.43959,3.53169 3.43959,4.52464 0,0.99002 0.1728,1.22021 2.97656,3.96514 1.63711,1.60275 3.33375,3.15722 3.77031,3.45436 1.18585,0.80715 2.6975,1.21895 4.3866,1.19501 1.75194,-0.0248 3.04047,-0.50192 4.51951,-1.67334 0.99358,-0.78693 1.07976,-0.80889 1.49802,-0.38177 0.41648,0.42531 0.37868,0.50895 -0.61455,1.35955 -2.81451,2.41036 -7.52777,2.67952 -10.53467,0.60159 -0.46332,-0.32019 -2.23326,-1.94543 -3.93318,-3.61166 -2.6999,-2.64637 -3.21271,-3.0369 -4.05501,-3.08804 -0.81017,-0.0492 -1.27811,-0.37031 -2.92851,-2.00969 l -1.96425,-1.95114 v 1.8325 1.83252 l 3.175,3.21154 c 2.83342,2.86603 3.175,3.3106 3.175,4.13226 0,0.80848 0.28224,1.1969 2.31546,3.18651 2.68192,2.6244 3.75095,3.18259 6.15121,3.21183 2.5361,0.0309 4.02376,-0.72574 6.4783,-3.29488 1.09665,-1.14784 2.09714,-2.08699 2.22332,-2.08699 0.12618,0 0.37144,0.17113 0.54502,0.38028 0.50266,0.60567 -3.28583,4.42204 -5.38042,5.42001 -1.57796,0.75183 -3.59332,1.11849 -4.92456,0.89594 z m -8.73125,-7.71956 c 0,-0.24065 -2.06036,-2.49538 -4.57857,-5.01051 l -4.57858,-4.57297 -0.50431,0.55725 c -0.50387,0.55678 -0.50036,0.56117 4.13885,5.17926 3.41733,3.40177 4.75924,4.57746 5.08288,4.45326 0.24185,-0.0928 0.43973,-0.36564 0.43973,-0.60629 z m -12.91376,-9.37674 c -2.97404,-2.9825 -2.98157,-2.99327 -2.43761,-3.48554 l 0.54565,-0.4938 -0.71995,-0.75147 c -0.67535,-0.70491 -0.69231,-0.77911 -0.27373,-1.19769 0.41857,-0.41857 0.49227,-0.4021 1.18941,0.2658 0.70208,0.67263 0.76829,0.68691 1.19704,0.25816 0.42875,-0.42874 0.63664,-0.2715 3.7584,2.84276 l 3.30455,3.29662 v -1.84528 -1.84527 l -4.42911,-4.43487 c -4.13757,-4.14295 -4.40621,-4.47152 -4.08128,-4.99183 0.30412,-0.48696 0.2724,-0.63726 -0.25234,-1.19582 -0.56108,-0.59724 -0.57134,-0.66769 -0.15751,-1.08152 0.41384,-0.41383 0.48593,-0.40202 1.10681,0.18126 0.64953,0.6102 0.67608,0.61312 1.20702,0.13262 0.53707,-0.48604 0.57536,-0.45892 3.57465,2.53186 l 3.03176,3.02316 v -4.16287 -4.16287 h -8.06979 -8.06979 v 10.05416 10.05417 h 6.27954 6.27954 z m -7.45915,1.00736 v -0.66145 h 2.91041 2.91042 v 0.66145 0.66146 h -2.91042 -2.91041 z m -0.14432,-2.6338 c -0.35719,-0.35719 -0.64943,-0.95792 -0.64943,-1.33495 0,-0.88215 1.10222,-1.98437 1.98437,-1.98437 0.92229,0 1.98438,1.10177 1.98438,2.05852 0,0.95297 -0.97585,1.91023 -1.94731,1.91023 -0.41441,0 -0.99956,-0.27698 -1.37201,-0.64943 z m 1.94677,-1.27264 c 0.1053,-0.54678 -0.6585,-0.91522 -1.06162,-0.5121 -0.40312,0.40312 -0.0347,1.16692 0.5121,1.06162 0.25343,-0.0488 0.50071,-0.29609 0.54952,-0.54952 z m -1.94677,-4.01903 c -0.79367,-0.79367 -0.8285,-1.69739 -0.10106,-2.62218 1.08536,-1.37982 3.42038,-0.52636 3.42038,1.25017 0,0.91912 -1.08211,2.02144 -1.98438,2.02144 -0.37703,0 -0.97776,-0.29224 -1.33494,-0.64943 z m 1.94677,-1.27264 c 0.1053,-0.54678 -0.6585,-0.91522 -1.06162,-0.51209 -0.40312,0.40312 -0.0347,1.16692 0.5121,1.06162 0.25343,-0.0488 0.50071,-0.2961 0.54952,-0.54953 z m -1.46696,-3.77424 c -1.52127,-0.63964 -1.47964,-2.82396 0.0658,-3.4543 1.09528,-0.44672 2.41863,0.0991 2.67017,1.10133 0.43786,1.74458 -1.07947,3.04949 -2.736,2.35297 z m 1.51659,-1.71828 c 0,-0.26335 -0.14883,-0.53073 -0.33073,-0.59418 -0.53575,-0.18687 -0.99219,0.0922 -0.99219,0.6067 0,0.26334 0.14883,0.53072 0.33073,0.59417 0.53575,0.18688 0.99219,-0.0922 0.99219,-0.60669 z m 18.99129,14.14074 c 0.0514,-0.35513 -1.28515,-1.86405 -4.43273,-5.0044 -3.78368,-3.77498 -4.57789,-4.45081 -4.95263,-4.21443 -0.24547,0.15484 -0.48428,0.39543 -0.53068,0.53464 -0.13086,0.39258 9.09406,9.43927 9.49164,9.30825 0.19295,-0.0636 0.38393,-0.34441 0.4244,-0.62406 z m -10.94245,-1.25069 c 0.23059,-0.36557 0.0339,-0.69372 -1.08886,-1.81646 -1.17195,-1.17196 -1.43015,-1.32061 -1.78388,-1.02704 -0.63019,0.52301 -0.51879,0.81494 0.83568,2.19009 1.29696,1.31676 1.5645,1.40258 2.03706,0.65341 z m 0.50347,-8.8635 c 0.40613,-0.44876 0.34547,-0.56333 -1.00373,-1.89576 -1.22331,-1.20812 -1.49676,-1.36769 -1.84644,-1.07748 -0.22576,0.18736 -0.41047,0.47082 -0.41047,0.6299 0,0.30474 2.37356,2.82097 2.66102,2.82097 0.0921,0 0.36189,-0.21494 0.59962,-0.47763 z m -5.73009,25.43665 c -0.097,-0.097 -0.17639,-0.39467 -0.17639,-0.66146 0,-0.45331 0.32839,-0.48506 5.01596,-0.48506 h 5.01595 l 0.0773,-2.05053 c 0.0715,-1.89765 0.12166,-2.05682 0.67259,-2.13506 0.53369,-0.0758 0.59531,0.0269 0.59531,0.99218 v 1.07674 h 1.32292 c 1.23472,0 1.32291,0.0441 1.32291,0.66146 0,0.61736 -0.0882,0.66146 -1.32291,0.66146 h -1.32292 v 1.05833 1.05833 h -5.51215 c -3.03169,0 -5.59153,-0.0794 -5.68854,-0.17639 z m -0.17639,-5.64444 v -2.91042 h -1.32291 c -1.23473,0 -1.32292,-0.0441 -1.32292,-0.66146 0,-0.64675 0.0441,-0.66145 1.98437,-0.66145 h 1.98438 v 3.57187 3.57188 h -0.66146 -0.66146 z m 2.64584,1.32292 v -1.5875 h 2.38125 c 2.35356,0 2.38125,-0.008 2.38125,-0.65116 0,-0.63639 -0.0525,-0.65289 -2.31511,-0.72761 l -2.3151,-0.0764 -0.0806,-1.25677 c -0.076,-1.18381 -0.0425,-1.25677 0.57691,-1.25677 0.48046,0 0.68032,0.16032 0.7421,0.59531 0.0793,0.55863 0.22718,0.60002 2.39965,0.67176 l 2.3151,0.0765 v 1.97407 1.97407 h -2.38125 -2.38125 v 0.92604 c 0,0.81139 -0.0819,0.92605 -0.66145,0.92605 -0.63206,0 -0.66146,-0.0706 -0.66146,-1.5875 z m 13.49375,-17.44988 v -1.57488 l -1.65365,-0.0788 c -1.48524,-0.0707 -1.66226,-0.13939 -1.73819,-0.67408 -0.0803,-0.56553 0.002,-0.59531 1.65364,-0.59531 1.67768,0 1.7382,-0.023 1.7382,-0.66146 0,-0.64676 -0.0441,-0.66146 -1.98438,-0.66146 -1.94028,0 -1.98437,-0.0147 -1.98437,-0.66146 0,-0.66131 5.2e-4,-0.66145 2.63716,-0.66145 h 2.63717 l 0.0748,2.97656 0.0748,2.97656 1.25677,0.0806 1.25677,0.0807 v -1.07283 c 0,-0.96797 0.0647,-1.07283 0.66146,-1.07283 0.63206,0 0.66146,0.0706 0.66146,1.5875 v 1.5875 h -2.64583 -2.64584 z m 6.99143,-2.92233 c -5.83366,-2.31292 -7.44586,-9.82681 -3.04797,-14.20552 4.34081,-4.32188 11.35276,-3.05834 14.11309,2.54315 0.89703,1.82034 0.85275,5.16927 -0.0947,7.16374 -0.83854,1.76514 -2.29764,3.26056 -4.0712,4.17256 -1.83115,0.94162 -4.97222,1.09007 -6.89919,0.32607 z m 5.97315,-1.34392 c 2.50245,-1.13041 4.19097,-3.45704 4.43114,-6.10574 0.27945,-3.08174 -1.23622,-5.80561 -4.02347,-7.23073 -4.91767,-2.51441 -10.60757,1.04364 -10.57027,6.60989 0.0175,2.61878 0.98651,4.41224 3.34707,6.19511 1.52709,1.15337 4.86295,1.4135 6.81553,0.53147 z m -4.7625,-2.97266 c 0,-0.94715 -0.12788,-1.23541 -0.7531,-1.69766 -1.63986,-1.2124 -2.14459,-3.98979 -1.02654,-5.64886 0.6364,-0.94435 2.1445,-2.09594 2.74481,-2.09594 0.26311,0 0.35775,0.44521 0.35775,1.6831 0,1.65263 0.012,1.68081 0.66145,1.55665 0.61628,-0.11781 0.66146,-0.23277 0.66146,-1.6831 0,-0.85616 0.0643,-1.55665 0.14283,-1.55665 0.0786,0 0.60234,0.23442 1.16397,0.52094 2.56545,1.30879 3.02477,4.7254 0.91845,6.83172 -0.75329,0.75329 -0.90233,1.09463 -0.90233,2.0665 0,1.06539 -0.0561,1.16417 -0.66146,1.16417 -0.63609,0 -0.66107,-0.0634 -0.65127,-1.65365 0.01,-1.56989 0.0532,-1.68066 0.8599,-2.18706 0.53609,-0.33654 0.9861,-0.92634 1.21925,-1.598 0.33394,-0.96202 0.32119,-1.16555 -0.13229,-2.11242 l -0.50184,-1.04783 -0.0806,1.25677 -0.0806,1.25677 h -1.96988 -1.96988 l -0.009,-1.25677 -0.009,-1.25677 -0.52036,0.62462 c -1.02666,1.23236 -0.44575,3.62012 1.07161,4.40478 0.74238,0.38389 0.78929,0.50211 0.78929,1.98885 0,1.5097 -0.0297,1.58071 -0.66146,1.58071 -0.60328,0 -0.66146,-0.10033 -0.66146,-1.14087 z m -12.17145,-0.51278 c -5.3e-4,-0.57224 0.0763,-0.59194 1.98437,-0.50826 1.75119,0.0768 1.985,0.14692 1.985,0.59531 0,0.45612 -0.2036,0.50827 -1.98438,0.50827 -1.8813,0 -1.98441,-0.0309 -1.98499,-0.59532 z m 6.2e-4,-2.71198 c 0,-0.6306 0.0726,-0.66145 1.55665,-0.66145 1.45033,0 1.56529,0.0452 1.6831,0.66145 0.12416,0.64949 0.096,0.66146 -1.55665,0.66146 -1.61892,0 -1.6831,-0.0252 -1.6831,-0.66146 z m 0,-3.30729 v -1.32291 h -2.64584 -2.64583 v 0.66145 c 0,0.52917 -0.13229,0.66146 -0.66146,0.66146 -0.61736,0 -0.66146,-0.0882 -0.66146,-1.32291 v -1.32292 h 3.96875 3.96875 v 1.32292 1.32291 h 1.32292 c 1.23472,0 1.32292,0.0441 1.32292,0.66146 0,0.64676 -0.0441,0.66146 -1.98438,0.66146 h -1.98437 z m -20.10877,-1.65364 -4.2e-4,-1.65365 h 1.2572 1.2572 l 0.08,-1.38906 c 0.0734,-1.27559 0.13287,-1.38906 0.7276,-1.38906 0.62955,0 0.64763,0.0554 0.64763,1.98437 v 1.98438 h -1.32292 -1.32291 v 1.05833 c 0,0.9525 -0.0662,1.05833 -0.66146,1.05833 -0.63496,0 -0.66148,-0.0663 -0.66189,-1.65364 z m 5.2921,0.7276 c 0,-0.80716 0.0835,-0.92604 0.65033,-0.92604 0.62812,0 0.65296,-0.07 0.7276,-2.05052 0.0715,-1.89765 0.12166,-2.05682 0.67259,-2.13507 0.58514,-0.0831 0.59531,-0.0368 0.59531,2.71198 v 2.79653 h -0.66146 c -0.3638,0 -0.66145,0.11906 -0.66145,0.26458 0,0.14552 -0.29766,0.26458 -0.66146,0.26458 -0.57957,0 -0.66146,-0.11465 -0.66146,-0.92604 z m 3.96875,-1.05833 c 0,-1.92719 0.0186,-1.98438 0.64549,-1.98438 0.5549,0 0.65701,-0.13923 0.7276,-0.99218 0.066,-0.79698 0.19924,-1.00882 0.67743,-1.07674 0.56553,-0.0803 0.59531,0.002 0.59531,1.65364 0,1.67769 -0.023,1.7382 -0.66146,1.7382 -0.61736,0 -0.66145,0.0882 -0.66145,1.32292 0,1.23472 -0.0441,1.32291 -0.66146,1.32291 -0.64676,0 -0.66146,-0.0441 -0.66146,-1.98437 z"
       id="path316" /><path
       style="fill:#000000;stroke-width:0.264583"
       d="m 346.46643,100.21546 c -0.23581,-0.0937 1.28026,-1.787724 4.35429,-4.865314 4.48253,-4.48773 4.74011,-4.69973 5.2021,-4.28164 0.46386,0.41979 0.28326,0.64294 -3.95449,4.8862 -4.20337,4.208844 -4.72822,4.608034 -5.6019,4.260754 z m 32.11176,-5.618774 c -1.0675,-0.25896 -2.28331,-0.91105 -2.8348,-1.52044 -1.22732,-1.35617 -1.63638,-4.13241 -0.84266,-5.71909 0.23297,-0.46571 5.34331,-5.78785 11.3563,-11.82696 9.77118,-9.81363 10.96532,-11.10415 11.23963,-12.14682 1.06606,-4.05227 -3.24509,-7.46654 -6.92788,-5.48662 -1.1034,0.5932 -1.27557,0.6213 -1.57751,0.25748 -0.2819,-0.33966 -0.25157,-0.47511 0.18024,-0.80487 1.58299,-1.20889 4.21719,-1.48644 6.07543,-0.64013 2.04272,0.93032 3.56618,3.24675 3.5704,5.4288 0.004,2.30456 -0.0335,2.35023 -11.79653,14.18591 -9.78786,9.84832 -11.19885,11.36917 -11.36174,12.24634 -0.35872,1.93172 0.46253,3.76322 2.05722,4.58787 1.1466,0.59293 3.27799,0.38263 4.38005,-0.43216 0.64965,-0.4803 0.92435,-0.55601 1.16054,-0.31982 0.23619,0.23619 0.18893,0.44258 -0.19963,0.87194 -1.00936,1.11533 -2.95533,1.6882 -4.47906,1.31857 z m -21.76952,-4.3224 -1.1099,-1.13091 4.49029,-4.48446 4.49029,-4.48446 1.19888,1.17661 1.19888,1.17661 -4.433,4.43876 c -2.43815,2.44132 -4.49882,4.43876 -4.57926,4.43876 -0.0804,0 -0.64573,-0.50891 -1.25618,-1.13091 z m 9.90477,-9.94004 -4.71686,-4.72233 0.92246,-0.43774 c 2.08684,-0.99027 3.74291,-0.27213 6.88226,2.98445 2.61644,2.71415 3.10245,3.8074 2.51013,5.64645 -0.1913,0.59396 -0.46781,1.11853 -0.61447,1.16571 -0.14666,0.0472 -2.38924,-2.03926 -4.98352,-4.63654 z m 3.46248,-3.31266 -2.84603,-2.93868 5.75644,-5.7763 c 3.16605,-3.17697 6.07795,-5.94696 6.47091,-6.15553 0.99074,-0.52585 2.82003,-0.47389 3.91987,0.11135 1.81119,0.96376 2.61873,3.54907 1.68972,5.40956 -0.39204,0.78512 -11.71075,12.39774 -12.01034,12.3222 -0.074,-0.0187 -1.41526,-1.35633 -2.98057,-2.9726 z m 9.5047,-6.60667 c 1.85812,-1.85812 2.15709,-2.87 1.14653,-3.88055 -1.01067,-1.01067 -2.04936,-0.71288 -3.89548,1.11683 -1.36563,1.35349 -1.66077,1.80018 -1.66077,2.51354 0,1.11578 0.79761,1.92588 1.89618,1.92588 0.67616,0 1.16123,-0.32338 2.51354,-1.6757 z m -3.03389,0.29986 c -0.52487,-0.52487 -0.38008,-0.82939 1.07989,-2.27122 1.5026,-1.48394 1.79108,-1.60453 2.3184,-0.96916 0.29101,0.35065 0.11276,0.64152 -1.2161,1.98438 -0.85639,0.86543 -1.62629,1.5735 -1.71088,1.5735 -0.0846,0 -0.29668,-0.14287 -0.47131,-0.3175 z m 9.26408,-7.71581 c -0.30358,-0.51453 -0.97481,-1.20948 -1.49162,-1.54433 -0.51681,-0.33485 -0.94113,-0.68295 -0.94293,-0.77356 -0.002,-0.0906 0.52985,-0.65615 1.18144,-1.25677 1.39503,-1.2859 2.37683,-1.41691 3.48366,-0.46486 0.54916,0.47238 0.72912,0.86661 0.72912,1.59725 0,0.79852 -0.21289,1.18298 -1.20385,2.17393 l -1.20385,1.20385 z"
       id="path330" /><path
       style="fill:#000000;stroke-width:0.906075"
       d="m 491.93448,59.598588 c -5.81161,-1.061026 -11.50329,-0.339087 -16.42878,2.083786 -4.66778,2.296106 -5.4001,2.893799 -4.35114,3.551109 0.42237,0.264832 2.28414,-0.397034 4.13676,-1.470877 17.94277,-10.399217 41.40656,8.418054 28.69691,23.014059 l -3.34716,3.844002 -3.58767,-2.727914 c -2.96619,-2.255288 -4.07814,-2.664683 -6.41907,-2.362709 -2.37005,0.305771 -3.47049,1.09823 -6.75354,4.864151 -4.373,5.016095 -6.04891,9.830375 -5.59793,16.080615 0.24096,3.34188 -0.50728,5.233 -4.62784,11.69409 -7.49569,11.75326 -8.21117,13.24813 -9.57083,19.9969 -1.64575,8.1688 -1.5047,12.04491 0.69958,19.21646 0.92579,8.49863 13.66966,22.08558 6.3418,9.20435 -3.05014,-5.31731 -7.5076,-21.36697 -5.97238,-21.50358 0.28498,-0.0243 1.55205,1.36245 2.81632,3.08395 4.48764,6.11047 14.18142,6.83259 19.63311,1.46259 6.03631,-5.9448 6.50405,-15.02208 1.37622,-26.66631 -2.42631,-5.50958 -2.65047,-6.91361 -1.23969,-7.76101 11.56964,-6.94906 14.14411,-10.30149 13.73352,-17.88362 -0.21778,-4.0204 0.14559,-4.90889 3.35327,-8.199787 4.90135,-5.028637 6.26641,-11.590776 3.62776,-17.440451 -2.49929,-5.540807 -9.75177,-10.844207 -16.51922,-12.079773 z m 0.87655,28.970609 c -4.0855,-0.624541 -4.55695,-0.921382 -2.10137,-1.32443 1.07233,-0.175846 2.71303,0.161571 3.64592,0.749697 1.47117,0.925665 1.26451,1.00314 -1.54366,0.573852 z m -2.1557,10.435153 c -3.7565,3.56696 -7.12007,6.51117 -7.47463,6.54273 -1.7987,0.16035 0.24752,-11.43607 2.3916,-13.55278 2.03131,-2.005431 8.43525,-2.419048 10.49247,-0.67772 1.33174,1.12724 0.99352,1.60779 -5.40944,7.68777 z m 7.15785,3.03927 c -1.9175,3.32324 -2.96245,4.20447 -9.93111,8.37535 -3.43184,2.05406 -3.60726,2.06095 -4.00422,0.15702 -0.35525,-1.70497 0.56173,-2.95542 6.3828,-8.70232 3.73887,-3.69118 7.23005,-6.74974 7.75819,-6.79673 1.83253,-0.16308 1.72058,3.62819 -0.20581,6.96656 z m -19.68825,13.98179 c -0.76287,0.34158 -0.80141,0.0741 -0.0985,-0.68218 0.63644,-0.68425 1.20122,-0.93712 1.25528,-0.56177 0.0544,0.37511 -0.46665,0.93508 -1.15708,1.24416 z m 11.72958,16.69476 c 1.26744,6.22615 0.10001,12.01293 -3.05105,15.12388 -7.24643,7.15409 -18.7646,3.03654 -19.55622,-6.99097 -0.43673,-5.53142 0.52257,-6.46079 2.22635,-2.15713 2.59722,6.5601 11.61378,9.63291 15.88687,5.41425 2.54058,-2.50827 2.58617,-8.49143 0.13283,-17.41354 -1.16557,-4.23888 -1.86308,-7.95995 -1.54991,-8.26915 0.91443,-0.9028 4.66291,8.16057 5.9112,14.29263 z m -17.07303,-6.36582 c -2.43365,1.1723 1.18891,-4.38679 4.40253,-6.75587 l 3.57008,-2.63198 -3.52278,4.47067 c -1.93757,2.45883 -3.93997,4.6716 -4.44983,4.91718 z m 10.62897,1.05705 c 3.23982,11.08392 2.41949,16.1036 -2.7407,16.76911 -4.44844,0.57376 -8.67498,-2.73259 -9.64052,-7.54159 -0.79663,-3.96758 -0.73674,-4.09818 4.57409,-9.97771 2.95969,-3.27659 5.50961,-5.87634 5.66658,-5.77721 0.15677,0.099 1.1201,3.03651 2.14184,6.52716 z M 467.62318,65.760473 c -0.52643,0.04677 -1.76881,0.886517 -2.7609,1.865907 -1.64715,1.626193 -1.55362,1.937521 1.07858,3.586765 2.3,1.441144 2.98788,1.543675 3.40427,0.507948 0.28689,-0.713921 1.07147,-1.840578 1.74309,-2.503659 0.85489,-0.843998 0.6619,-1.555976 -0.64351,-2.373825 -1.02556,-0.64258 -2.29536,-1.129906 -2.82168,-1.083105 z m -13.61737,9.532411 c -3.85492,3.376479 -11.6086,10.307377 -17.23037,15.402013 l -10.22146,9.262993 5.56284,3.48554 c 3.05954,1.91702 5.83153,3.46203 6.15987,3.43339 0.47122,-0.041 30.14663,-31.832367 30.4575,-32.62923 0.0444,-0.113282 -1.67436,-1.306178 -3.81936,-2.650166 l -3.90004,-2.443677 z m -9.0798,21.275316 c -0.56195,1.76663 -1.15357,2.19913 -3.40526,2.48951 -4.94117,0.63726 -7.22619,-2.54269 -4.06783,-5.66086 2.12771,-2.10059 3.05202,-2.162943 5.87194,-0.39607 1.65683,1.03813 2.09508,2.01457 1.60103,3.56745 z m -5.74782,-2.69934 c -1.79566,0.8307 -1.11743,3.44193 1.03301,3.97676 0.91055,0.22656 2.03763,-0.15914 2.50452,-0.8573 1.06472,-1.59154 -1.65514,-3.99021 -3.53738,-3.11952 z m 2.24915,2.05236 c -0.35025,0.34577 -0.99615,0.40323 -1.43578,0.12786 -0.43957,-0.27546 -0.51334,-0.7832 -0.16256,-1.12924 0.35023,-0.34571 0.99618,-0.40323 1.43576,-0.12786 0.43956,0.27546 0.51336,0.78316 0.16219,1.12921 z m -19.61241,5.17678 -1.90979,1.88547 7.99097,5.00692 7.99096,5.00698 1.90983,-1.88549 1.9098,-1.8855 -7.99098,-5.00692 -7.99098,-5.00692 z m -10.95809,19.84574 -13.36877,13.19841 1.99777,1.2517 1.99776,1.25172 13.36874,-13.19835 13.36872,-13.19841 -1.99777,-1.25173 -1.99773,-1.25172 z m -15.27737,15.08361 c -0.7002,0.69132 -0.91359,1.48229 -0.47408,1.75769 0.43956,0.27546 1.37202,-0.065 2.07229,-0.75631 0.70028,-0.69136 0.91363,-1.4823 0.47416,-1.75767 -0.43963,-0.27546 -1.3721,0.065 -2.07237,0.75629 z m 2.39734,1.50206 c -0.70031,0.69133 -1.13538,1.34336 -0.96691,1.44895 0.16876,0.10539 1.06739,-0.25572 1.99753,-0.80318 0.93011,-0.54727 1.3652,-1.19936 0.96688,-1.44895 -0.39812,-0.24964 -1.29726,0.11177 -1.9975,0.80318 z m -6.17235,3.93995 c -2.15041,3.52159 -1.65478,3.57106 3.60692,0.36001 2.00749,-1.22512 2.05376,-1.53839 0.38228,-2.58581 -1.8496,-1.15891 -1.95973,-1.09747 -3.98901,2.2258 z"
       id="path344"
       sodipodi:nodetypes="csssscssssssccsscsssssscscccssssssssssssssssssssssssssssssssssssssscsssssscsssscssssssssssssssscccccccccccccccscccssccssssssssssssssss" /><path
       style="fill:#000000;stroke-width:0.264583"
       d="m 78.400253,256.65923 c 0,-0.55596 0.124394,-0.66146 0.779923,-0.66146 0.754315,0 0.782549,-0.0456 0.859896,-1.38906 0.0723,-1.25574 0.143459,-1.39756 0.741431,-1.47761 0.363802,-0.0487 0.774568,-0.19753 0.912813,-0.33073 0.346315,-0.33367 4.90802,-0.31285 4.90802,0.0224 0,0.14552 0.357188,0.26458 0.79375,0.26458 0.767525,0 0.794459,0.0415 0.81524,1.25677 l 0.02148,1.25677 0.36345,-0.79375 c 0.199901,-0.43656 0.740634,-0.30523 0.518858,0.22556 l -0.403217,0.96506 h 1.959242 c 1.878825,0 1.966185,-0.0277 2.128374,-0.67387 0.161438,-0.64322 0.243975,-0.6703 1.814621,-0.59531 1.476854,0.0705 1.654154,0.13957 1.730037,0.67387 0.09879,0.69562 1.217464,0.847 1.466342,0.19844 0.104367,-0.27198 0.529584,-0.39688 1.351224,-0.39688 0.889323,0 1.198923,0.10249 1.198923,0.39688 0,0.28663 0.29398,0.39687 1.05833,0.39687 0.9525,0 1.05834,0.0661 1.05834,0.66146 v 0.66146 H 90.438795 78.400253 Z m 8.995833,-1.71979 c 0,-0.76435 -0.110244,-1.05833 -0.396875,-1.05833 -0.218281,0 -0.396875,0.11906 -0.396875,0.26458 0,0.15666 -0.964932,0.26458 -2.365634,0.26458 -1.301099,0 -2.43922,-0.11906 -2.529157,-0.26458 -0.08994,-0.14552 -0.33509,-0.26458 -0.544783,-0.26458 -0.268414,0 -0.381259,0.31324 -0.381259,1.05833 v 1.05833 h 3.307292 3.307291 z"
       id="path358"
       sodipodi:nodetypes="sssssssscsscssssssssscccsssssssscccs" /><path
       style="fill:#000000;stroke-width:0.264583"
       d="m 89.199284,254.58775 c 0,-0.23423 0.76229,-1.21095 1.69398,-2.17049 1.49114,-1.5357 1.74595,-1.70147 2.12802,-1.38439 0.62123,0.51558 0.4749,0.77889 -1.3723,2.46945 -1.66351,1.52244 -2.4497,1.87079 -2.4497,1.08543 z m 2.5088,-1.95052 c 0.56578,-0.57941 0.96947,-1.1127 0.89709,-1.18508 -0.0724,-0.0724 -0.65498,0.40169 -1.29466,1.05348 -0.63969,0.65179 -1.04338,1.18508 -0.89709,1.18508 0.14628,0 0.72888,-0.47407 1.29466,-1.05348 z m 1.77732,-1.66846 c -0.32007,-0.3407 -0.58195,-0.73216 -0.58195,-0.86991 0,-0.13775 2.02009,-2.26792 4.48909,-4.73371 l 4.489086,-4.48327 0.67029,0.6297 c 0.36865,0.34634 0.67028,0.76001 0.67028,0.91928 0,0.26444 -1.57967,1.86089 -7.157106,7.23313 l -1.99774,1.92424 z m 6.15996,-6.51952 c 1.452476,-1.46563 2.522646,-2.66479 2.378146,-2.66479 -0.1445,0 -2.166316,1.92609 -4.492946,4.2802 -2.32663,2.35411 -3.3968,3.55327 -2.37815,2.66479 1.01864,-0.88847 3.04047,-2.81456 4.49295,-4.2802 z m 3.343536,-3.07168 c -1.32689,-1.38796 -2.41253,-2.62951 -2.41253,-2.75901 0,-0.1295 0.62508,-0.17109 1.38906,-0.0924 1.61843,0.16664 0.6593,0.91554 10.86047,-8.48008 3.3175,-3.05554 6.24727,-5.68274 6.5106,-5.83824 0.26334,-0.1555 0.9423,-0.59187 1.50881,-0.96971 2.11558,-1.41102 3.53005,-1.5295 5.33184,-0.44663 1.09216,0.65639 2.18221,2.4962 2.17466,3.6704 -0.0104,1.61312 -0.91036,2.93488 -4.21776,6.19446 -1.77186,1.74625 -3.39188,3.49651 -3.60004,3.88947 -1.17099,2.21055 0.54742,5.22515 3.01854,5.29541 1.06181,0.0302 1.84465,-0.28666 3.12738,-1.2658 1.86201,-1.4213 3.93941,-1.53059 5.49068,-0.28887 1.14762,0.91863 0.64895,1.40775 -0.58227,0.57112 -1.44481,-0.98177 -2.57314,-0.88004 -4.45178,0.40137 -1.85162,1.26297 -3.12521,1.6662 -4.24676,1.34454 -1.33656,-0.38332 -1.9181,-0.79276 -2.74257,-1.9309 -0.89111,-1.23014 -1.04509,-2.8047 -0.41604,-4.25452 0.20317,-0.46827 1.81907,-2.28015 3.59089,-4.0264 4.30621,-4.24406 4.96475,-5.60636 3.64648,-7.54332 -0.92436,-1.35815 -1.92441,-1.97603 -3.14644,-1.94398 -1.26837,0.0333 -2.19622,0.65587 -3.21148,2.15502 -0.40454,0.59734 -3.87741,4.36559 -7.7175,8.37389 -7.16129,7.47499 -7.59136,8.05236 -7.05292,9.46855 0.24704,0.64979 0.15977,0.99922 -0.24958,0.99922 -0.10406,0 -1.27484,-1.1356 -2.60174,-2.52356 z"
       id="path400" /><path
       d="m 83.265844,248.68797 c 0.93316,-1.2178 0.99932,-1.41904 0.89368,-2.71816 -0.0916,-1.12591 -0.33118,-1.70069 -1.21335,-2.91042 -2.18537,-2.99677 -2.54166,-3.75472 -2.64777,-5.63269 -0.0704,-1.24574 0.0209,-1.97565 0.31494,-2.51858 l 0.41405,-0.76449 0.0106,1.00273 c 0.0139,1.31614 0.81437,2.83732 2.60162,4.94403 1.70783,2.01307 2.17149,2.9976 2.17149,4.61085 0,1.98824 -0.76673,3.30046 -2.76869,4.73851 -0.75482,0.5422 -0.74642,0.51393 0.22345,-0.75178 z m -3.42131,0.15405 c 1.20257,-1.25521 1.05325,-2.5197 -0.57395,-4.86054 -1.66039,-2.3886 -2.026,-3.45229 -1.69418,-4.92907 0.31078,-1.38318 0.56037,-1.67126 0.56611,-0.6534 0.005,0.88573 0.64864,2.02993 2.47033,4.3915 1.25164,1.62259 1.28125,1.7032 1.17338,3.19449 -0.0977,1.35045 -0.23131,1.65346 -1.13931,2.58333 -0.56575,0.57939 -1.14582,1.05343 -1.28903,1.05343 -0.14321,0 0.0758,-0.35088 0.48665,-0.77974 z"
       style="fill:#000000;stroke-width:0.264583"
       id="path506" /><path
       d="m 131.92921,241.13468 c -1.20118,0.4189 -1.76347,0.93736 -1.32427,1.22072 0.28032,0.18078 2.53056,-0.54715 2.92231,-0.9458 0.38173,-0.38804 -0.72697,-0.57877 -1.59807,-0.27495 z m 0.45934,1.39968 c -0.6056,0.21119 -0.88404,0.40852 -0.61887,0.43829 0.76079,0.0855 1.78971,1.73391 1.19101,1.90789 -0.8528,0.24782 -1.00355,1.83953 -0.29556,3.1205 l 0.64854,1.1734 2.31966,-1.00663 c 1.27553,-0.5541 2.45766,-1.14654 2.6261,-1.31779 0.31227,-0.31748 -0.65577,-1.80198 -1.33026,-2.03986 -0.20436,-0.0721 -0.81253,-0.37027 -1.35125,-0.66237 -0.53867,-0.29216 -1.00382,-0.366 -1.03369,-0.1641 -0.0963,0.65183 -0.81198,-0.0972 -0.93523,-0.97888 -0.10694,-0.76562 -0.23413,-0.81466 -1.22052,-0.47064 z m 5.41923,5.41562 c -0.31565,0.32089 0.41637,1.51726 0.90119,1.47281 0.16861,-0.0154 0.0989,-0.41837 -0.15482,-0.89538 -0.25383,-0.47731 -0.58946,-0.73696 -0.74641,-0.57741 z m -3.02908,1.15717 c -0.30219,0.30716 0.72367,1.74584 1.21293,1.70098 0.16321,-0.0151 0.0203,-0.46786 -0.31838,-1.00628 -0.33777,-0.53873 -0.74104,-0.8511 -0.89493,-0.69463 z"
       style="fill:#000000;stroke-width:0.443594"
       id="path664" /></g></svg>
