<?xml version="1.0" encoding="UTF-8" standalone="no"?>
<!-- Created with Inkscape (http://www.inkscape.org/) -->

<svg
   width="195.02361mm"
   height="195.08914mm"
   viewBox="0 0 195.02361 195.08914"
   version="1.1"
   id="svg25950"
   xml:space="preserve"
   inkscape:version="1.2.2 (732a01da63, 2022-12-09, custom)"
   sodipodi:docname="taba_logo.svg"
   xmlns:inkscape="http://www.inkscape.org/namespaces/inkscape"
   xmlns:sodipodi="http://sodipodi.sourceforge.net/DTD/sodipodi-0.dtd"
   xmlns="http://www.w3.org/2000/svg"
   xmlns:svg="http://www.w3.org/2000/svg"><sodipodi:namedview
     id="namedview25952"
     pagecolor="#505050"
     bordercolor="#eeeeee"
     borderopacity="1"
     inkscape:showpageshadow="0"
     inkscape:pageopacity="0"
     inkscape:pagecheckerboard="0"
     inkscape:deskcolor="#505050"
     inkscape:document-units="mm"
     showgrid="false"
     inkscape:zoom="0.37549453"
     inkscape:cx="382.16269"
     inkscape:cy="406.13108"
     inkscape:window-width="2048"
     inkscape:window-height="1063"
     inkscape:window-x="0"
     inkscape:window-y="0"
     inkscape:window-maximized="1"
     inkscape:current-layer="layer1" /><defs
     id="defs25947" /><g
     inkscape:label="Layer 1"
     inkscape:groupmode="layer"
     id="layer1"
     transform="translate(-169.33514,-135.89813)"><path
       style="fill:#0000ff;stroke-width:1.35466"
       d="m 254.65495,330.38307 c -39.64943,-5.50866 -72.98279,-34.82644 -82.67259,-72.71326 -3.26866,-12.78039 -3.55523,-35.21823 -0.60933,-47.71431 7.60356,-32.25313 32.40678,-59.14358 64.82135,-70.2761 10.07017,-3.45856 12.68644,-3.78127 30.65257,-3.78127 17.96613,0 20.5824,0.32256 30.65257,3.78127 32.41456,11.13252 57.21779,38.02297 64.8213,70.2761 2.94594,12.49608 2.65938,34.93392 -0.60928,47.71431 -8.47145,33.12312 -36.01004,60.88995 -69.18697,69.76041 -11.9166,3.18612 -27.46455,4.39843 -37.86962,2.95285 z m 42.34849,-6.51878 c 21.23648,-7.33 37.64567,-19.70391 49.22235,-37.1177 23.78537,-35.77825 21.80843,-80.7425 -5.03301,-114.4746 -11.74124,-14.75543 -33.40964,-28.39511 -52.67118,-33.15517 -12.19497,-3.01368 -35.39968,-2.34962 -47.36558,1.35552 -27.58882,8.54262 -47.90794,25.33596 -60.11218,49.68146 -24.672,49.21656 -2.46907,109.68827 48.06978,130.92244 14.71366,6.18205 24.24105,7.88593 41.12,7.35412 12.26624,-0.38656 17.00009,-1.19394 26.76982,-4.56607 z m -46.31065,-0.37325 c -38.35817,-8.09907 -66.8669,-36.65695 -74.04478,-74.17257 -3.85807,-20.1642 -1.31072,-37.45239 8.42404,-57.17207 11.43777,-23.16954 33.68422,-41.43959 58.74555,-48.2453 11.85454,-3.2193 34.20411,-3.2193 46.0587,0 25.05666,6.80443 47.30096,25.07105 58.75108,48.2453 13.52632,27.37633 13.46396,54.77402 -0.18791,82.60526 -3.73355,7.61129 -7.88111,13.08278 -16.5334,21.81115 -18.54848,18.71155 -36.45368,26.75057 -61.67229,27.68947 -7.45068,0.27751 -16.24407,-0.065 -19.54084,-0.76124 z m 37.20555,-3.37152 c 31.83232,-8.06446 57.62729,-33.65274 65.6852,-65.15886 7.91326,-30.94057 -0.81024,-62.30467 -23.71124,-85.2502 -17.41537,-17.44922 -38.64826,-26.31445 -63.02535,-26.31445 -40.77061,0 -76.66949,27.79536 -86.73659,67.1573 -5.39233,21.08386 -2.56169,44.75479 7.72582,64.60539 7.54694,14.56251 23.45662,30.03223 38.37077,37.3096 6.33308,3.09027 14.86745,6.4961 18.96535,7.56853 9.97555,2.61064 32.57498,2.65436 42.72604,0.0824 z m -32.56607,-22.78246 c -2.23518,-1.02201 -5.98077,-3.47382 -8.32353,-5.4485 -5.47287,-4.61287 -7.72378,-4.51963 -14.17134,0.5869 -8.18642,6.48377 -9.0091,3.99483 -1.36934,-4.14254 l 6.87994,-7.32805 3.07349,2.81651 c 6.33754,5.80772 14.83766,9.01259 24.07081,9.07556 15.52952,0.10599 24.75658,-5.1989 32.33602,-18.59056 5.26075,-9.29485 8.90737,-24.67569 7.72291,-32.57406 -1.0455,-6.97195 -5.21108,-13.03936 -8.95227,-13.03936 -4.40207,0 -5.43749,4.17086 -3.05208,12.29404 6.59507,22.45837 -14.48228,44.89856 -28.76058,30.62032 -11.92207,-11.92213 -5.78806,-37.38471 17.0283,-70.68498 6.63644,-9.68587 14.67044,-22.18271 17.85334,-27.77068 5.20161,-9.13229 5.83081,-9.77874 6.21988,-6.39063 0.97515,8.49091 -7.43276,25.03972 -23.2065,45.67593 -11.22821,14.68954 -14.48131,21.82902 -14.47214,31.76202 0.0102,10.33943 1.9286,17.32209 6.0694,22.08379 2.63987,3.0357 3.69679,3.45728 5.69431,2.27144 5.1861,-3.07886 7.18971,-9.96291 7.19196,-24.7103 10e-4,-7.68589 0.63314,-15.15351 1.40442,-16.59464 3.32119,-6.20569 15.77385,-0.45977 19.77922,9.1263 2.32427,5.56283 2.28603,17.17243 -0.0783,23.79725 -3.04757,8.53862 -13.03705,23.88291 -18.22126,27.98863 -11.79571,9.3419 -26.09018,13.1199 -34.71646,9.17561 z m -27.51078,-23.97312 c -8.93123,-5.44528 -11.9742,-19.56455 -7.53879,-34.97979 3.1959,-11.10733 6.32402,-16.73083 18.54054,-33.33049 10.27323,-13.95916 25.31436,-38.66363 25.31436,-41.57788 0,-0.72673 0.58962,-0.95693 1.31031,-0.51149 1.37948,0.85253 0.74649,6.37891 -1.62151,14.15691 -2.093,6.87477 -9.22142,18.45959 -21.08835,34.27195 -14.14953,18.85383 -17.09236,25.81591 -15.85316,37.50487 1.5618,14.73218 5.65407,21.51951 12.01249,19.92361 5.82953,-1.46309 8.88146,-13.43913 8.96041,-35.1615 0.0307,-8.15698 2.40041,-7.91148 5.03634,0.52152 2.90135,9.282 2.71063,24.17403 -0.39066,30.50558 -5.0648,10.34025 -15.77697,14.10601 -24.68198,8.67676 z M 298.0043,216.7759 c 0,-2.699 9.33186,-12.46694 11.9104,-12.46694 3.28617,0 1.5106,5.4103 -3.3129,10.0948 -5.42505,5.26878 -8.5975,6.1441 -8.5975,2.37214 z m -10.30661,-0.84577 c -1.40841,-3.67022 6.89055,-12.97582 11.57222,-12.97582 2.73296,0 1.43708,5.05585 -2.23785,8.73078 -5.37508,5.37508 -8.37688,6.74022 -9.33437,4.24504 z"
       id="path26570" /></g></svg>
