<?xml version="1.0" encoding="UTF-8" standalone="no"?>
<!-- Created with Inkscape (http://www.inkscape.org/) -->

<svg
   width="51.692924mm"
   height="49.79427mm"
   viewBox="0 0 51.692924 49.79427"
   version="1.1"
   id="svg5"
   xml:space="preserve"
   inkscape:version="1.2.2 (732a01da63, 2022-12-09, custom)"
   sodipodi:docname="transistor_diagram.svg"
   xmlns:inkscape="http://www.inkscape.org/namespaces/inkscape"
   xmlns:sodipodi="http://sodipodi.sourceforge.net/DTD/sodipodi-0.dtd"
   xmlns="http://www.w3.org/2000/svg"
   xmlns:svg="http://www.w3.org/2000/svg"><sodipodi:namedview
     id="namedview7"
     pagecolor="#505050"
     bordercolor="#eeeeee"
     borderopacity="1"
     inkscape:showpageshadow="0"
     inkscape:pageopacity="0"
     inkscape:pagecheckerboard="0"
     inkscape:deskcolor="#505050"
     inkscape:document-units="mm"
     showgrid="false"
     inkscape:zoom="1.0129245"
     inkscape:cx="215.71203"
     inkscape:cy="194.97998"
     inkscape:window-width="1920"
     inkscape:window-height="939"
     inkscape:window-x="0"
     inkscape:window-y="0"
     inkscape:window-maximized="1"
     inkscape:current-layer="layer1" /><defs
     id="defs2" /><g
     inkscape:label="Layer 1"
     inkscape:groupmode="layer"
     id="layer1"
     transform="translate(-79.348659,-111.00815)"><path
       style="fill:#000000;stroke-width:0.0855349"
       d="m 84.053048,159.02085 c 0,-0.63515 -0.005,-0.65093 -0.19246,-0.59936 -0.18703,0.0515 -0.18778,0.0492 -0.0264,-0.0798 0.32869,-0.26275 0.38994,-0.1769 0.38994,0.54651 0,0.37357 -0.0385,0.70302 -0.0855,0.73209 -0.0542,0.0335 -0.0855,-0.18636 -0.0855,-0.59946 z m 2.39497,0.56982 c 0,-0.0163 0.15397,-0.20455 0.34215,-0.41833 0.18817,-0.21378 0.34214,-0.45554 0.34214,-0.53725 0,-0.22649 -0.21022,-0.35452 -0.48365,-0.29457 -0.18619,0.0408 -0.21325,0.0319 -0.1151,-0.0378 0.17262,-0.12263 0.54057,-0.11773 0.66717,0.009 0.18394,0.18393 0.10873,0.48887 -0.20668,0.83799 l -0.30932,0.34239 h 0.30932 c 0.17013,0 0.30925,0.0289 0.30915,0.0641 -9e-5,0.0353 -0.19256,0.0642 -0.42768,0.0642 -0.23513,0 -0.4275,-0.0134 -0.4275,-0.0296 z m 2.84404,0.0158 c -0.19821,-0.08 -0.10887,-0.17061 0.13317,-0.13508 0.46391,0.0681 0.57291,-0.43551 0.11893,-0.54946 -0.21841,-0.0548 -0.21876,-0.0562 -0.0315,-0.12551 0.42196,-0.15609 0.28472,-0.54766 -0.15579,-0.44449 -0.16461,0.0386 -0.19219,0.0263 -0.1185,-0.0525 0.0528,-0.0565 0.22603,-0.0904 0.3849,-0.0752 0.22636,0.0216 0.29492,0.0703 0.31682,0.22478 0.0154,0.10844 -0.014,0.24767 -0.0652,0.3094 -0.0688,0.0829 -0.0593,0.14033 0.0362,0.21961 0.36546,0.3033 -0.14377,0.82029 -0.61907,0.6285 z m 0.59087,-3.79242 c 0,-0.11761 0.0194,-0.16573 0.0431,-0.10692 0.0237,0.0588 0.0237,0.15503 0,0.21384 -0.0237,0.0588 -0.0431,0.0107 -0.0431,-0.10692 z m -5.36979,-9.00632 c 0.0103,-8.8998 0.009,-8.96377 -0.16072,-8.99606 -0.0941,-0.0179 -0.2673,-0.0281 -0.38491,-0.0226 -0.11761,0.005 -0.51214,0.003 -0.87673,-0.006 l -0.6629,-0.0164 v -4.40505 -4.40506 h 4.44782 4.44782 v 4.40131 4.40131 l -0.62013,0.0251 -0.62013,0.0251 -0.0434,8.85288 -0.0434,8.85287 -0.0208,-8.82986 -0.0208,-8.82986 -0.19246,-0.0384 c -0.10585,-0.0211 -0.69283,-0.0315 -1.30441,-0.023 l -1.11195,0.0154 -0.0432,8.93841 -0.0432,8.93841 -0.0424,-8.93841 -0.0424,-8.93841 -1.26165,-0.0257 -1.26164,-0.0257 -0.008,8.5792 c -0.004,4.71856 -0.0376,8.77166 -0.0745,9.00688 -0.0368,0.23522 -0.0623,-3.60591 -0.0566,-8.53586 z m 2.11158,-10.92637 c 0.24855,-0.13302 0.2174,-0.4939 -0.0484,-0.56061 -0.30062,-0.0755 -0.28573,-0.35501 0.0214,-0.40153 0.21893,-0.0332 0.21597,-0.0365 -0.0428,-0.0485 -0.2533,-0.0117 -0.27799,0.009 -0.27799,0.23784 0,0.19482 0.0429,0.25674 0.19245,0.27799 0.30019,0.0426 0.30348,0.3734 0.005,0.48229 -0.13201,0.0481 -0.18938,0.0906 -0.12748,0.0943 0.0619,0.004 0.18699,-0.0331 0.27799,-0.0818 z m 1.85904,-0.0141 c 0.0565,-0.0565 0.10264,-0.14079 0.10264,-0.18742 0,-0.0466 -0.0522,-0.0134 -0.11593,0.0738 -0.14878,0.20346 -0.39393,0.11643 -0.4072,-0.14455 -0.008,-0.15125 -0.0189,-0.16055 -0.0498,-0.0413 -0.0778,0.29962 0.25703,0.51283 0.47032,0.29954 z m -2.76905,-0.46367 c 0.12106,-0.26443 0.22011,-0.49538 0.22011,-0.51321 0,-0.0179 -0.14435,-0.0263 -0.32076,-0.0188 -0.31401,0.0134 -0.31494,0.0144 -0.044,0.0481 l 0.27673,0.0344 -0.21257,0.4195 c -0.21299,0.4203 -0.24416,0.51073 -0.17609,0.51073 0.0201,0 0.13555,-0.21635 0.25661,-0.48078 z m 1.88193,0.34636 c 0.20435,-0.20435 0.16097,-0.892 -0.0563,-0.892 -0.0542,0 -0.0508,0.0435 0.009,0.11577 0.12888,0.1553 0.0952,0.5758 -0.0609,0.76096 -0.15698,0.18614 -0.0745,0.1978 0.108,0.0153 z m -0.27188,-0.29593 c -0.22989,-0.0924 -0.25434,-0.38045 -0.0428,-0.50369 0.0823,-0.0479 0.10927,-0.0883 0.0599,-0.0898 -0.13277,-0.004 -0.2951,0.18292 -0.2951,0.33954 0,0.17605 0.16818,0.34365 0.33787,0.33671 0.0813,-0.003 0.0582,-0.0353 -0.0599,-0.0828 z m 1.26721,-0.36759 c -0.0478,-0.12567 -0.13594,-0.22544 -0.1959,-0.22173 -0.0824,0.005 -0.0835,0.0171 -0.005,0.049 0.0573,0.0232 0.13226,0.18378 0.16655,0.35677 0.0343,0.17299 0.0755,0.25376 0.0917,0.17949 0.0161,-0.0743 -0.01,-0.23785 -0.0575,-0.36352 z m -0.40266,-0.14295 c 0.085,-0.11159 0.0782,-0.11301 -0.052,-0.0109 -0.0823,0.0646 -0.14522,0.19928 -0.13976,0.29937 0.009,0.17285 0.012,0.17339 0.052,0.0109 0.0231,-0.0941 0.086,-0.2288 0.13976,-0.29937 z m -2.87462,-1.17322 c -0.20909,-0.0317 -0.34579,-0.19534 -0.16316,-0.19534 0.0396,0 0.14303,-0.13177 0.22976,-0.29281 0.13147,-0.24414 0.13908,-0.31523 0.0458,-0.42768 -0.12531,-0.15098 -0.39539,-0.17957 -0.47528,-0.0503 -0.0301,0.0486 0.005,0.0627 0.0816,0.0332 0.13667,-0.0524 0.38827,0.0996 0.38827,0.23462 0,0.0411 -0.1392,0.22889 -0.30933,0.4172 l -0.30933,0.34239 0.37348,-0.0128 c 0.25437,-0.009 0.29846,-0.0242 0.13826,-0.0484 z m 0.89525,-9.7e-4 -0.28085,-0.0347 0.2167,-0.25754 c 0.24681,-0.29331 0.27546,-0.51684 0.0864,-0.67377 -0.0962,-0.0798 -0.18024,-0.0844 -0.32075,-0.0176 -0.17853,0.0849 -0.1744,0.0897 0.0661,0.0763 0.36938,-0.0205 0.3862,0.2659 0.0388,0.66153 l -0.2703,0.30786 0.37238,-0.0137 c 0.31933,-0.0117 0.33237,-0.0186 0.0915,-0.0484 z m 0.84839,-0.0133 -0.28781,-0.0529 0.18882,-0.17011 c 0.28808,-0.25955 0.36334,-0.44659 0.2585,-0.64247 -0.0959,-0.17917 -0.38022,-0.23152 -0.46984,-0.0865 -0.0301,0.0486 0.005,0.0627 0.0816,0.0332 0.13666,-0.0524 0.38826,0.0996 0.38826,0.23461 0,0.0411 -0.13919,0.22889 -0.30932,0.41721 l -0.30933,0.34241 0.37348,-0.0113 c 0.35921,-0.0108 0.36248,-0.0133 0.0857,-0.0641 z m 0.90533,0.0139 -0.23783,-0.0359 0.21645,-0.25724 c 0.24656,-0.29303 0.27515,-0.51658 0.0861,-0.67347 -0.0962,-0.0798 -0.18025,-0.0844 -0.32076,-0.0176 -0.17918,0.0852 -0.17547,0.0897 0.0628,0.0763 0.36068,-0.0203 0.37992,0.22467 0.0499,0.63532 l -0.26846,0.33407 0.32479,-0.0128 c 0.26217,-0.0104 0.27893,-0.0197 0.0869,-0.0487 z m 0.86338,-0.46451 0.2298,-0.0128 -0.23522,-0.0356 c -0.18042,-0.0273 -0.23522,-0.0829 -0.23522,-0.23837 0,-0.16463 0.0523,-0.20922 0.27799,-0.23724 0.2737,-0.034 0.27304,-0.0347 -0.0428,-0.0482 l -0.32075,-0.0137 0.0137,0.57736 c 0.008,0.31755 0.0292,0.45227 0.0482,0.29938 0.0288,-0.23195 0.0726,-0.28012 0.2643,-0.29081 z m -2.31486,-1.58805 c -0.26606,-0.0403 -0.29607,-0.12389 -0.10225,-0.28475 0.38554,-0.31997 0.35457,-0.76593 -0.0532,-0.76593 -0.13797,0 -0.25084,0.0331 -0.25084,0.0737 0,0.0405 0.0962,0.0553 0.21383,0.0328 0.18064,-0.0345 0.21384,-0.009 0.21384,0.16692 0,0.11924 -0.10936,0.31259 -0.2566,0.45365 -0.14114,0.13522 -0.25661,0.27713 -0.25661,0.31538 0,0.0382 0.16359,0.0638 0.36352,0.0567 0.25525,-0.009 0.29347,-0.0234 0.12831,-0.0484 z m 0.59973,-0.46305 c -0.022,-0.22911 -0.0319,-0.41656 -0.0219,-0.41656 0.01,0 0.15866,0.21169 0.33046,0.47044 0.17179,0.25874 0.33121,0.47044 0.35425,0.47044 0.023,0 0.0354,-0.27906 0.0275,-0.62013 l -0.0144,-0.62013 -0.0498,0.51321 -0.0498,0.51321 -0.28427,-0.49182 c -0.15634,-0.27051 -0.31993,-0.49183 -0.36352,-0.49183 -0.0436,0 -0.0793,0.27171 -0.0793,0.60379 0,0.42219 0.0287,0.58607 0.0953,0.54487 0.0585,-0.0362 0.0799,-0.21973 0.0553,-0.47549 z"
       id="path255"
       sodipodi:nodetypes="sssssssssssssscssssssssssssssssssssssssccccccccccccccsscccccccsssssssssssssssssssssssscsssssssssssssssssssssssssssssssssssscsssccssssscsscccsssssscsscccssssscsscccsssscssscssssssssssssssscccssssss" /><path
       d="m 122.70435,150.75801 v -0.57388 h 0.40064 c 0.31502,0 0.40063,0.0147 0.40063,0.0689 0,0.052 -0.0753,0.0689 -0.30818,0.0689 h -0.30818 v 0.18364 0.18365 h 0.30818 c 0.1695,0 0.30818,0.0207 0.30818,0.0459 0,0.0252 -0.1402,0.0459 -0.31156,0.0459 h -0.31156 l 0.0188,0.21807 0.0188,0.21808 0.32359,0.0139 c 0.47877,0.0205 0.39286,0.10089 -0.10786,0.10089 h -0.43145 z m -1.70716,-0.032 c -0.16621,-0.0598 -0.26552,-0.25512 -0.19842,-0.39023 0.0274,-0.0552 0.12069,-0.13495 0.20726,-0.1772 l 0.15741,-0.0768 v -1.28021 c 0,-0.99443 -0.0172,-1.27984 -0.077,-1.27857 -0.0424,7.4e-4 -0.24347,0.0315 -0.44687,0.0682 -0.55544,0.0999 -1.69008,0.0883 -2.28609,-0.0234 -1.01327,-0.18989 -2.03717,-0.66881 -2.67808,-1.25266 -0.55178,-0.50266 -1.05967,-1.41198 -1.12122,-2.00741 l -0.0166,-0.16069 -2.94314,-0.0119 c -1.95041,-0.008 -2.94314,0.004 -2.94314,0.0344 0,0.0255 -0.0555,0.0877 -0.12327,0.13817 -0.15739,0.11724 -0.49962,0.12146 -0.63763,0.008 -0.146,-0.12017 -0.12959,-0.35242 0.0329,-0.46517 0.19133,-0.13276 0.4022,-0.11738 0.60475,0.0441 l 0.17273,0.13773 h 2.89429 2.8943 l 0.0714,-0.46802 c 0.12943,-0.84785 0.57717,-1.58739 1.31832,-2.17753 0.65753,-0.52356 1.3544,-0.84254 2.30687,-1.05593 0.4619,-0.10349 0.66235,-0.12206 1.34413,-0.12453 0.57063,-0.002 0.91359,0.0196 1.19148,0.0751 0.21462,0.0429 0.40183,0.0781 0.41605,0.0781 0.0142,0 0.0258,-0.55914 0.0258,-1.24254 v -1.24253 l -0.18491,-0.1159 c -0.33051,-0.20714 -0.1914,-0.56683 0.21922,-0.56683 0.44828,0 0.61795,0.35118 0.27387,0.56683 l -0.18491,0.1159 v 1.26116 1.26117 l 0.39938,0.1392 c 1.0101,0.35209 1.89573,0.99411 2.39695,1.73765 0.0884,0.13112 0.23428,0.42035 0.32422,0.64274 0.21975,0.54343 0.2331,1.40252 0.0305,1.96263 -0.37625,1.04022 -1.35227,1.93199 -2.60624,2.38125 l -0.53697,0.19239 -0.004,1.3355 -0.004,1.3355 0.14833,0.0503 c 0.30029,0.10191 0.25847,0.47221 -0.0636,0.56343 -0.18375,0.052 -0.19973,0.0515 -0.37422,-0.0113 z m 0.41279,-0.12868 c 0.0678,-0.0505 0.12328,-0.12281 0.12328,-0.16069 0,-0.0379 -0.0555,-0.11018 -0.12328,-0.16068 -0.0678,-0.0505 -0.16487,-0.0918 -0.21573,-0.0918 -0.0508,0 -0.14792,0.0413 -0.21572,0.0918 -0.0678,0.0505 -0.12327,0.12281 -0.12327,0.16068 0,0.0379 0.0555,0.11019 0.12327,0.16069 0.0678,0.0505 0.16488,0.0918 0.21572,0.0918 0.0508,0 0.14793,-0.0413 0.21573,-0.0918 z m -0.678,-3.11712 0.40064,-0.0736 v -0.27546 -0.27546 l -0.66255,-0.013 -0.66255,-0.013 0.0938,-0.16727 c 0.0516,-0.092 0.0724,-0.18265 0.0462,-0.20146 -0.0648,-0.0465 -2.26848,-0.82182 -2.33601,-0.82185 -0.0296,0 -0.0485,0.24791 -0.0421,0.55092 0.007,0.31331 -0.0128,0.55094 -0.0453,0.55094 -0.0332,0 -0.0639,-0.54161 -0.0734,-1.29696 l -0.0164,-1.29696 h -1.38561 -1.38561 l 0.0194,0.20042 c 0.0411,0.42399 0.32726,1.04442 0.69594,1.50887 0.30767,0.38761 1.1698,1.0087 1.71828,1.23788 1.12944,0.47194 2.42141,0.60916 3.63512,0.38609 z m 1.00364,-0.26276 c 1.82161,-0.68131 2.93254,-2.17109 2.71305,-3.63824 -0.0804,-0.53731 -0.31094,-1.07028 -0.64548,-1.49213 -0.4715,-0.59453 -1.43551,-1.24158 -2.22561,-1.49385 l -0.28539,-0.0911 -0.0182,0.29657 -0.0182,0.29656 -1.83656,0.65357 -1.83656,0.65356 -0.004,1.53799 -0.004,1.53799 1.13554,0.41882 c 1.43131,0.52792 1.36966,0.51368 1.46687,0.33888 0.0428,-0.0769 0.1,-0.1501 0.12711,-0.16259 0.0271,-0.0125 0.20638,0.12681 0.39833,0.30954 0.19196,0.18273 0.40192,0.35984 0.46656,0.39357 0.0912,0.0476 0.11756,0.11743 0.11756,0.31124 0,0.14135 0.0277,0.2499 0.0637,0.2499 0.035,0 0.20838,-0.0541 0.38522,-0.12026 z m -13.28161,-2.9649 c 0.11258,-0.0838 0.0885,-0.24226 -0.0512,-0.3364 -0.26926,-0.18151 -0.65953,0.11625 -0.42649,0.3254 0.0894,0.0802 0.37586,0.0868 0.47767,0.011 z m 9.01124,-1.66925 c 0,-0.83131 0.0233,-1.43815 0.0547,-1.42371 0.0301,0.0138 0.0592,0.26745 0.0647,0.56356 0.005,0.29611 0.0159,0.54281 0.0232,0.54822 0.007,0.005 0.81025,-0.27158 1.78441,-0.61554 l 1.7712,-0.62537 v -0.26902 c 0,-0.2635 -0.004,-0.27039 -0.21341,-0.33544 -0.4019,-0.12508 -1.32865,-0.18272 -1.96909,-0.12247 -2.3386,0.22001 -4.09746,1.59299 -4.3208,3.37285 l -0.0447,0.3558 h 1.42489 1.42488 z m 3.97115,-4.91295 c 0.11495,-0.0856 0.12661,-0.25461 0.0229,-0.33186 -0.0407,-0.0303 -0.14608,-0.0551 -0.23422,-0.0551 -0.0881,0 -0.19354,0.0248 -0.23422,0.0551 -0.17431,0.12983 -0.0153,0.404 0.23422,0.404 0.063,0 0.15805,-0.0325 0.21132,-0.0721 z m -13.15497,4.87538 v -0.57956 h 0.31223 c 0.42538,0 0.55068,0.0573 0.55068,0.25184 0,0.10117 -0.0383,0.17313 -0.10786,0.20285 -0.0997,0.0426 -0.0974,0.0516 0.0308,0.11966 0.0957,0.0508 0.13868,0.12042 0.13868,0.22456 0,0.21244 -0.17544,0.31394 -0.5865,0.33933 l -0.33805,0.0209 z m 0.65672,0.37866 c 0.10288,-0.0636 0.10782,-0.23265 0.009,-0.3063 -0.0407,-0.0303 -0.1655,-0.0551 -0.27737,-0.0551 h -0.2034 v 0.23529 0.23529 l 0.19444,-0.029 c 0.10695,-0.0159 0.23176,-0.052 0.27737,-0.0802 z m -0.0161,-0.60242 c 0.0984,-0.11705 -0.0254,-0.2379 -0.26164,-0.25541 -0.18948,-0.014 -0.19411,-0.01 -0.19411,0.17507 0,0.18494 0.005,0.18912 0.19411,0.17507 0.10675,-0.008 0.22449,-0.0505 0.26164,-0.0947 z m 13.91941,-4.89991 c -0.23541,-0.10829 -0.32205,-0.25044 -0.32205,-0.52842 0,-0.35461 0.46354,-0.62321 0.95658,-0.55432 0.31499,0.044 0.21481,0.14492 -0.12396,0.12485 -0.23902,-0.0142 -0.29965,0.002 -0.46145,0.12244 -0.13908,0.1036 -0.18626,0.1811 -0.18626,0.30598 0,0.32763 0.20034,0.47897 0.63691,0.48111 0.38504,0.002 0.36356,0.1109 -0.0254,0.12872 -0.18884,0.009 -0.33455,-0.016 -0.47441,-0.0804 z"
       style="fill:#000000;stroke-width:0.053195"
       id="path312"
       sodipodi:nodetypes="ccssscccssscccsscccsscscsssscsssssscccssssssscssscccssssscccssccsssssssssccccccsssssscccsssscsssscccccccssssssssssssssssssscsssscccssssssssccssssssccssscccsssssssssssssssss" /><path
       d="m 95.566738,136.93888 c -0.0898,-0.0568 -0.0439,-0.0851 0.17107,-0.10561 0.22579,-0.0215 0.29375,-0.067 0.29375,-0.19653 0,-0.0927 -0.0887,-0.21276 -0.19708,-0.2668 l -0.19709,-0.0983 0.18314,-0.0479 c 0.24873,-0.065 0.19011,-0.36189 -0.0696,-0.3526 -0.10438,0.004 -0.18978,-0.0251 -0.18978,-0.0642 0,-0.039 0.11668,-0.0709 0.25929,-0.0709 0.29554,0 0.41857,0.1958 0.27125,0.43171 -0.0732,0.11726 -0.0665,0.17629 0.0292,0.25575 0.17712,0.14699 0.15421,0.30843 -0.0656,0.46241 -0.21709,0.15206 -0.31509,0.16267 -0.48855,0.0529 z m 2.25717,-0.1297 c -0.42258,-0.42259 -0.12373,-1.15861 0.47044,-1.15861 0.14327,0 0.26049,0.0385 0.26049,0.0855 0,0.047 -0.13336,0.0855 -0.29636,0.0855 -0.32453,0 -0.47345,0.17119 -0.47345,0.54425 0,0.28633 0.21298,0.48217 0.52437,0.48217 0.14858,0 0.23341,0.0358 0.20268,0.0855 -0.0968,0.15668 -0.47554,0.0882 -0.68817,-0.12441 z m 1.09211,0.0768 c -0.23735,-0.16624 -0.24602,-0.49521 -0.0191,-0.72219 0.20083,-0.20083 0.33598,-0.21422 0.55389,-0.0549 0.31597,0.23104 0.12806,0.91022 -0.25183,0.91022 -0.0511,0 -0.17847,-0.0599 -0.28302,-0.13315 z m 0.52777,-0.23037 c 0.12887,-0.20558 -0.0335,-0.44906 -0.29952,-0.44906 -0.21268,0 -0.31542,0.25505 -0.21167,0.52543 0.0639,0.16638 0.38952,0.11772 0.51119,-0.0764 z m 0.4511,0.3065 c -0.0911,-0.0911 -0.0658,-1.29602 0.0285,-1.3543 0.0545,-0.0337 0.0855,0.21295 0.0855,0.67923 0,0.73345 -0.008,0.78107 -0.114052,0.67507 z m 0.456192,-0.67002 c 0,-0.46965 0.031,-0.71796 0.0855,-0.68428 0.047,0.0291 0.0855,0.337 0.0855,0.68428 0,0.34728 -0.0385,0.6552 -0.0855,0.68428 -0.0545,0.0337 -0.0855,-0.21464 -0.0855,-0.68428 z m 0.51321,0.55597 c -0.19414,-0.19413 -0.20296,-0.24712 -0.0904,-0.54308 0.10838,-0.28508 0.3982,-0.36988 0.60977,-0.17842 0.272,0.24616 0.20656,0.37936 -0.18635,0.37936 -0.28519,0 -0.34152,0.0255 -0.29937,0.1353 0.0285,0.0744 0.0519,0.1514 0.0519,0.17107 0,0.0197 0.11775,0.0358 0.26166,0.0358 0.15265,0 0.23963,0.0356 0.20879,0.0855 -0.0872,0.14101 -0.37349,0.0969 -0.55598,-0.0855 z m 0.49225,-0.53459 c -0.0527,-0.15993 -0.37709,-0.17921 -0.43591,-0.0259 -0.0392,0.1022 0.009,0.13282 0.21008,0.13282 0.17059,0 0.24884,-0.037 0.22583,-0.10692 z m 0.5532,0.57251 c -0.26761,-0.18744 -0.25559,-0.58981 0.0231,-0.7724 0.13219,-0.0866 0.27028,-0.11475 0.36352,-0.0741 0.12256,0.0535 0.10291,0.0751 -0.10626,0.11717 -0.22626,0.0454 -0.25661,0.0869 -0.25661,0.35009 0,0.26253 0.0285,0.30181 0.23668,0.32573 0.13017,0.015 0.2145,0.0631 0.1874,0.10692 -0.0721,0.11672 -0.23213,0.0976 -0.44781,-0.0534 z m 0.89334,0.0761 c -0.0314,-0.0314 -0.057,-0.22061 -0.057,-0.42055 0,-0.19993 -0.0358,-0.37635 -0.0796,-0.39203 -0.0444,-0.0159 -0.0349,-0.0868 0.0214,-0.1603 0.0901,-0.11763 0.11703,-0.11533 0.25063,0.0214 0.12377,0.12665 0.12747,0.15317 0.0214,0.15317 -0.0898,0 -0.1283,0.0906 -0.1283,0.30206 0,0.18959 0.0478,0.32039 0.1283,0.35129 0.0706,0.0271 0.1283,0.0836 0.1283,0.12562 0,0.089 -0.20176,0.10272 -0.28512,0.0194 z m 0.59775,-0.0994 c -0.20819,-0.23004 -0.17939,-0.58466 0.0602,-0.74166 0.33501,-0.21951 0.64981,-0.0264 0.65225,0.40015 0.003,0.43967 -0.43421,0.649 -0.71248,0.34151 z m 0.54272,-0.18571 c 0.12921,-0.24144 -0.0368,-0.53218 -0.28378,-0.49702 -0.19076,0.0271 -0.28961,0.30235 -0.19611,0.546 0.069,0.17968 0.37419,0.14852 0.47989,-0.049 z m 0.42767,-0.18023 c 0,-0.33598 0.0272,-0.42638 0.11789,-0.39159 0.0648,0.0249 0.16106,0.002 0.21383,-0.0507 0.0662,-0.0662 0.096,-0.0674 0.096,-0.004 0,0.0507 -0.0577,0.14008 -0.1283,0.19865 -0.0706,0.0586 -0.1283,0.23648 -0.1283,0.39538 0,0.15889 -0.0385,0.2889 -0.0855,0.2889 -0.047,0 -0.0855,-0.19657 -0.0855,-0.43683 z m -7.719532,0.11835 c 0.15289,-0.019 0.40308,-0.019 0.55598,0 0.15289,0.019 0.0278,0.0345 -0.27799,0.0345 -0.30579,0 -0.43089,-0.0155 -0.27799,-0.0345 z m 0,-0.34214 c 0.15289,-0.019 0.40308,-0.019 0.55598,0 0.15289,0.019 0.0278,0.0345 -0.27799,0.0345 -0.30579,0 -0.43089,-0.0155 -0.27799,-0.0345 z m -1.17611,-1.70261 c 0,-0.0296 0.13703,-0.20545 0.30451,-0.39083 0.37161,-0.41134 0.35718,-0.60872 -0.0489,-0.66853 -0.2331,-0.0343 -0.26411,-0.0577 -0.14172,-0.10691 0.23715,-0.0953 0.3734,-0.0766 0.52149,0.0714 0.19364,0.19364 0.16768,0.33496 -0.1222,0.66511 -0.14113,0.16073 -0.2566,0.3136 -0.2566,0.33969 0,0.0261 0.12509,0.063 0.27799,0.0819 0.21367,0.0265 0.18398,0.0377 -0.1283,0.0482 -0.22347,0.008 -0.4063,-0.0105 -0.4063,-0.0401 z m 2.22391,-0.58773 v -0.64149 h 0.2889 c 0.38042,0 0.55739,0.20005 0.39997,0.45212 -0.0814,0.13034 -0.086,0.19077 -0.0162,0.21402 0.12827,0.0428 0.12465,0.38414 -0.005,0.51424 -0.0565,0.0565 -0.22967,0.10265 -0.38491,0.10265 h -0.28227 z m 0.55282,0.41862 c 0.16369,-0.16369 0.0388,-0.37585 -0.22115,-0.37585 -0.12142,0 -0.1606,0.0626 -0.1606,0.2566 0,0.28897 0.16157,0.33943 0.38175,0.11925 z m 0.003,-0.76076 c 0,-0.11228 -0.0661,-0.18046 -0.19246,-0.1984 -0.15787,-0.0224 -0.19245,0.0132 -0.19245,0.1984 0,0.18517 0.0346,0.22083 0.19245,0.1984 0.12632,-0.0179 0.19246,-0.0861 0.19246,-0.1984 z m 0.43122,0.83376 c -0.062,-0.16157 0.22009,-0.44885 0.44073,-0.44885 0.0693,0 0.10892,-0.0481 0.0881,-0.10692 -0.0208,-0.0588 -0.14037,-0.0995 -0.26568,-0.0906 -0.12531,0.009 -0.20543,-0.0198 -0.17806,-0.0641 0.0705,-0.1141 0.41372,-0.0999 0.53577,0.0221 0.0565,0.0565 0.10264,0.26185 0.10264,0.45642 0,0.35194 -0.002,0.35385 -0.33336,0.36684 -0.24514,0.01 -0.34838,-0.0261 -0.39014,-0.13491 z m 0.52371,-0.0697 c 0.0283,-0.0737 0.0154,-0.1701 -0.0287,-0.21416 -0.10802,-0.10802 -0.41529,0.12065 -0.33554,0.2497 0.0879,0.14217 0.30411,0.12107 0.36421,-0.0355 z m 0.4564,0.15432 c 0,-0.0421 0.0827,-0.0736 0.18379,-0.0698 0.267872,0.01 0.284102,-0.16126 0.0264,-0.27867 -0.3075,-0.14011 -0.26334,-0.47332 0.0678,-0.51142 0.129382,-0.0149 0.235222,0.0104 0.235222,0.0562 0,0.0458 -0.077,0.0631 -0.17107,0.0385 -0.232962,-0.0609 -0.228812,0.1949 0.005,0.32013 0.26112,0.13975 0.18851,0.46014 -0.112112,0.49473 -0.12937,0.0149 -0.23522,-0.007 -0.23522,-0.0496 z m 0.807702,-0.14401 c -0.11797,-0.18006 -0.12113,-0.24277 -0.0226,-0.44907 0.18846,-0.39442 0.75448,-0.34185 0.75448,0.0701 0,0.13034 -0.0645,0.1606 -0.34214,0.1606 -0.48121,0 -0.41734,0.27261 0.0855,0.36506 0.18172,0.0334 0.17238,0.0411 -0.0622,0.051 -0.20608,0.009 -0.31076,-0.0414 -0.41314,-0.19763 z m 0.56086,-0.43492 c 0,-0.17863 -0.23052,-0.25375 -0.38506,-0.1255 -0.16602,0.13779 -0.0845,0.25649 0.17627,0.25649 0.13047,0 0.20879,-0.0491 0.20879,-0.13099 z m -4.383672,0.32571 c 0.15289,-0.019 0.40308,-0.019 0.55598,0 0.15289,0.019 0.0278,0.0345 -0.27799,0.0345 -0.30579,0 -0.43089,-0.0155 -0.27799,-0.0345 z m 0,-0.42767 c 0.15289,-0.019 0.40308,-0.019 0.55598,0 0.15289,0.019 0.0278,0.0345 -0.27799,0.0345 -0.30579,0 -0.43089,-0.0155 -0.27799,-0.0345 z m -0.83397,-2.11658 c 0,-0.4913 -0.0168,-0.54701 -0.14968,-0.4972 -0.13109,0.0491 -0.1351,0.0382 -0.0323,-0.0882 0.25493,-0.3134 0.35305,-0.17522 0.35305,0.4972 0,0.37065 -0.0361,0.64151 -0.0855,0.64151 -0.0482,0 -0.0855,-0.24146 -0.0855,-0.55329 z m 1.88177,-0.13099 v -0.68428 h 0.34214 c 0.18818,0 0.34214,0.0385 0.34214,0.0855 0,0.047 -0.11547,0.0855 -0.2566,0.0855 -0.21491,0 -0.25661,0.0339 -0.25661,0.20842 0,0.17103 0.0499,0.2146 0.27799,0.24291 l 0.27799,0.0345 -0.27799,0.0137 c -0.24881,0.0122 -0.27799,0.0406 -0.27799,0.27029 0,0.2281 0.0285,0.25661 0.25661,0.25661 0.14113,0 0.2566,0.0385 0.2566,0.0855 0,0.047 -0.15396,0.0855 -0.34214,0.0855 h -0.34214 z m 0.94089,0.22706 v -0.45722 l 0.59808,-0.009 c 0.66253,-0.01 0.770482,0.0701 0.770482,0.57046 0,0.43085 -0.159602,0.38716 -0.187692,-0.0514 -0.022,-0.34265 -0.0537,-0.40839 -0.19722,-0.40839 -0.1434,0 -0.17529,0.0657 -0.19714,0.40629 -0.0144,0.22346 -0.0603,0.40629 -0.10224,0.40629 -0.0419,0 -0.0879,-0.18283 -0.10223,-0.40629 -0.0219,-0.34058 -0.0537,-0.40629 -0.19714,-0.40629 -0.1434,0 -0.17528,0.0657 -0.19714,0.40629 -0.0357,0.55634 -0.18776,0.51509 -0.18776,-0.0509 z m 1.625162,-0.0132 c 0,-0.25875 0.0385,-0.47045 0.0855,-0.47045 0.047,0 0.0855,0.2117 0.0855,0.47045 0,0.25874 -0.0385,0.47044 -0.0855,0.47044 -0.0471,0 -0.0855,-0.2117 -0.0855,-0.47044 z m 0.57024,0.41342 c -0.0314,-0.0314 -0.057,-0.22061 -0.057,-0.42055 0,-0.21079 -0.0449,-0.38165 -0.10692,-0.40667 -0.0855,-0.0345 -0.0855,-0.0445 0,-0.0499 0.0588,-0.004 0.10692,-0.0645 0.10692,-0.13506 0,-0.0706 0.0385,-0.1283 0.0855,-0.1283 0.047,0 0.0855,0.0549 0.0855,0.12203 0,0.0671 0.0674,0.13963 0.14969,0.16115 0.14256,0.0373 0.14256,0.0396 0,0.049 -0.11596,0.008 -0.14969,0.087 -0.14969,0.35206 0,0.18818 0.0385,0.34214 0.0855,0.34214 0.047,0 0.0855,0.0385 0.0855,0.0855 0,0.0962 -0.19766,0.11597 -0.28511,0.0285 z m 0.62475,-0.11872 c -0.0517,-0.0967 -0.0831,-0.26024 -0.0698,-0.36353 0.0134,-0.10328 -0.004,-0.23323 -0.0386,-0.28879 -0.0346,-0.0555 -0.0232,-0.12557 0.0254,-0.15559 0.0486,-0.03 0.0662,-0.0904 0.0391,-0.13422 -0.0271,-0.0438 -0.008,-0.0796 0.0414,-0.0796 0.0498,0 0.0906,0.0549 0.0906,0.12203 0,0.0671 0.0674,0.13963 0.14969,0.16115 0.14256,0.0373 0.14256,0.0396 0,0.049 -0.20058,0.0133 -0.22155,0.6942 -0.0214,0.6942 0.0706,0 0.1283,0.0385 0.1283,0.0855 0,0.15444 -0.24853,0.0894 -0.34464,-0.0902 z m 0.6654,0.0833 c -0.17421,-0.10147 -0.2049,-0.588 -0.047,-0.74585 0.1487,-0.1487 0.55392,-0.1272 0.61526,0.0326 0.0938,0.24435 0.0554,0.29238 -0.2332,0.29238 -0.15681,0 -0.31044,0.0253 -0.3414,0.0563 -0.0973,0.0973 0.1253,0.28586 0.33762,0.28586 0.11185,0 0.20336,0.0385 0.20336,0.0855 0,0.11031 -0.34095,0.10594 -0.53459,-0.007 z m 0.42767,-0.61328 c -0.0196,-0.0588 -0.1062,-0.10691 -0.19245,-0.10691 -0.0862,0 -0.17285,0.0481 -0.19245,0.10691 -0.0226,0.0677 0.048,0.10692 0.19245,0.10692 0.14446,0 0.21503,-0.0392 0.19245,-0.10692 z m 0.44912,0.26166 c 6e-5,-0.43443 0.0102,-0.4547 0.234,-0.4677 0.20894,-0.0122 0.21807,-0.002 0.0855,0.095 -0.0931,0.068 -0.14846,0.22282 -0.14846,0.41483 0,0.16845 -0.0385,0.33007 -0.0855,0.35914 -0.0529,0.0327 -0.0855,-0.12027 -0.0855,-0.40124 z m -6.351032,0.04 c 0.15289,-0.019 0.40308,-0.019 0.55598,0 0.15289,0.019 0.0278,0.0345 -0.27799,0.0345 -0.30579,0 -0.43089,-0.0155 -0.27799,-0.0345 z m 0,-0.34214 c 0.15289,-0.019 0.40308,-0.019 0.55598,0 0.15289,0.019 0.0278,0.0345 -0.27799,0.0345 -0.30579,0 -0.43089,-0.0155 -0.27799,-0.0345 z m 3.613852,-0.45133 c 0,-0.047 0.0385,-0.0855 0.0855,-0.0855 0.047,0 0.0855,0.0385 0.0855,0.0855 0,0.047 -0.0385,0.0855 -0.0855,0.0855 -0.0471,0 -0.0855,-0.0385 -0.0855,-0.0855 z"
       style="fill:#000000;stroke-width:0.0855349"
       id="path340" /></g></svg>
