<?xml version="1.0" encoding="UTF-8" standalone="no"?>
<!-- Created with Inkscape (http://www.inkscape.org/) -->

<svg
   width="51.692924mm"
   height="49.79427mm"
   viewBox="0 0 51.692924 49.79427"
   version="1.1"
   id="svg5"
   xml:space="preserve"
   inkscape:version="1.2.2 (732a01da63, 2022-12-09, custom)"
   sodipodi:docname="transistor.svg"
   xmlns:inkscape="http://www.inkscape.org/namespaces/inkscape"
   xmlns:sodipodi="http://sodipodi.sourceforge.net/DTD/sodipodi-0.dtd"
   xmlns="http://www.w3.org/2000/svg"
   xmlns:svg="http://www.w3.org/2000/svg"><sodipodi:namedview
     id="namedview7"
     pagecolor="#505050"
     bordercolor="#eeeeee"
     borderopacity="1"
     inkscape:showpageshadow="0"
     inkscape:pageopacity="0"
     inkscape:pagecheckerboard="0"
     inkscape:deskcolor="#505050"
     inkscape:document-units="mm"
     showgrid="false"
     inkscape:zoom="1.0129245"
     inkscape:cx="215.71203"
     inkscape:cy="116.00075"
     inkscape:window-width="1920"
     inkscape:window-height="939"
     inkscape:window-x="0"
     inkscape:window-y="0"
     inkscape:window-maximized="1"
     inkscape:current-layer="layer1" /><defs
     id="defs2" /><g
     inkscape:label="Layer 1"
     inkscape:groupmode="layer"
     id="layer1"
     transform="translate(-79.348659,-111.00815)"><path
       style="fill:#000000;stroke-width:0.264583"
       d="m 170.82647,185.11029 c 0,-1.9647 -0.0157,-2.0135 -0.59532,-1.85399 -0.57855,0.15921 -0.58085,0.15226 -0.0817,-0.24676 1.01672,-0.81278 1.2062,-0.54722 1.2062,1.69048 0,1.15558 -0.11906,2.17464 -0.26458,2.26457 -0.16756,0.10356 -0.26458,-0.57646 -0.26458,-1.8543 z m 7.40831,1.76261 c 1e-5,-0.0504 0.47627,-0.63274 1.05835,-1.29402 0.58209,-0.66128 1.05834,-1.40911 1.05834,-1.66185 0,-0.70058 -0.65027,-1.09663 -1.49605,-0.91118 -0.57594,0.12628 -0.65963,0.0988 -0.35604,-0.11685 0.53396,-0.37931 1.67212,-0.36416 2.06375,0.0275 0.56897,0.56897 0.33632,1.51223 -0.63933,2.59216 l -0.95682,1.05909 h 0.95682 c 0.52626,0 0.95659,0.0893 0.95628,0.19844 -2.6e-4,0.10914 -0.59562,0.19844 -1.32293,0.19844 -0.72731,0 -1.32238,-0.0413 -1.32237,-0.0917 z m 8.79741,0.0488 c -0.61314,-0.24741 -0.33678,-0.52776 0.41193,-0.41787 1.43499,0.21061 1.77215,-1.34715 0.36786,-1.69961 -0.67558,-0.16956 -0.67666,-0.17389 -0.0973,-0.38823 1.30524,-0.48284 0.88071,-1.69409 -0.4819,-1.37493 -0.50918,0.11926 -0.5945,0.0814 -0.36657,-0.16257 0.1634,-0.17492 0.69918,-0.27958 1.19062,-0.2326 0.7002,0.0669 0.91225,0.21738 0.98,0.69529 0.0476,0.33543 -0.0432,0.76612 -0.2017,0.95708 -0.21279,0.2564 -0.1835,0.43407 0.11198,0.6793 1.13046,0.93819 -0.44474,2.53739 -1.91497,1.94414 z m 1.82772,-11.73102 c 0,-0.3638 0.0601,-0.51263 0.13345,-0.33073 0.0734,0.1819 0.0734,0.47956 0,0.66146 -0.0734,0.1819 -0.13345,0.0331 -0.13345,-0.33073 z m -16.61026,-27.85902 c 0.0318,-27.52951 0.0283,-27.7274 -0.49714,-27.82729 -0.29104,-0.0553 -0.82683,-0.0868 -1.19063,-0.0699 -0.3638,0.0169 -1.58419,0.008 -2.71198,-0.0201 l -2.05052,-0.0508 V 105.73753 92.111491 h 13.75834 13.75833 v 13.614449 13.61445 l -1.91823,0.0777 -1.91823,0.0777 -0.13415,27.38438 -0.13414,27.38437 -0.0643,-27.31318 -0.0643,-27.31319 -0.59532,-0.11892 c -0.32742,-0.0654 -2.14312,-0.0974 -4.03489,-0.0712 l -3.43959,0.0477 -0.13351,27.64896 -0.13351,27.64896 -0.13107,-27.64896 -0.13107,-27.64896 -3.90261,-0.0795 -3.9026,-0.0795 -0.0232,26.53783 c -0.0128,14.59581 -0.11645,27.13315 -0.23046,27.86076 -0.114,0.7276 -0.19287,-11.15409 -0.17525,-26.40377 z m 6.53171,-33.79825 c 0.76885,-0.41148 0.67249,-1.52777 -0.14969,-1.73413 -0.9299,-0.23339 -0.88384,-1.09814 0.0662,-1.24206 0.67722,-0.10259 0.66805,-0.11296 -0.13229,-0.14986 -0.78354,-0.0361 -0.8599,0.0292 -0.8599,0.7357 0,0.60263 0.13262,0.79419 0.59531,0.8599 0.92855,0.13187 0.93874,1.15503 0.0149,1.49186 -0.40835,0.14889 -0.58581,0.2801 -0.39434,0.29159 0.19147,0.0115 0.57842,-0.10236 0.85989,-0.253 z m 5.75052,-0.0436 c 0.17463,-0.17463 0.3175,-0.43551 0.3175,-0.57974 0,-0.14423 -0.16137,-0.0415 -0.35861,0.2282 -0.4602,0.62935 -1.21853,0.36015 -1.25958,-0.44714 -0.0238,-0.46787 -0.0584,-0.49663 -0.15414,-0.12788 -0.2405,0.9268 0.79506,1.58633 1.45483,0.92656 z m -8.56544,-1.43426 c 0.37447,-0.81796 0.68086,-1.53233 0.68086,-1.5875 0,-0.0552 -0.44649,-0.0813 -0.99219,-0.058 -0.97132,0.0414 -0.97418,0.0446 -0.13618,0.14876 l 0.856,0.10643 -0.65756,1.29764 c -0.65882,1.30011 -0.75525,1.57983 -0.54468,1.57983 0.0621,0 0.41928,-0.66924 0.79375,-1.48718 z m 5.82133,1.0714 c 0.63213,-0.63213 0.49792,-2.75922 -0.17409,-2.75922 -0.16778,0 -0.15706,0.13448 0.0285,0.35813 0.39867,0.48037 0.29449,1.78111 -0.18853,2.35384 -0.48559,0.57578 -0.23052,0.61185 0.33407,0.0473 z m -0.84099,-0.91539 c -0.71111,-0.28582 -0.78676,-1.17686 -0.13229,-1.55806 0.25466,-0.14833 0.338,-0.2733 0.1852,-0.27773 -0.41068,-0.0119 -0.91281,0.56585 -0.91281,1.05029 0,0.54458 0.52022,1.06303 1.04511,1.04156 0.25156,-0.0103 0.17997,-0.10927 -0.18521,-0.25606 z m 3.91983,-1.13707 c -0.14779,-0.38872 -0.42049,-0.69736 -0.60599,-0.68588 -0.25476,0.0158 -0.25841,0.0529 -0.0149,0.15155 0.17729,0.0719 0.40913,0.56848 0.5152,1.10359 0.10606,0.53511 0.2337,0.78496 0.28363,0.55522 0.0499,-0.22975 -0.0301,-0.73576 -0.17792,-1.12448 z m -1.24553,-0.44218 c 0.26288,-0.34517 0.24193,-0.34957 -0.16076,-0.0337 -0.25466,0.19972 -0.44921,0.61644 -0.43233,0.92604 0.0292,0.53467 0.0372,0.53636 0.16076,0.0337 0.0715,-0.29104 0.26609,-0.70776 0.43233,-0.92604 z m -8.89201,-3.62909 c -0.64675,-0.098 -1.0696,-0.60424 -0.50468,-0.60424 0.1226,0 0.44242,-0.40759 0.71069,-0.90575 0.40669,-0.75518 0.43022,-0.9751 0.14156,-1.32292 -0.38761,-0.46704 -1.22305,-0.55547 -1.47018,-0.15561 -0.093,0.15044 0.0142,0.19406 0.25234,0.10269 0.42274,-0.16222 1.201,0.30805 1.201,0.72572 0,0.12728 -0.43057,0.70802 -0.95683,1.29052 l -0.95683,1.0591 1.15527,-0.0396 c 0.78683,-0.027 0.92322,-0.0748 0.42766,-0.14986 z m 2.76927,-0.003 -0.86876,-0.10738 0.67032,-0.79662 c 0.76344,-0.90729 0.85206,-1.59873 0.26714,-2.08417 -0.2975,-0.24691 -0.55754,-0.26117 -0.99218,-0.0544 -0.55224,0.26269 -0.53947,0.27743 0.20446,0.23606 1.14262,-0.0635 1.19463,0.8225 0.12012,2.0463 l -0.83612,0.95229 1.15188,-0.0423 c 0.98779,-0.0363 1.02812,-0.0576 0.28314,-0.14971 z m 2.6243,-0.0412 -0.89028,-0.16361 0.58406,-0.5262 c 0.89111,-0.80285 1.12391,-1.38142 0.79963,-1.98734 -0.29661,-0.55421 -1.17612,-0.71616 -1.45334,-0.26761 -0.093,0.15044 0.0142,0.19406 0.25234,0.10269 0.42274,-0.16222 1.201,0.30805 1.201,0.72572 0,0.12728 -0.43057,0.70802 -0.95683,1.29052 l -0.95683,1.05919 1.15527,-0.0348 c 1.11114,-0.0335 1.12126,-0.0411 0.26498,-0.19844 z m 2.80044,0.043 -0.73568,-0.11101 0.66953,-0.79569 c 0.7627,-0.90642 0.85112,-1.59794 0.26636,-2.08324 -0.2975,-0.24691 -0.55754,-0.26117 -0.99218,-0.0544 -0.55425,0.26365 -0.54278,0.27758 0.19436,0.23606 1.11568,-0.0628 1.17521,0.69497 0.1544,1.96523 l -0.83042,1.03336 1.00465,-0.0396 c 0.81097,-0.032 0.86283,-0.061 0.26898,-0.15064 z m 2.67067,-1.43686 0.71084,-0.0396 -0.7276,-0.11022 c -0.5581,-0.0846 -0.72761,-0.25632 -0.72761,-0.73735 0,-0.50924 0.16164,-0.64717 0.8599,-0.73383 0.84662,-0.10506 0.84457,-0.10737 -0.13229,-0.14905 l -0.99219,-0.0423 0.0423,1.78594 c 0.0233,0.98226 0.0904,1.39898 0.14906,0.92604 0.089,-0.71748 0.22444,-0.86647 0.81755,-0.89954 z m -7.16051,-4.91227 c -0.82299,-0.12467 -0.91583,-0.38323 -0.31629,-0.880809 1.1926,-0.98977 1.09678,-2.36926 -0.16456,-2.36926 -0.42676,0 -0.77592,0.10255 -0.77592,0.22789 0,0.12534 0.29765,0.17099 0.66145,0.10145 0.55875,-0.10681 0.66146,-0.0266 0.66146,0.51635 0,0.36885 -0.33829,0.96691 -0.79375,1.40327 -0.43656,0.418249 -0.79375,0.857239 -0.79375,0.975539 0,0.11829 0.50602,0.19724 1.12448,0.17544 0.78954,-0.0278 0.90776,-0.0725 0.39688,-0.14987 z m 1.85513,-1.432369 c -0.0681,-0.70869 -0.0986,-1.28853 -0.0678,-1.28853 0.0308,0 0.49079,0.65484 1.0222,1.4552 0.53141,0.800369 1.02452,1.455209 1.09579,1.455209 0.0713,0 0.10958,-0.863199 0.0851,-1.918229 l -0.0445,-1.91823 -0.15395,1.5875 -0.15396,1.587499 -0.87932,-1.521349 c -0.48362,-0.83675 -0.98964,-1.52135 -1.12448,-1.52135 -0.13484,0 -0.24516,0.84046 -0.24516,1.86769 0,1.305929 0.0887,1.812869 0.29494,1.685419 0.18109,-0.11192 0.24715,-0.67969 0.17113,-1.470829 z"
       id="path255"
       sodipodi:nodetypes="sssssssssssssscssssssssssssssssssssssssccccccccccccccsscccccccsssssssssssssssssssssssscsssssssssssssssssssssssssssssssssssscsssccssssscsscccsssssscsscccssssscsscccsssscssscssssssssssssssscccssssss" /><path
       d="m 122.55784,155.52436 v -1.55512 h 1.08567 c 0.85367,0 1.08566,0.0399 1.08566,0.18662 0,0.141 -0.20415,0.18661 -0.83513,0.18661 h -0.83512 v 0.49764 0.49764 h 0.83512 c 0.45932,0 0.83513,0.056 0.83513,0.1244 0,0.0684 -0.37993,0.12441 -0.84428,0.12441 h -0.84428 l 0.0509,0.59094 0.0509,0.59095 0.87688,0.0376 c 1.29738,0.0556 1.06457,0.27341 -0.29229,0.27341 h -1.16917 z m -4.62612,-0.0867 c -0.45041,-0.16209 -0.71952,-0.69135 -0.53769,-1.05747 0.0743,-0.14961 0.32704,-0.3657 0.56164,-0.4802 l 0.42655,-0.20817 v -3.46915 c 0,-2.69474 -0.0466,-3.46816 -0.20878,-3.46472 -0.11483,0.002 -0.65975,0.0855 -1.21093,0.18467 -1.50516,0.27071 -4.57986,0.23921 -6.19496,-0.0635 -2.74579,-0.51456 -5.52041,-1.81237 -7.25715,-3.3945 -1.49526,-1.36213 -2.87156,-3.82623 -3.03834,-5.43977 l -0.045,-0.43544 -7.975439,-0.0323 c -5.28531,-0.0214 -7.97544,0.0101 -7.97544,0.0933 0,0.0691 -0.15032,0.23758 -0.33404,0.37443 -0.42651,0.31768 -1.35389,0.32912 -1.72788,0.0213 -0.39565,-0.32564 -0.35116,-0.95502 0.0891,-1.26055 0.51846,-0.35977 1.08989,-0.31809 1.63876,0.11956 l 0.46807,0.37323 h 7.84308 7.843089 l 0.19361,-1.26827 c 0.35075,-2.29752 1.56404,-4.30157 3.57245,-5.90076 1.7818,-1.41877 3.6702,-2.28315 6.25124,-2.86141 1.25168,-0.28042 1.79488,-0.33075 3.64239,-0.33745 1.54631,-0.006 2.47569,0.053 3.22872,0.20364 0.58157,0.11634 1.0889,0.21152 1.12742,0.21152 0.0385,0 0.07,-1.51518 0.07,-3.36708 v -3.36708 l -0.50108,-0.31405 c -0.89562,-0.56133 -0.51865,-1.53602 0.59406,-1.53602 1.21476,0 1.67455,0.95163 0.74215,1.53602 l -0.50108,0.31405 v 3.41756 3.41756 l 1.08225,0.37722 c 2.73722,0.95409 5.13714,2.69388 6.49537,4.70875 0.23951,0.3553 0.63486,1.13908 0.87856,1.74173 0.59549,1.4726 0.63168,3.8006 0.0827,5.31842 -1.01958,2.81883 -3.66443,5.23537 -7.06248,6.4528 l -1.4551,0.52133 -0.0107,3.619 -0.0107,3.619 0.40194,0.1364 c 0.81375,0.27618 0.70042,1.27962 -0.17243,1.52681 -0.49792,0.14101 -0.54123,0.1397 -1.01407,-0.0305 z m 1.1186,-0.34872 c 0.18373,-0.13685 0.33405,-0.3328 0.33405,-0.43544 0,-0.10263 -0.15032,-0.29858 -0.33405,-0.43543 -0.18373,-0.13685 -0.44679,-0.24882 -0.58459,-0.24882 -0.13779,0 -0.40086,0.11197 -0.58459,0.24882 -0.18372,0.13685 -0.33404,0.3328 -0.33404,0.43543 0,0.10264 0.15032,0.29859 0.33404,0.43544 0.18373,0.13684 0.4468,0.24882 0.58459,0.24882 0.1378,0 0.40086,-0.11198 0.58459,-0.24882 z m -1.83727,-8.4469 1.08566,-0.19954 v -0.74645 -0.74646 l -1.7954,-0.0353 -1.7954,-0.0353 0.25425,-0.45326 c 0.13984,-0.24928 0.19616,-0.49496 0.12515,-0.54593 -0.17568,-0.12613 -6.14724,-2.22702 -6.33022,-2.22708 -0.0802,-2e-5 -0.13149,0.67179 -0.11396,1.49291 0.0181,0.849 -0.0348,1.49295 -0.12266,1.49295 -0.09,0 -0.17306,-1.46767 -0.19889,-3.51456 l -0.0444,-3.51455 h -3.75479 -3.75478 l 0.0526,0.54311 c 0.11138,1.14895 0.88682,2.8302 1.88588,4.0888 0.83375,1.05035 3.16998,2.73341 4.65627,3.35446 3.0606,1.27887 6.56165,1.65071 9.85061,1.04622 z m 2.7197,-0.71204 c 4.93626,-1.84623 7.94672,-5.88329 7.35194,-9.85905 -0.21782,-1.45603 -0.8426,-2.90028 -1.74916,-4.04342 -1.27769,-1.61109 -3.89,-3.3645 -6.03104,-4.0481 l -0.77337,-0.24692 -0.0492,0.80364 -0.0492,0.80364 -4.97679,1.77106 -4.97679,1.77106 -0.0109,4.1677 -0.0109,4.16771 3.07715,1.13495 c 3.87861,1.43057 3.71156,1.39198 3.97497,0.9183 0.11595,-0.20849 0.27094,-0.40675 0.34445,-0.44059 0.0735,-0.0339 0.55925,0.34362 1.07942,0.8388 0.52017,0.49518 1.08912,0.97512 1.26431,1.06652 0.24704,0.12889 0.31855,0.31821 0.31855,0.84339 0,0.38305 0.075,0.6772 0.17258,0.6772 0.0949,0 0.56468,-0.14665 1.0439,-0.32589 z m -35.991049,-8.0344 c 0.30506,-0.22723 0.23975,-0.6565 -0.13868,-0.9116 -0.72967,-0.49186 -1.78723,0.31503 -1.15573,0.88179 0.24226,0.21744 1.01851,0.23531 1.29441,0.0298 z m 24.419029,-4.5234 c 0,-2.25272 0.0632,-3.89715 0.14817,-3.85802 0.0815,0.0375 0.16037,0.72473 0.17529,1.52714 0.0149,0.80241 0.0432,1.47093 0.0629,1.48559 0.0197,0.0147 2.19565,-0.73594 4.83546,-1.668 l 4.79967,-1.69466 v -0.72901 c 0,-0.71405 -0.0119,-0.7327 -0.57831,-0.90899 -1.08907,-0.33894 -3.60043,-0.49513 -5.33593,-0.33186 -6.33723,0.59619 -11.10346,4.31674 -11.70866,9.13987 l -0.12099,0.96417 h 3.8612 3.8612 z m 10.76117,-13.31332 c 0.31151,-0.23203 0.3431,-0.68995 0.0621,-0.8993 -0.11024,-0.0821 -0.39586,-0.14929 -0.6347,-0.14929 -0.23884,0 -0.52446,0.0672 -0.6347,0.14929 -0.47235,0.35184 -0.0416,1.0948 0.6347,1.0948 0.1706,0 0.4283,-0.088 0.57266,-0.1955 z m -35.647879,13.21151 v -1.57052 h 0.84611 c 1.1527,0 1.49224,0.15528 1.49224,0.68245 0,0.27415 -0.10368,0.46915 -0.29229,0.54968 -0.27016,0.11537 -0.26384,0.13992 0.0835,0.32426 0.25925,0.13759 0.37581,0.32633 0.37581,0.60854 0,0.57566 -0.47542,0.85072 -1.58933,0.91953 l -0.91605,0.0566 z m 1.7796,1.0261 c 0.27879,-0.17235 0.29219,-0.63045 0.0242,-0.83001 -0.11024,-0.0821 -0.44846,-0.14929 -0.75161,-0.14929 h -0.55119 v 0.63759 0.6376 l 0.52691,-0.0785 c 0.28981,-0.0432 0.62803,-0.14101 0.75162,-0.2174 z m -0.0436,-1.63245 c 0.26663,-0.31719 -0.0688,-0.64469 -0.709,-0.69213 -0.51345,-0.038 -0.52599,-0.0268 -0.52599,0.47442 0,0.50116 0.0126,0.51247 0.52599,0.47441 0.28929,-0.0214 0.60834,-0.13696 0.709,-0.2567 z m 37.719409,-13.27799 c -0.63794,-0.29345 -0.87271,-0.67865 -0.87271,-1.43194 0,-0.96092 1.25611,-1.6888 2.59217,-1.50211 0.85358,0.11928 0.58211,0.39272 -0.3359,0.33833 -0.6477,-0.0384 -0.81202,0.005 -1.25045,0.33179 -0.37689,0.28074 -0.50475,0.49076 -0.50475,0.82915 0,0.88784 0.5429,1.29794 1.72592,1.30373 1.04341,0.005 0.98521,0.30053 -0.0687,0.34882 -0.51173,0.0235 -0.90656,-0.0434 -1.28556,-0.21777 z"
       style="fill:#000000;stroke-width:0.14415"
       id="path312"
       sodipodi:nodetypes="ccssscccssscccsscccsscscsssscsssssscccssssssscssscccssssscccssccsssssssssccccccsssssscccsssscsssscccccccssssssssssssssssssscsssscccssssssssccssssssccssscccsssssssssssssssss" /><path
       d="m 206.44149,116.80468 c -0.27777,-0.17578 -0.13595,-0.26333 0.52917,-0.32668 0.69844,-0.0665 0.90865,-0.20716 0.90865,-0.6079 0,-0.28674 -0.27434,-0.65813 -0.60964,-0.82529 l -0.60964,-0.30394 0.5665,-0.14814 c 0.76939,-0.2012 0.58806,-1.11944 -0.21538,-1.09069 -0.32288,0.0116 -0.58705,-0.0777 -0.58705,-0.19843 0,-0.1207 0.36092,-0.21945 0.80205,-0.21945 0.91421,0 1.29477,0.60568 0.83905,1.3354 -0.22652,0.36272 -0.20562,0.54531 0.0905,0.7911 0.54788,0.4547 0.477,0.95407 -0.20301,1.43037 -0.67152,0.47035 -0.97468,0.50318 -1.51124,0.16365 z m 6.98204,-0.4012 c -1.30716,-1.30716 -0.38271,-3.5839 1.45521,-3.5839 0.44318,0 0.80577,0.11906 0.80577,0.26458 0,0.14552 -0.41253,0.26458 -0.91673,0.26458 -1.00386,0 -1.46452,0.52954 -1.46452,1.6835 0,0.8857 0.65882,1.4915 1.62202,1.4915 0.4596,0 0.72202,0.11075 0.62694,0.26459 -0.29953,0.48465 -1.47097,0.27287 -2.12869,-0.38485 z m 3.37819,0.23755 c -0.73417,-0.51423 -0.76099,-1.53183 -0.0589,-2.23395 0.62122,-0.62122 1.03925,-0.66264 1.71332,-0.16975 0.97737,0.71467 0.39612,2.81558 -0.77898,2.81558 -0.15809,0 -0.55205,-0.18535 -0.87547,-0.41188 z m 1.63255,-0.7126 c 0.39864,-0.63592 -0.10371,-1.38906 -0.92651,-1.38906 -0.65785,0 -0.97567,0.78894 -0.65473,1.6253 0.19749,0.51464 1.20488,0.36414 1.58124,-0.23624 z m 1.39538,0.94809 c -0.28196,-0.28196 -0.2035,-4.00896 0.0882,-4.18923 0.16852,-0.10416 0.26458,0.65871 0.26458,2.10105 0,2.26877 -0.0249,2.41607 -0.35278,2.08818 z m 1.41111,-2.07257 c 0,-1.45275 0.096,-2.22085 0.26459,-2.11666 0.14552,0.0899 0.26458,1.04243 0.26458,2.11666 0,1.07423 -0.11906,2.02673 -0.26458,2.11667 -0.16857,0.10418 -0.26459,-0.66392 -0.26459,-2.11667 z m 1.5875,1.71979 c -0.60052,-0.60052 -0.62781,-0.76442 -0.27973,-1.67992 0.33527,-0.88183 1.23176,-1.14413 1.88619,-0.55188 0.84137,0.76143 0.63896,1.17347 -0.57643,1.17347 -0.88217,0 -1.05642,0.0787 -0.92604,0.41852 0.0883,0.23018 0.1606,0.4683 0.1606,0.52916 0,0.0609 0.36421,0.11065 0.80936,0.11065 0.47221,0 0.74125,0.11022 0.64585,0.26459 -0.26957,0.43617 -1.15531,0.2999 -1.7198,-0.26459 z m 1.52268,-1.65364 c -0.16292,-0.4947 -1.16644,-0.55434 -1.3484,-0.0801 -0.12131,0.31613 0.0285,0.41087 0.64983,0.41087 0.52769,0 0.76975,-0.1146 0.69857,-0.33073 z m 1.7112,1.77093 c -0.82779,-0.5798 -0.79061,-1.82444 0.0714,-2.38924 0.40891,-0.26793 0.83608,-0.35497 1.12448,-0.22912 0.3791,0.16544 0.31834,0.23243 -0.32869,0.36242 -0.69987,0.14061 -0.79375,0.2687 -0.79375,1.08292 0,0.8121 0.0883,0.93359 0.73209,1.0076 0.40265,0.0463 0.66351,0.19511 0.5797,0.33072 -0.22315,0.36106 -0.71805,0.302 -1.38521,-0.1653 z m 2.76335,0.23549 c -0.097,-0.097 -0.17639,-0.6824 -0.17639,-1.30087 0,-0.61846 -0.11074,-1.16416 -0.24609,-1.21267 -0.13733,-0.0492 -0.1081,-0.26837 0.0661,-0.49585 0.27868,-0.36385 0.362,-0.35674 0.77526,0.0661 0.38284,0.39177 0.39429,0.47381 0.0661,0.47381 -0.27786,0 -0.39688,0.2802 -0.39688,0.93434 0,0.58646 0.14777,0.99105 0.39688,1.08664 0.21828,0.0838 0.39687,0.25862 0.39687,0.38857 0,0.27537 -0.62409,0.31775 -0.88194,0.0599 z m 1.84899,-0.30746 c -0.64398,-0.7116 -0.55491,-1.80852 0.1863,-2.29418 1.03628,-0.67899 2.01006,-0.0816 2.0176,1.23778 0.008,1.36002 -1.34312,2.00755 -2.2039,1.0564 z m 1.67879,-0.57448 c 0.39969,-0.74683 -0.11381,-1.64618 -0.8778,-1.53741 -0.59009,0.084 -0.89585,0.93527 -0.60664,1.68894 0.21327,0.55578 1.15748,0.45939 1.48444,-0.15153 z m 1.32291,-0.55748 c 0,-1.03928 0.0842,-1.31892 0.36464,-1.2113 0.20054,0.077 0.4982,0.006 0.66145,-0.1569 0.20488,-0.20487 0.29683,-0.2085 0.29683,-0.0117 0,0.15681 -0.17859,0.43332 -0.39688,0.61448 -0.21828,0.18116 -0.39687,0.73152 -0.39687,1.22302 0,0.49151 -0.11906,0.89365 -0.26458,0.89365 -0.14552,0 -0.26459,-0.60805 -0.26459,-1.35123 z m -23.87864,0.36608 c 0.47294,-0.0587 1.24684,-0.0587 1.71979,0 0.47294,0.0587 0.086,0.10671 -0.8599,0.10671 -0.94588,0 -1.33284,-0.048 -0.85989,-0.10671 z m 0,-1.05834 c 0.47294,-0.0587 1.24684,-0.0587 1.71979,0 0.47294,0.0587 0.086,0.10672 -0.8599,0.10672 -0.94588,0 -1.33284,-0.048 -0.85989,-0.10672 z m -3.63803,-5.26663 c 0,-0.0915 0.42386,-0.63553 0.94192,-1.20896 1.1495,-1.27236 1.10486,-1.88292 -0.15117,-2.06792 -0.72102,-0.1062 -0.81696,-0.17858 -0.43838,-0.33073 0.73359,-0.29481 1.15504,-0.23707 1.61311,0.221 0.59899,0.59899 0.51868,1.03611 -0.37798,2.05735 -0.43656,0.49721 -0.79375,0.97006 -0.79375,1.05077 0,0.0807 0.38696,0.19477 0.8599,0.25346 0.66094,0.082 0.56911,0.11651 -0.39687,0.14905 -0.69123,0.0233 -1.25678,-0.0325 -1.25678,-0.12402 z m 6.87917,-1.81801 v -1.98437 h 0.89365 c 1.17672,0 1.72414,0.61881 1.2372,1.39853 -0.2518,0.40319 -0.26598,0.5901 -0.0502,0.66202 0.39677,0.13226 0.38557,1.18826 -0.0169,1.5907 -0.17462,0.17462 -0.71041,0.3175 -1.19062,0.3175 h -0.87313 z m 1.71003,1.29489 c 0.50631,-0.50631 0.12014,-1.1626 -0.68409,-1.1626 -0.37558,0 -0.49677,0.19365 -0.49677,0.79375 0,0.89384 0.49977,1.04994 1.18086,0.36885 z m 0.01,-2.35322 c 0,-0.34733 -0.20457,-0.55822 -0.59531,-0.61372 -0.48834,-0.0694 -0.59531,0.0409 -0.59531,0.61372 0,0.57279 0.10697,0.68307 0.59531,0.61371 0.39074,-0.0555 0.59531,-0.26638 0.59531,-0.61371 z m 1.3339,2.57904 c -0.19178,-0.49978 0.68079,-1.38842 1.3633,-1.38842 0.21428,0 0.33692,-0.14882 0.27252,-0.33072 -0.0644,-0.18191 -0.43423,-0.30795 -0.82183,-0.2801 -0.38761,0.0279 -0.63547,-0.0614 -0.5508,-0.19844 0.21812,-0.35293 1.27976,-0.30909 1.65729,0.0684 0.17462,0.17463 0.3175,0.80996 0.3175,1.41184 0,1.08862 -0.005,1.09454 -1.03117,1.13474 -0.75829,0.0297 -1.07764,-0.0807 -1.20681,-0.41733 z m 1.61996,-0.21558 c 0.0875,-0.22806 0.0476,-0.52616 -0.0887,-0.66244 -0.33413,-0.33413 -1.28462,0.3732 -1.03791,0.77238 0.27179,0.43977 0.94068,0.3745 1.12658,-0.10994 z m 1.41177,0.47738 c 0,-0.13036 0.25584,-0.22757 0.56853,-0.21602 0.8286,0.0306 0.87878,-0.49882 0.0817,-0.862 -0.95119,-0.43339 -0.8146,-1.4641 0.20965,-1.58196 0.40019,-0.0461 0.72761,0.0321 0.72761,0.17367 0,0.14156 -0.23813,0.19512 -0.52917,0.11901 -0.72061,-0.18845 -0.70778,0.60288 0.0161,0.99026 0.80771,0.43227 0.58313,1.42334 -0.34678,1.53034 -0.40018,0.046 -0.72761,-0.0229 -0.72761,-0.1533 z m 2.49845,-0.44549 c -0.36493,-0.55696 -0.37468,-0.75095 -0.0698,-1.38907 0.58297,-1.22005 2.33382,-1.05745 2.33382,0.21674 0,0.40318 -0.1994,0.49677 -1.05834,0.49677 -1.4885,0 -1.29092,0.84325 0.26459,1.12924 0.56209,0.10335 0.5332,0.12703 -0.19234,0.15765 -0.63746,0.0269 -0.96127,-0.128 -1.27796,-0.61133 z m 1.73488,-1.34532 c 0,-0.55253 -0.71305,-0.78492 -1.19108,-0.38819 -0.51356,0.42622 -0.26124,0.79337 0.54524,0.79337 0.40358,0 0.64584,-0.15199 0.64584,-0.40518 z m -13.55989,1.00753 c 0.47294,-0.0587 1.24684,-0.0587 1.71979,0 0.47294,0.0587 0.086,0.10671 -0.8599,0.10671 -0.94588,0 -1.33284,-0.048 -0.85989,-0.10671 z m 0,-1.32292 c 0.47294,-0.0587 1.24684,-0.0587 1.71979,0 0.47294,0.0587 0.086,0.10672 -0.8599,0.10672 -0.94588,0 -1.33284,-0.048 -0.85989,-0.10672 z m -2.57969,-6.54717 c 0,-1.519701 -0.0519,-1.692041 -0.46302,-1.537961 -0.40547,0.15196 -0.41789,0.11804 -0.0999,-0.27289 0.78857,-0.96943 1.09208,-0.54199 1.09208,1.537961 0,1.14653 -0.11171,1.98438 -0.26458,1.98438 -0.14912,0 -0.26458,-0.74689 -0.26458,-1.71149 z m 5.82083,-0.40518 v -2.116671 h 1.05833 c 0.58209,0 1.05834,0.11907 1.05834,0.26459 0,0.14552 -0.35719,0.26458 -0.79375,0.26458 -0.66478,0 -0.79375,0.10476 -0.79375,0.6447 0,0.52906 0.15422,0.663831 0.85989,0.751401 l 0.8599,0.10672 -0.8599,0.0423 c -0.76964,0.0379 -0.85989,0.12565 -0.85989,0.83609 0,0.70556 0.0882,0.79375 0.79375,0.79375 0.43656,0 0.79375,0.11906 0.79375,0.26458 0,0.14552 -0.47625,0.26459 -1.05834,0.26459 h -1.05833 z m 2.91042,0.70236 v -1.414311 l 1.85005,-0.0273 c 2.04938,-0.0302 2.38328,0.21698 2.38328,1.764571 0,1.33276 -0.49367,1.19761 -0.58055,-0.15893 -0.0679,-1.05991 -0.16609,-1.263261 -0.61007,-1.263261 -0.44358,0 -0.54221,0.203261 -0.60981,1.256771 -0.0444,0.69122 -0.18666,1.25677 -0.31624,1.25677 -0.12957,0 -0.27187,-0.56555 -0.31623,-1.25677 -0.0676,-1.05351 -0.16623,-1.256771 -0.60981,-1.256771 -0.44358,0 -0.54221,0.203261 -0.60981,1.256771 -0.11042,1.72091 -0.58081,1.59332 -0.58081,-0.15754 z m 5.02708,-0.0409 c 0,-0.80037 0.11906,-1.455211 0.26458,-1.455211 0.14553,0 0.26459,0.654841 0.26459,1.455211 0,0.80036 -0.11906,1.45521 -0.26459,1.45521 -0.14552,0 -0.26458,-0.65485 -0.26458,-1.45521 z m 1.76389,1.27882 c -0.097,-0.097 -0.17639,-0.68241 -0.17639,-1.30087 0,-0.65202 -0.13896,-1.180551 -0.33073,-1.257931 -0.26458,-0.10676 -0.26458,-0.13763 0,-0.15434 0.1819,-0.0115 0.33073,-0.19948 0.33073,-0.41776 0,-0.21829 0.11906,-0.39688 0.26458,-0.39688 0.14553,0 0.26459,0.16986 0.26459,0.37748 0,0.20761 0.20836,0.43192 0.46302,0.49847 0.44097,0.11524 0.44097,0.12246 0,0.15169 -0.35869,0.0238 -0.46302,0.269171 -0.46302,1.089031 0,0.58208 0.11906,1.05833 0.26458,1.05833 0.14552,0 0.26458,0.11906 0.26458,0.26458 0,0.29759 -0.61141,0.35873 -0.88194,0.0882 z m 1.93254,-0.36723 c -0.16001,-0.29899 -0.25717,-0.805 -0.2159,-1.12448 0.0413,-0.31947 -0.0125,-0.72146 -0.11957,-0.893311 -0.10703,-0.17184 -0.0716,-0.38843 0.0786,-0.4813 0.15027,-0.0929 0.20472,-0.27969 0.121,-0.41516 -0.0837,-0.13546 -0.0261,-0.2463 0.12797,-0.2463 0.15411,0 0.2802,0.16986 0.2802,0.37748 0,0.20761 0.20836,0.43192 0.46302,0.49847 0.44098,0.11524 0.44098,0.12246 0,0.15169 -0.62043,0.0411 -0.68531,2.147361 -0.0661,2.147361 0.21828,0 0.39687,0.11906 0.39687,0.26458 0,0.47771 -0.76876,0.2765 -1.06607,-0.27903 z m 2.05826,0.25784 c -0.53888,-0.31387 -0.6338,-1.81886 -0.14552,-2.307141 0.45997,-0.45997 1.71341,-0.39344 1.90315,0.101021 0.29004,0.75582 0.17153,0.9044 -0.72134,0.9044 -0.48508,0 -0.96029,0.0783 -1.05604,0.17409 -0.30112,0.30111 0.38759,0.88424 1.04433,0.88424 0.34599,0 0.62907,0.11906 0.62907,0.26458 0,0.34121 -1.05465,0.3277 -1.65365,-0.0212 z m 1.32292,-1.89704 c -0.0606,-0.1819 -0.32853,-0.330721 -0.59532,-0.330721 -0.26678,0 -0.53467,0.148821 -0.59531,0.330721 -0.0698,0.20947 0.14846,0.33073 0.59531,0.33073 0.44686,0 0.66514,-0.12126 0.59532,-0.33073 z m 1.38925,0.80937 c 1.7e-4,-1.343811 0.0315,-1.406501 0.7238,-1.446721 0.64632,-0.0376 0.67457,-0.006 0.26439,0.29376 -0.28788,0.210501 -0.45921,0.689251 -0.45921,1.283191 0,0.52107 -0.11907,1.02099 -0.26459,1.11093 -0.1637,0.10117 -0.26451,-0.37204 -0.26439,-1.24116 z m -19.6455,0.12371 c 0.47294,-0.0587 1.24684,-0.0587 1.71979,0 0.47294,0.0587 0.086,0.10672 -0.8599,0.10672 -0.94588,0 -1.33284,-0.048 -0.85989,-0.10672 z m 0,-1.05833 c 0.47294,-0.0587 1.24684,-0.0587 1.71979,0 0.47294,0.0587 0.086,0.10671 -0.8599,0.10671 -0.94588,0 -1.33284,-0.048 -0.85989,-0.10671 z m 11.17864,-1.396101 c 0,-0.14552 0.11906,-0.26458 0.26458,-0.26458 0.14553,0 0.26459,0.11906 0.26459,0.26458 0,0.14552 -0.11906,0.26458 -0.26459,0.26458 -0.14552,0 -0.26458,-0.11906 -0.26458,-0.26458 z"
       style="fill:#000000;stroke-width:0.264583"
       id="path340" /></g></svg>
