<?xml version="1.0" encoding="UTF-8" standalone="no"?>
<!-- Created with Inkscape (http://www.inkscape.org/) -->

<svg
   width="122.76667mm"
   height="74.083328mm"
   viewBox="0 0 122.76667 74.083328"
   version="1.1"
   id="svg1"
   xml:space="preserve"
   inkscape:version="1.3.1 (9b9bdc1480, 2023-11-25, custom)"
   sodipodi:docname="triac.svg"
   xmlns:inkscape="http://www.inkscape.org/namespaces/inkscape"
   xmlns:sodipodi="http://sodipodi.sourceforge.net/DTD/sodipodi-0.dtd"
   xmlns="http://www.w3.org/2000/svg"
   xmlns:svg="http://www.w3.org/2000/svg"><sodipodi:namedview
     id="namedview1"
     pagecolor="#505050"
     bordercolor="#eeeeee"
     borderopacity="1"
     inkscape:showpageshadow="0"
     inkscape:pageopacity="0"
     inkscape:pagecheckerboard="0"
     inkscape:deskcolor="#505050"
     inkscape:document-units="mm"
     inkscape:zoom="0.63966507"
     inkscape:cx="184.47154"
     inkscape:cy="326.73349"
     inkscape:window-width="2048"
     inkscape:window-height="1040"
     inkscape:window-x="0"
     inkscape:window-y="0"
     inkscape:window-maximized="1"
     inkscape:current-layer="layer1" /><defs
     id="defs1" /><g
     inkscape:label="Layer 1"
     inkscape:groupmode="layer"
     id="layer1"
     transform="translate(-47.808449,-47.806872)"><path
       d="m 133.12455,121.24077 c -0.93344,-0.93344 -0.93377,-3.19982 -6.1e-4,-4.20672 0.87023,-0.93899 2.04989,-0.93585 2.99371,0.008 0.4861,0.4861 0.60053,0.7439 0.36505,0.82239 -0.18865,0.0629 -0.57686,-0.13668 -0.86268,-0.44348 -0.63863,-0.68548 -1.05688,-0.70139 -1.83677,-0.0699 -0.47046,0.38095 -0.60258,0.75727 -0.60258,1.71637 0,1.55572 0.63891,2.35336 1.79447,2.2403 0.66014,-0.0646 0.82253,-0.21159 0.89099,-0.80659 0.0721,-0.62649 -0.0106,-0.7276 -0.59531,-0.7276 -0.37347,0 -0.67904,-0.11906 -0.67904,-0.26459 0,-0.14552 0.47625,-0.26458 1.05834,-0.26458 1.02379,0 1.05833,0.0289 1.05833,0.88504 0,1.13776 -0.69037,1.76079 -1.95109,1.76079 -0.6913,0 -1.17627,-0.19288 -1.63281,-0.64943 z m 1.22943,-15.40383 0.10551,-8.909511 -5.12939,-2.33528 c -2.82116,-1.2844 -5.23035,-2.33528 -5.35375,-2.33528 -0.1234,0 -0.25596,3.38404 -0.29457,7.52008 l -0.0702,7.520071 -14.65874,-7.25549 c -8.0623,-3.990521 -14.700044,-7.255491 -14.750524,-7.255491 -0.0505,0 -0.0918,3.33375 -0.0918,7.408331 0,4.7625 -0.0945,7.40834 -0.26459,7.40834 -0.17323,0 -0.26458,-5.11528 -0.26458,-14.816671 v -14.81667 h -15.61042 c -13.699537,0 -15.610417,-0.0486 -15.610417,-0.39687 0,-0.3483 1.91064,-0.39688 15.608197,-0.39688 h 15.60819 l 0.0684,-14.648478 0.0684,-14.648489 14.660704,7.240148 c 8.06338,3.98209 14.70112,7.240161 14.75052,7.240161 0.0494,0 0.0898,-3.274221 0.0898,-7.276051 0,-4.674298 0.0946,-7.276038 0.26458,-7.276038 0.17321,0 0.26459,5.07118 0.26459,14.684379 v 14.684368 h 15.61041 c 13.69954,0 15.61042,0.0486 15.61042,0.39688 0,0.34829 -1.91088,0.39687 -15.61042,0.39687 h -15.61041 v 6.71346 6.71345 l 5.68854,2.58955 5.68854,2.58955 v 9.085541 c 0,8.26407 -0.0394,9.08554 -0.43625,9.08554 -0.39872,0 -0.42717,-0.76631 -0.33072,-8.90952 z m -25.56404,-21.313401 14.42476,-7.20416 v -6.93669 -6.936688 l -9.32656,4.575448 c -5.12961,2.5165 -11.67805,5.75308 -14.552094,7.19239 l -5.22552,2.61694 v 6.94846 c 0,3.82166 0.0573,6.94847 0.12732,6.94847 0.07,0 6.618474,-3.24188 14.552094,-7.20417 z m -60.981491,-7.36732 c 0,-2.38607 0.048,-2.65598 0.45858,-2.57692 0.25222,0.0486 0.76003,0.7186 1.12847,1.48895 l 0.6699,1.40064 0.72967,-1.48778 c 0.52517,-1.07079 0.85775,-1.46328 1.18663,-1.40034 0.3892,0.0745 0.46819,0.46952 0.53268,2.66406 0.063,2.14325 0.009,2.57663 -0.3196,2.57663 -0.30982,0 -0.41263,-0.44351 -0.47536,-2.05053 l -0.08,-2.05052 -0.62783,1.38907 c -0.3453,0.76398 -0.77216,1.38906 -0.94857,1.38906 -0.17642,0 -0.62585,-0.68461 -0.99875,-1.52136 l -0.67799,-1.52135 -0.0243,2.18281 c -0.0141,1.26261 -0.13585,2.18282 -0.2889,2.18282 -0.15887,0 -0.26458,-1.0648 -0.26458,-2.66524 z m 6.87917,0.41628 v -2.24896 h -0.94809 c -0.64048,0 -0.91257,-0.10731 -0.8386,-0.33073 0.0728,-0.21979 0.83457,-0.35651 2.271,-0.40758 1.80344,-0.0641 2.16152,-0.009 2.16152,0.33073 0,0.28942 -0.26848,0.40758 -0.92604,0.40758 h -0.92604 v 2.24896 c 0,1.82268 -0.0752,2.24896 -0.39688,2.24896 -0.32165,0 -0.39687,-0.42628 -0.39687,-2.24896 z m 3.175,1.9571 c 0,-0.16052 0.53578,-0.88777 1.19062,-1.61611 0.65484,-0.72835 1.19063,-1.54532 1.19063,-1.81551 0,-0.68113 -0.91161,-1.13617 -1.57011,-0.78375 -0.67587,0.36172 -0.81114,0.34593 -0.81114,-0.0947 0,-0.79904 2.06008,-0.95402 2.73711,-0.20591 0.72104,0.79674 0.51447,1.57361 -0.78895,2.96707 l -1.22683,1.31158 h 1.35913 c 0.74751,0 1.35912,0.11906 1.35912,0.26458 0,0.14925 -0.74965,0.26459 -1.71979,0.26459 -1.07727,0 -1.71979,-0.10904 -1.71979,-0.29186 z m 99.483331,-2.37338 c 0,-2.38607 0.048,-2.65598 0.45858,-2.57692 0.25222,0.0486 0.76003,0.7186 1.12848,1.48895 l 0.66989,1.40064 0.72967,-1.48778 c 0.52517,-1.07079 0.85776,-1.46328 1.18664,-1.40034 0.38919,0.0745 0.46818,0.46952 0.53268,2.66406 0.063,2.14325 0.009,2.57663 -0.3196,2.57663 -0.30953,0 -0.41344,-0.44502 -0.47876,-2.05053 l -0.0834,-2.05052 -0.64167,1.38907 c -0.35292,0.76398 -0.77825,1.38906 -0.94519,1.38906 -0.16693,0 -0.60861,-0.68461 -0.9815,-1.52136 l -0.67799,-1.52135 -0.0243,2.18281 c -0.0141,1.26261 -0.13585,2.18282 -0.2889,2.18282 -0.15887,0 -0.26458,-1.0648 -0.26458,-2.66524 z m 6.87917,0.41628 v -2.24896 h -0.79375 c -0.52917,0 -0.79375,-0.13229 -0.79375,-0.39688 0,-0.3197 0.41157,-0.39687 2.11666,-0.39687 1.7051,0 2.11667,0.0772 2.11667,0.39687 0,0.27719 -0.27928,0.39688 -0.92604,0.39688 h -0.92604 v 2.24896 c 0,1.82268 -0.0752,2.24896 -0.39688,2.24896 -0.32165,0 -0.39687,-0.42628 -0.39687,-2.24896 z m 3.43958,1.98437 c 0,-0.14552 0.23813,-0.26458 0.52917,-0.26458 0.47489,0 0.52916,-0.17639 0.52916,-1.71979 0,-1.54341 -0.0543,-1.71979 -0.52916,-1.71979 -0.29104,0 -0.52917,-0.11907 -0.52917,-0.26459 0,-0.14552 0.16402,-0.26458 0.36448,-0.26458 0.20046,0 0.5127,-0.17859 0.69385,-0.39688 0.63683,-0.76732 0.79375,-0.37501 0.79375,1.98438 0,2.20486 0.0392,2.38125 0.52917,2.38125 0.29104,0 0.52917,0.11906 0.52917,0.26458 0,0.14552 -0.65485,0.26459 -1.45521,0.26459 -0.80037,0 -1.45521,-0.11907 -1.45521,-0.26459 z"
       style="fill:#000000"
       id="path1" /></g></svg>
